<?xml version="1.0" encoding="UTF-8" standalone="no"?>
<!DOCTYPE svg PUBLIC "-//W3C//DTD SVG 1.1//EN"
 "http://www.w3.org/Graphics/SVG/1.1/DTD/svg11.dtd">
<!-- Generated by graphviz version 2.26.3 (20100126.1600)
 -->
<!-- Title: _anonymous_0 Pages: 1 -->
<svg width="274pt" height="332pt"
 viewBox="0.00 0.00 274.00 332.00" xmlns="http://www.w3.org/2000/svg" xmlns:xlink="http://www.w3.org/1999/xlink">
<g id="graph1" class="graph" transform="scale(1 1) rotate(0) translate(4 328)">
<title>_anonymous_0</title>
<polygon fill="white" stroke="white" points="-4,5 -4,-328 271,-328 271,5 -4,5"/>
<!-- N0 -->
<g id="node1" class="node"><title>N0</title>
<polygon fill="none" stroke="black" points="228,-180 40,-180 40,-144 228,-144 228,-180"/>
<text text-anchor="middle" x="134" y="-158.4" font-family="Times Roman,serif" font-size="14.00">github.com/FGM/kurz/url</text>
</g>
<!-- N1 -->
<g id="node2" class="node"><title>N1</title>
<polygon fill="none" stroke="black" points="244,-108 24,-108 24,-72 244,-72 244,-108"/>
<text text-anchor="middle" x="134" y="-86.4" font-family="Times Roman,serif" font-size="14.00">github.com/FGM/kurz/storage</text>
</g>
<!-- N0&#45;&gt;N1 -->
<g id="edge12" class="edge"><title>N0&#45;&gt;N1</title>
<path fill="none" stroke="black" d="M134,-143.831C134,-136.131 134,-126.974 134,-118.417"/>
<polygon fill="black" stroke="black" points="137.5,-118.413 134,-108.413 130.5,-118.413 137.5,-118.413"/>
</g>
<!-- N4 -->
<g id="node5" class="node"><title>N4</title>
<polygon fill="none" stroke="black" points="248,-36 20,-36 20,-1.77636e-14 248,-3.55271e-15 248,-36"/>
<text text-anchor="middle" x="134" y="-14.4" font-family="Times Roman,serif" font-size="14.00">github.com/go&#45;sql&#45;driver/mysql</text>
</g>
<!-- N1&#45;&gt;N4 -->
<g id="edge6" class="edge"><title>N1&#45;&gt;N4</title>
<path fill="none" stroke="black" d="M134,-71.8314C134,-64.131 134,-54.9743 134,-46.4166"/>
<polygon fill="black" stroke="black" points="137.5,-46.4132 134,-36.4133 130.5,-46.4133 137.5,-46.4132"/>
</g>
<!-- N2 -->
<g id="node3" class="node"><title>N2</title>
<polygon fill="none" stroke="black" points="164,-324 8.52651e-14,-324 0,-288 164,-288 164,-324"/>
<text text-anchor="middle" x="82" y="-302.4" font-family="Times Roman,serif" font-size="14.00">github.com/FGM/kurz</text>
</g>
<!-- N2&#45;&gt;N1 -->
<g id="edge2" class="edge"><title>N2&#45;&gt;N1</title>
<path fill="none" stroke="black" d="M58.1509,-287.928C47.7058,-278.504 36.574,-266.02 31,-252 13.2664,-207.396 6.15863,-185.072 31,-144 39.0144,-130.749 51.4722,-120.591 64.9914,-112.862"/>
<polygon fill="black" stroke="black" points="66.7728,-115.88 73.9926,-108.126 63.5132,-109.685 66.7728,-115.88"/>
</g>
<!-- N3 -->
<g id="node4" class="node"><title>N3</title>
<polygon fill="none" stroke="black" points="266,-252 40,-252 40,-216 266,-216 266,-252"/>
<text text-anchor="middle" x="153" y="-230.4" font-family="Times Roman,serif" font-size="14.00">github.com/FGM/kurz/strategy</text>
</g>
<!-- N2&#45;&gt;N3 -->
<g id="edge4" class="edge"><title>N2&#45;&gt;N3</title>
<path fill="none" stroke="black" d="M99.9163,-287.831C108.344,-279.285 118.541,-268.944 127.736,-259.62"/>
<polygon fill="black" stroke="black" points="130.313,-261.991 134.842,-252.413 125.329,-257.076 130.313,-261.991"/>
</g>
<!-- N3&#45;&gt;N0 -->
<g id="edge10" class="edge"><title>N3&#45;&gt;N0</title>
<path fill="none" stroke="black" d="M148.205,-215.831C146.151,-208.046 143.704,-198.773 141.424,-190.135"/>
<polygon fill="black" stroke="black" points="144.795,-189.189 138.859,-180.413 138.027,-190.975 144.795,-189.189"/>
</g>
<!-- N3&#45;&gt;N1 -->
<g id="edge8" class="edge"><title>N3&#45;&gt;N1</title>
<path fill="none" stroke="black" d="M197.979,-215.986C213.174,-207.476 228.443,-195.673 237,-180 244.667,-165.957 245.28,-157.691 237,-144 228.986,-130.749 216.528,-120.591 203.009,-112.862"/>
<polygon fill="black" stroke="black" points="204.487,-109.685 194.007,-108.126 201.227,-115.88 204.487,-109.685"/>
</g>
</g>
</svg>
