solid model
facet normal 1.0 0.0 0.0
outer loop
vertex 19.0726873012066 20.1520966447257 0.0
vertex 19.0726873012066 0.152096644725744 10.0
vertex 19.0726873012066 0.152096644725744 0.0
endloop
endfacet
facet normal 1.0 0.0 0.0
outer loop
vertex 19.0726873012066 0.152096644725744 10.0
vertex 19.0726873012066 20.1520966447257 0.0
vertex 19.0726873012066 20.1520966447257 10.0
endloop
endfacet
facet normal -1.0 0.0 0.0
outer loop
vertex -0.927312698793362 20.1520966447257 10.0
vertex -0.927312698793362 0.152096644725744 0.0
vertex -0.927312698793362 0.152096644725744 10.0
endloop
endfacet
facet normal -1.0 0.0 0.0
outer loop
vertex -0.927312698793362 0.152096644725744 0.0
vertex -0.927312698793362 20.1520966447257 10.0
vertex -0.927312698793362 20.1520966447257 0.0
endloop
endfacet
facet normal -0.0 -1.0 -0.0
outer loop
vertex 19.0726873012066 0.152096644725744 10.0
vertex -0.927312698793362 0.152096644725744 0.0
vertex 19.0726873012066 0.152096644725744 0.0
endloop
endfacet
facet normal -0.0 -1.0 -0.0
outer loop
vertex -0.927312698793362 0.152096644725744 0.0
vertex 19.0726873012066 0.152096644725744 10.0
vertex -0.927312698793362 0.152096644725744 10.0
endloop
endfacet
facet normal 0.0 0.0 -1.0
outer loop
vertex 19.0726873012066 20.1520966447257 0.0
vertex -0.927312698793362 0.152096644725744 0.0
vertex -0.927312698793362 20.1520966447257 0.0
endloop
endfacet
facet normal 0.0 0.0 -1.0
outer loop
vertex -0.927312698793362 0.152096644725744 0.0
vertex 19.0726873012066 20.1520966447257 0.0
vertex 19.0726873012066 0.152096644725744 0.0
endloop
endfacet
facet normal -0.0 -0.0 1.0
outer loop
vertex 19.0726873012066 0.152096644725744 10.0
vertex -0.927312698793362 20.1520966447257 10.0
vertex -0.927312698793362 0.152096644725744 10.0
endloop
endfacet
facet normal -0.0 -0.0 1.0
outer loop
vertex -0.927312698793362 20.1520966447257 10.0
vertex 19.0726873012066 0.152096644725744 10.0
vertex 19.0726873012066 20.1520966447257 10.0
endloop
endfacet
facet normal -0.0 1.0 0.0
outer loop
vertex -0.927312698793362 20.1520966447257 10.0
vertex 19.0726873012066 20.1520966447257 0.0
vertex -0.927312698793362 20.1520966447257 0.0
endloop
endfacet
facet normal -0.0 1.0 0.0
outer loop
vertex 19.0726873012066 20.1520966447257 0.0
vertex -0.927312698793362 20.1520966447257 10.0
vertex 19.0726873012066 20.1520966447257 10.0
endloop
endfacet
endsolid model
