<?xml version="1.0" encoding="utf-8"?>
<!-- Generator: Adobe Illustrator 15.0.0, SVG Export Plug-In . SVG Version: 6.00 Build 0)  -->
<!DOCTYPE svg PUBLIC "-//W3C//DTD SVG 1.1//EN" "http://www.w3.org/Graphics/SVG/1.1/DTD/svg11.dtd">
<svg version="1.1" id="Layer_1" xmlns="http://www.w3.org/2000/svg" xmlns:xlink="http://www.w3.org/1999/xlink" x="0px" y="0px"
	 width="50px" height="50px" viewBox="0 0 50 50" enable-background="new 0 0 50 50" xml:space="preserve">
<g>
	<g>
		<g>
			<path fill="#5CB323" d="M47.484,22.201c-0.319-0.146-0.551-0.434-0.595-0.788c-0.001-0.014,0.002-0.029,0-0.046
				c-0.604,0.078-1.254,0.042-1.005-0.558c0.438-1.05-2.472-3.173-2.867-0.983c-0.344,1.899-2.181,0.754-1.884,0.292
				c2.097-3.274-4.288-1.213-3.698,1.086c0.426,1.677-4.499,2.846-1.098,3.114c0,0,2.453,3.479,3.659,0.671
				c0,0,1.434-0.866,2.071,0.026c0,0,2.946,1.996,4.125,0.731c0,0,0.229-1.542,1.187-2.373c0,0,0.038-0.03,0.098-0.083
				c-0.104-0.071-0.198-0.162-0.25-0.288C47.104,22.705,47.224,22.375,47.484,22.201z"/>
		</g>
		<g>
			<path fill="#5CA842" d="M37.436,21.205c-0.59-2.299,5.795-4.36,3.698-1.086c-0.154,0.236,0.256,0.65,0.735,0.743
				c-1.232,0.692-1.558-0.929-1.558-0.929c1.013-2.446-2.341,0.939-2.487,1.681c-0.235,1.182-1.13,1.118-1.13,1.118l-0.031-0.098
				C37.166,22.217,37.569,21.738,37.436,21.205z"/>
			<g>
				<path fill="#5CA842" d="M45.323,19.509c-0.892,0.958-1.763,1.977-2.286,2.603l0.118,0.023l-0.047,0.299
					c0.886,0.401,2.507,0.901,3.927,1.306c-0.031,0.042-0.062,0.083-0.091,0.125c-1.395-0.399-2.962-0.884-3.86-1.284l-0.085,0.538
					c0.487,0.607,1.655,1.941,3.039,2.757c-0.052,0.041-0.104,0.078-0.161,0.109c-1.408-0.866-2.575-2.217-3.05-2.807l-1.356,0.205
					c0.319,0.497,1.057,1.554,2.008,2.385c-0.148-0.063-0.293-0.128-0.427-0.193c-0.834-0.814-1.459-1.731-1.738-2.168l-1.992,0.3
					c0.122,0.218,0.424,0.738,0.771,1.231c-0.06,0.03-0.096,0.052-0.096,0.052c-0.006,0.012-0.011,0.022-0.018,0.035
					c-0.378-0.531-0.7-1.096-0.811-1.295l-1.472,0.221c0.01,0.009,0.02,0.014,0.026,0.024c0.008,0.016,0.644,1.144,1.46,2.006
					c-0.035,0.02-0.072,0.034-0.109,0.048c-0.913-0.909-1.477-1.979-1.487-1.998c-0.011-0.021-0.011-0.043-0.007-0.062l-0.928,0.14
					c0.011,0.009,0.021,0.015,0.027,0.028c0.01,0.015,0.444,0.845,1.159,1.65c-0.161-0.098-0.314-0.215-0.461-0.338
					c-0.519-0.665-0.825-1.244-0.832-1.257c-0.013-0.025-0.011-0.048-0.003-0.067l-0.812,0.121c-0.073-0.013-0.139-0.026-0.194-0.04
					l0.927-1.414c0.004-0.006,0.011-0.011,0.018-0.016l0.634-0.076c0.213-0.445,0.843-1.73,1.324-2.524
					c0.096-0.084,0.197-0.16,0.305-0.232c-0.543,0.836-1.23,2.242-1.469,2.739l0.942-0.113c0.215-0.43,1.547-2.692,2.188-3.643
					c0.062-0.017,0.122-0.032,0.187-0.044c-0.636,0.936-1.973,3.196-2.212,3.668l3.011-0.358c0.283-0.349,0.462-0.826,0.742-1.315
					c0.059-0.004,0.117-0.017,0.174-0.033c-0.285,0.496-0.467,0.975-0.752,1.327l1.124-0.133l0.195,0.039
					c0.54-0.642,1.44-1.69,2.343-2.662C45.255,19.446,45.29,19.477,45.323,19.509z"/>
				<path fill="#5CA842" d="M39.978,22.149c-0.04-0.001-0.062-0.035-0.042-0.077c0.003-0.01,0.596-1.288,1.113-2.279
					c0.05,0.009,0.098,0.019,0.138,0.032c-0.517,0.991-1.097,2.242-1.103,2.25C40.068,22.118,40.018,22.15,39.978,22.149z"/>
			</g>
			<path fill="#78C347" d="M33.557,24.878l9.438-1.539c0,0,1.043-1.178-0.085-1.719l-8.894,1.361
				C34.017,22.981,32.192,24.108,33.557,24.878z"/>
			<path fill="#53A120" d="M34.017,22.981l8.894-1.361c0.339,0.163,0.479,0.382,0.514,0.61c-1.877,0.222-9.551,0.946-10.359,2.075
				C32.944,23.646,34.017,22.981,34.017,22.981z"/>
		</g>
		<path fill="#5CA842" d="M46.89,21.414c-0.001-0.014,0.002-0.029,0-0.046c-0.604,0.078-1.254,0.042-1.005-0.558
			c0.438-1.05-2.472-3.173-2.867-0.983c-0.014,0.077-0.035,0.14-0.053,0.207c1.098-0.766,1.549-0.438,2.025,0.713
			c0.396,0.955,0.765,1.492,2.023,1.028C46.948,21.666,46.906,21.545,46.89,21.414z"/>
	</g>
	<g>
		<path fill="#4D9B23" d="M46.181,14.984c-0.011,0.29-0.199,0.551-0.495,0.626c-0.357,0.091-0.721-0.126-0.812-0.484
			c-0.034-0.132-0.014-0.26,0.028-0.38c-0.078-0.007-0.125-0.008-0.125-0.008c-1.268-0.096-2.372-1.195-2.372-1.195
			c-1.698-0.312-2.871,3.05-2.871,3.05c0.022,1.094-1.646,1.256-1.646,1.256c-2.644-1.534-2.537,2.723-2.537,2.723
			c-2.568,2.245,2.083,0.244,2.74,1.844c0.901,2.195,7.254,0.041,3.614-1.335c-0.513-0.194,0.279-2.21,1.688-0.892
			c1.625,1.521,2.692-1.919,1.714-2.499c-0.976-0.582,1.294-1.43,1.294-1.43C47.195,15.573,46.786,15.193,46.181,14.984z"/>
		<g>
			<path fill="#5D8138" d="M46.4,16.259c0.104-0.092,0.185-0.174,0.251-0.253c-2.503,0.31-2.541,1.014-2.225,2.267
				c0.306,1.21,0.139,1.741-1.201,1.781c0.056,0.043,0.11,0.082,0.167,0.134c1.625,1.521,2.692-1.919,1.714-2.499
				C44.131,17.106,46.4,16.259,46.4,16.259z"/>
			<path fill="#5D8138" d="M38.091,22.415c0.901,2.195,7.254,0.041,3.614-1.335c-0.262-0.099-0.181-0.675,0.147-1.038
				c-1.401,0.181-0.694,1.677-0.694,1.677c2.273,1.357-2.439,0.644-2.999,0.137c-0.895-0.81-1.573-0.223-1.573-0.223l0.032,0.099
				C37.272,21.762,37.881,21.906,38.091,22.415z"/>
		</g>
		<g>
			<path fill="#5D8138" d="M45.433,19.067c-1.286-0.238-2.593-0.533-3.388-0.723l0.082-0.089l-0.216-0.212
				c0.47-0.851,1.473-2.22,2.371-3.392c-0.052-0.014-0.099-0.03-0.148-0.045c-0.88,1.15-1.849,2.476-2.331,3.334l-0.39-0.38
				c0.03-0.777,0.17-2.546,0.793-4.028c-0.066-0.002-0.131,0.002-0.194,0.011c-0.613,1.534-0.746,3.315-0.771,4.071l-1.209,0.646
				c-0.041-0.59-0.081-1.877,0.186-3.113c-0.082,0.14-0.158,0.279-0.227,0.41c-0.184,1.151-0.137,2.261-0.101,2.778l-1.777,0.949
				c-0.032-0.248-0.101-0.846-0.118-1.447c-0.063,0.01-0.106,0.014-0.106,0.014c-0.011-0.008-0.022-0.011-0.034-0.018
				c0.016,0.652,0.091,1.297,0.121,1.524l-1.31,0.699c0.001-0.013,0.006-0.021,0.004-0.035c-0.002-0.018-0.165-1.302-0.025-2.481
				c-0.04,0.008-0.08,0.017-0.117,0.029c-0.189,1.274-0.001,2.467,0,2.489c0.004,0.024,0.017,0.043,0.033,0.056l-0.829,0.441
				c0.003-0.013,0.009-0.025,0.005-0.04c-0.002-0.019-0.15-0.941-0.056-2.016c-0.069,0.176-0.125,0.361-0.168,0.546
				c-0.02,0.844,0.08,1.492,0.083,1.507c0.005,0.025,0.02,0.044,0.037,0.056l-0.722,0.385c-0.053,0.053-0.097,0.104-0.135,0.15
				l1.589,0.583c0.008,0,0.016,0,0.023,0l0.554-0.318c0.438,0.229,1.707,0.886,2.569,1.235c0.128,0.009,0.254,0.011,0.382,0.004
				c-0.933-0.347-2.323-1.065-2.809-1.322l0.821-0.472c0.429,0.217,2.846,1.235,3.927,1.618c0.06-0.023,0.119-0.047,0.176-0.074
				c-1.066-0.373-3.489-1.388-3.962-1.624l2.629-1.51c0.436,0.111,0.863,0.386,1.38,0.612c0.05-0.031,0.104-0.057,0.159-0.077
				c-0.522-0.229-0.955-0.504-1.394-0.618l0.979-0.562l0.136-0.149c0.816,0.193,2.163,0.498,3.469,0.739
				C45.414,19.159,45.426,19.112,45.433,19.067z"/>
			<path fill="#5CA842" d="M39.567,20.14c-0.032,0.025-0.027,0.065,0.01,0.087c0.011,0.005,1.249,0.677,2.256,1.164
				c0.035-0.038,0.066-0.072,0.094-0.106c-1.007-0.49-2.221-1.146-2.229-1.149C39.659,20.111,39.6,20.114,39.567,20.14z"/>
		</g>
		<path fill="#78C347" d="M32.788,21.782l8.492-4.398c0,0,1.539,0.322,0.957,1.429l-7.95,4.216
			C34.287,23.029,32.152,23.215,32.788,21.782z"/>
		<path fill="#53A120" d="M34.287,23.029l7.95-4.216c0.175-0.332,0.155-0.593,0.048-0.796c-1.639,0.943-8.229,4.941-9.551,4.521
			C33.031,23.135,34.287,23.029,34.287,23.029z"/>
	</g>
	<g>
		<path fill="#7FC31C" d="M41.602,12.218c-1.122-0.178-0.263-2.384-0.263-2.384c-0.154-2.849-2.448-0.787-2.448-0.787
			c-0.183,0.378-0.728,0.692-1.249,0.92c0.034,0.35-0.188,0.683-0.538,0.779c-0.317,0.086-0.639-0.052-0.807-0.314
			c-1.443,0.533-1.163,3.099-1.163,3.099c0.426,1.011-1.065,1.776-1.065,1.776c-0.13,0.043-0.238,0.091-0.354,0.135
			c0.017,0.03,0.034,0.055,0.046,0.088c0.077,0.285-0.092,0.58-0.375,0.657c-0.238,0.065-0.473-0.046-0.592-0.246
			c-1.568,1.2-0.076,2.833-0.076,2.833c-1.556,3.037,1.498,0.739,3.227,0.701c1.728-0.038,3.226-2.164,2.867-2.576
			c-0.362-0.414,0.441-1.708,2.258-2.36C42.887,13.885,42.724,12.396,41.602,12.218z"/>
		<path fill="#7FC31C" d="M41.602,12.218c-1.122-0.178-0.263-2.384-0.263-2.384c-0.154-2.849-2.448-0.787-2.448-0.787
			c-0.183,0.378-0.728,0.692-1.249,0.92c0.034,0.35-0.188,0.683-0.538,0.779c-0.317,0.086-0.639-0.052-0.807-0.314
			c-1.443,0.533-1.163,3.099-1.163,3.099c0.426,1.011-1.065,1.776-1.065,1.776c-0.13,0.043-0.238,0.091-0.354,0.135
			c0.017,0.03,0.034,0.055,0.046,0.088c0.077,0.285-0.092,0.58-0.375,0.657c-0.238,0.065-0.473-0.046-0.592-0.246
			c-1.568,1.2-0.076,2.833-0.076,2.833c-1.556,3.037,1.498,0.739,3.227,0.701c1.728-0.038,3.226-2.164,2.867-2.576
			c-0.362-0.414,0.441-1.708,2.258-2.36C42.887,13.885,42.724,12.396,41.602,12.218z"/>
		<path fill="#7FC31C" d="M41.602,12.218c-1.122-0.178-0.263-2.384-0.263-2.384c-0.154-2.849-2.448-0.787-2.448-0.787
			c-0.183,0.378-0.728,0.692-1.249,0.92c0.034,0.35-0.188,0.683-0.538,0.779c-0.317,0.086-0.639-0.052-0.807-0.314
			c-1.443,0.533-1.163,3.099-1.163,3.099c0.426,1.011-1.065,1.776-1.065,1.776c-0.13,0.043-0.238,0.091-0.354,0.135
			c0.017,0.03,0.034,0.055,0.046,0.088c0.077,0.285-0.092,0.58-0.375,0.657c-0.238,0.065-0.473-0.046-0.592-0.246
			c-1.568,1.2-0.076,2.833-0.076,2.833c-1.556,3.037,1.498,0.739,3.227,0.701c1.728-0.038,3.226-2.164,2.867-2.576
			c-0.362-0.414,0.441-1.708,2.258-2.36C42.887,13.885,42.724,12.396,41.602,12.218z"/>
		<path fill="#66B821" d="M41.068,14.539c1.818-0.654,1.655-2.142,0.533-2.321c-1.122-0.178-0.263-2.384-0.263-2.384
			c-0.071-1.331-0.613-1.587-1.168-1.484c0.41,0.266,0.51,0.623,0.343,0.917c-0.376,0.656-2.633,3.07,0.101,3.438
			c2.731,0.367-0.579,1.957-1.671,2.531c-1.09,0.572-1.068,1.675-1.505,2.624c-0.366,0.795-2.88,1.88-3.69,2.214
			c0.711-0.25,1.547-0.582,2.195-0.598c1.728-0.038,3.226-2.164,2.867-2.576C38.448,16.484,39.252,15.19,41.068,14.539z"/>
		<g>
			<path fill="#64A81C" d="M36.957,19.219c-1.134,0.042-2.466-0.133-2.48-0.135c-0.041-0.005-0.092,0.017-0.11,0.05
				c-0.017,0.033,0,0.065,0.042,0.071c0.013,0.003,1.164,0.153,2.22,0.146C36.739,19.313,36.85,19.269,36.957,19.219z"/>
			<path fill="#64A81C" d="M37.994,18.493c0.044-0.041,0.084-0.084,0.125-0.127c-1.211,0.067-2.932-0.088-2.946-0.09
				c-0.042-0.005-0.09,0.017-0.109,0.05c-0.019,0.035-0.002,0.066,0.04,0.071C35.119,18.398,36.784,18.557,37.994,18.493z"/>
			<path fill="#64A81C" d="M36.1,16.105c-0.023,0.034,0.002,0.066,0.051,0.069c0.014,0.001,1.514-0.211,3.035-0.436
				c0.036-0.042,0.073-0.084,0.114-0.125c-1.548,0.229-3.057,0.438-3.071,0.437C36.18,16.047,36.122,16.072,36.1,16.105z"/>
			<path fill="#64A81C" d="M36.4,17.098c-0.017,0.035,0.002,0.066,0.043,0.07c0.009,0.002,1.313,0.14,2.351,0.201
				c0.017-0.044,0.031-0.086,0.04-0.125c-1.037-0.062-2.313-0.195-2.321-0.196C36.472,17.042,36.424,17.064,36.4,17.098z"/>
			<path fill="#64A81C" d="M41.792,14.166c0.087-0.062,0.165-0.127,0.231-0.193c-2.093,0.514-4.845,0.916-4.869,0.916
				c-0.059,0-0.123,0.033-0.142,0.074c-0.019,0.042,0.014,0.075,0.075,0.073C37.112,15.035,39.729,14.646,41.792,14.166z"/>
		</g>
		<g>
			<path fill="#64A81C" d="M35.111,13.11c0.342,1.433,1.02,2.654,1.03,2.675c0.028,0.044,0.071,0.06,0.101,0.036
				c0.03-0.026,0.032-0.082,0.008-0.125c-0.013-0.023-0.86-1.553-1.116-3.165C35.115,12.747,35.108,12.946,35.111,13.11z"/>
			<path fill="#64A81C" d="M33.897,15.368c0.299,0.822,0.666,1.422,0.674,1.435c0.024,0.037,0.067,0.048,0.097,0.025
				c0.03-0.022,0.035-0.07,0.013-0.107c-0.008-0.013-0.367-0.598-0.659-1.398C33.979,15.338,33.938,15.353,33.897,15.368z"/>
			<path fill="#64A81C" d="M36.297,10.432c-0.06,0.021-0.113,0.052-0.166,0.081c-0.021,2.041,0.9,4.218,0.914,4.248
				c0.023,0.055,0.074,0.08,0.113,0.059c0.036-0.023,0.048-0.087,0.025-0.141C37.17,14.646,36.234,12.436,36.297,10.432
				L36.297,10.432z"/>
			<path fill="#64A81C" d="M33.205,18.991c0.031-0.022,0.035-0.072,0.013-0.108c-0.011-0.017-0.689-1.123-0.935-2.376
				c-0.036,0.061-0.07,0.121-0.096,0.182c0.276,1.224,0.91,2.26,0.921,2.277C33.132,19.001,33.175,19.013,33.205,18.991z"/>
			<path fill="#64A81C" d="M33.832,18.237c0.029-0.024,0.035-0.071,0.013-0.109c-0.01-0.014-0.558-0.906-0.847-1.994
				c-0.067-0.036-0.125-0.087-0.17-0.149c0.28,1.2,0.897,2.208,0.906,2.226C33.76,18.247,33.802,18.258,33.832,18.237z"/>
		</g>
		<path fill="#64A81C" d="M38.891,9.047c-0.028,0.057-0.065,0.111-0.11,0.166c-0.438,1.537-1.234,4.458-1.293,5.639
			c-0.001,0.036,0.026,0.067,0.063,0.069c0.038,0.001,0.068-0.026,0.07-0.064c0.059-1.229,0.965-4.479,1.373-5.897
			C38.928,9.013,38.891,9.047,38.891,9.047z"/>
		<path fill="#91CE44" d="M31.004,21.212l5.512-6.566c0,0,1.374-0.234,1.267,0.904l-5.125,6.229
			C32.657,21.778,30.963,22.644,31.004,21.212z"/>
		<path fill="#53A120" d="M32.657,21.778l5.125-6.229c0.032-0.343-0.07-0.558-0.229-0.696c-1.032,1.347-4.221,5.41-6.34,7.019
			C31.66,22.287,32.657,21.778,32.657,21.778z"/>
	</g>
	<g>
		<path fill="#7FC31C" d="M47.095,26.311c-0.729,0.872,1.367,1.974,1.367,1.974c1.75,2.253-1.331,2.199-1.331,2.199
			c-0.387-0.166-1.004-0.046-1.547,0.125c-0.206-0.287-0.591-0.395-0.918-0.235c-0.296,0.144-0.45,0.459-0.404,0.767
			c-1.438,0.542-2.912-1.578-2.912-1.578c-0.34-1.041-1.966-0.643-1.966-0.643c-0.128,0.054-0.24,0.089-0.355,0.129
			c-0.01-0.032-0.011-0.064-0.026-0.097c-0.127-0.266-0.449-0.376-0.713-0.247c-0.222,0.105-0.328,0.343-0.285,0.573
			c-1.972,0.122-1.914-2.091-1.914-2.091c-3.164-1.272,0.646-1.539,1.977-2.645c1.328-1.104,3.853-0.48,3.853,0.068
			c0,0.547,1.452,0.998,3.254,0.298C46.974,24.209,47.825,25.442,47.095,26.311z"/>
		<path fill="#7FC31C" d="M47.095,26.311c-0.729,0.872,1.367,1.974,1.367,1.974c1.75,2.253-1.331,2.199-1.331,2.199
			c-0.387-0.166-1.004-0.046-1.547,0.125c-0.206-0.287-0.591-0.395-0.918-0.235c-0.296,0.144-0.45,0.459-0.404,0.767
			c-1.438,0.542-2.912-1.578-2.912-1.578c-0.34-1.041-1.966-0.643-1.966-0.643c-0.128,0.054-0.24,0.089-0.355,0.129
			c-0.01-0.032-0.011-0.064-0.026-0.097c-0.127-0.266-0.449-0.376-0.713-0.247c-0.222,0.105-0.328,0.343-0.285,0.573
			c-1.972,0.122-1.914-2.091-1.914-2.091c-3.164-1.272,0.646-1.539,1.977-2.645c1.328-1.104,3.853-0.48,3.853,0.068
			c0,0.547,1.452,0.998,3.254,0.298C46.974,24.209,47.825,25.442,47.095,26.311z"/>
		<path fill="#7FC31C" d="M47.095,26.311c-0.729,0.872,1.367,1.974,1.367,1.974c1.75,2.253-1.331,2.199-1.331,2.199
			c-0.387-0.166-1.004-0.046-1.547,0.125c-0.206-0.287-0.591-0.395-0.918-0.235c-0.296,0.144-0.45,0.459-0.404,0.767
			c-1.438,0.542-2.912-1.578-2.912-1.578c-0.34-1.041-1.966-0.643-1.966-0.643c-0.128,0.054-0.24,0.089-0.355,0.129
			c-0.01-0.032-0.011-0.064-0.026-0.097c-0.127-0.266-0.449-0.376-0.713-0.247c-0.222,0.105-0.328,0.343-0.285,0.573
			c-1.972,0.122-1.914-2.091-1.914-2.091c-3.164-1.272,0.646-1.539,1.977-2.645c1.328-1.104,3.853-0.48,3.853,0.068
			c0,0.547,1.452,0.998,3.254,0.298C46.974,24.209,47.825,25.442,47.095,26.311z"/>
		<path fill="#66B821" d="M45.173,24.908c1.801-0.699,2.652,0.534,1.922,1.402c-0.729,0.872,1.367,1.974,1.367,1.974
			c0.818,1.053,0.576,1.598,0.092,1.884c0.134-0.468-0.026-0.803-0.344-0.914c-0.715-0.249-4-0.592-2.177-2.66
			c1.82-2.069-1.722-1.101-2.92-0.818c-1.2,0.284-1.908-0.563-2.859-0.993c-0.797-0.361-3.408,0.469-4.236,0.749
			c0.699-0.276,1.549-0.573,2.049-0.989c1.328-1.104,3.853-0.48,3.853,0.068C41.919,25.157,43.371,25.608,45.173,24.908z"/>
		<g>
			<path fill="#64A81C" d="M38.999,24.071c-0.882,0.711-1.773,1.716-1.782,1.728c-0.029,0.031-0.082,0.048-0.118,0.034
				c-0.035-0.014-0.041-0.047-0.015-0.08c0.008-0.011,0.78-0.879,1.58-1.566C38.772,24.141,38.885,24.103,38.999,24.071z"/>
			<path fill="#64A81C" d="M40.259,23.939c0.06,0.003,0.119,0.008,0.177,0.013c-0.958,0.743-2.154,1.99-2.166,2
				c-0.026,0.032-0.078,0.048-0.115,0.034c-0.035-0.014-0.043-0.047-0.016-0.08C38.148,25.896,39.303,24.686,40.259,23.939z"/>
			<path fill="#64A81C" d="M40.394,26.985c-0.04-0.013-0.042-0.051-0.008-0.087c0.009-0.009,1.279-0.831,2.576-1.66
				c0.057,0.007,0.11,0.013,0.17,0.017c-1.321,0.843-2.597,1.674-2.605,1.685C40.49,26.976,40.433,26.996,40.394,26.985z"/>
			<path fill="#64A81C" d="M39.971,26.036c-0.035-0.014-0.043-0.05-0.016-0.079c0.006-0.008,0.899-0.967,1.646-1.694
				c0.04,0.022,0.077,0.045,0.112,0.069c-0.742,0.728-1.619,1.664-1.626,1.669C40.059,26.032,40.005,26.048,39.971,26.036z"/>
			<path fill="#64A81C" d="M45.964,24.717c0.104-0.009,0.207-0.013,0.302-0.009c-1.919,0.987-4.258,2.487-4.278,2.505
				c-0.046,0.038-0.114,0.054-0.155,0.034c-0.04-0.017-0.038-0.063,0.007-0.104C41.858,27.127,44.09,25.707,45.964,24.717z"/>
		</g>
		<g>
			<path fill="#64A81C" d="M41.61,29.894c-0.68-1.306-0.97-2.673-0.976-2.695c-0.008-0.052,0.016-0.092,0.053-0.092
				c0.038-0.001,0.079,0.039,0.088,0.091c0.005,0.023,0.368,1.736,1.232,3.121C41.853,30.167,41.716,30.019,41.61,29.894z"/>
			<path fill="#64A81C" d="M39.214,28.983c-0.313-0.815-0.429-1.51-0.434-1.524c-0.003-0.044,0.021-0.08,0.057-0.084
				c0.038-0.003,0.075,0.03,0.081,0.074c0.002,0.015,0.114,0.692,0.42,1.486C39.295,28.953,39.254,28.969,39.214,28.983z"/>
			<path fill="#64A81C" d="M44.262,31.14c-0.058,0.021-0.118,0.034-0.178,0.047c-1.355-1.526-2.086-3.773-2.097-3.806
				c-0.017-0.058,0.005-0.108,0.05-0.117c0.041-0.009,0.094,0.032,0.111,0.089c0.01,0.031,0.752,2.313,2.111,3.787
				C44.262,31.14,44.262,31.14,44.262,31.14z"/>
			<path fill="#64A81C" d="M36.315,26.702c0.039-0.002,0.072,0.031,0.081,0.075c0.002,0.02,0.216,1.298,0.852,2.407
				c-0.066-0.023-0.13-0.047-0.19-0.075c-0.593-1.103-0.794-2.304-0.798-2.323C36.253,26.743,36.279,26.707,36.315,26.702z"/>
			<path fill="#64A81C" d="M37.283,26.86c0.038-0.001,0.074,0.032,0.081,0.075c0.003,0.018,0.174,1.05,0.668,2.062
				c-0.024,0.07-0.036,0.147-0.03,0.223c-0.574-1.09-0.77-2.256-0.773-2.273C37.221,26.902,37.247,26.864,37.283,26.86z"/>
		</g>
		<path fill="#64A81C" d="M47.131,30.483c-0.061-0.024-0.125-0.042-0.193-0.054c-1.34-0.871-3.857-2.555-4.673-3.408
			c-0.026-0.026-0.026-0.069,0-0.095c0.028-0.024,0.069-0.024,0.096,0.002c0.851,0.89,3.665,2.75,4.904,3.553
			C47.182,30.484,47.131,30.483,47.131,30.483z"/>
		<path fill="#66B821" d="M33.196,26.47l8.468,1.345c0,0,1.191-0.726,0.365-1.513l-7.955-1.344
			C34.074,24.958,32.227,25.416,33.196,26.47z"/>
		<path fill="#91CE44" d="M34.074,24.958l7.955,1.344c0.249,0.235,0.312,0.466,0.283,0.674c-1.662-0.34-6.734-1.316-9.388-1.143
			C32.987,25.229,34.074,24.958,34.074,24.958z"/>
	</g>
	<path fill="#4A8F1C" d="M15.864,19.193C6.872,23.998,0.666,31.061,1.427,35.623c1.002,6.02,11.386,5.831,21.412,4.854
		c6.979-0.682,10.344-3.732,11.936-6.172c1.899-2.909,2.382-6.631,1.291-9.953l0,0c-0.844-2.572-3.159-4.781-6.353-6.062
		C25.3,16.519,20.252,16.848,15.864,19.193z M1.709,35.577C0.967,31.13,7.111,24.194,16,19.446c4.313-2.305,9.273-2.63,13.607-0.891
		c3.115,1.25,5.37,3.396,6.187,5.885l0,0c1.064,3.241,0.593,6.871-1.259,9.709c-1.557,2.388-4.854,5.372-11.723,6.043
		C12.918,41.156,2.672,41.361,1.709,35.577z"/>
	<path fill="#F2FAE4" d="M35.93,24.396c1.904,5.803-0.697,14.727-13.105,15.938c-9.573,0.934-20.253,1.291-21.257-4.732
		C0.784,30.903,7.439,23.857,15.931,19.32C24.416,14.786,34.025,18.593,35.93,24.396z"/>
	<path fill="#DAE9C7" d="M36.257,25.647c-0.542,1.29-1.371,2.743-2.333,2.662c-1.72-0.144-2.045,4.758-6.444,4.438
		c-7.873-0.573-1.146,4.867-18.897,4.581c-2.953-0.047-5.268-1.295-7.039-1.933c0.007,0.07,0.012,0.138,0.023,0.205
		c1.004,6.023,11.684,5.666,21.257,4.732C34.371,39.208,37.422,31.402,36.257,25.647z"/>
	<path fill="#C2DFBB" d="M6.291,39.336c0,0,10.595,2.13,16.179-0.251c0,0,0.285-1.126-2.577-0.501c0,0-10.739,0.877-13.602,0.376
		C6.291,38.96,5.291,39.085,6.291,39.336z"/>
	<path fill="#E6F5D2" d="M35.93,24.396c-1.904-5.802-11.514-9.609-19.999-5.076c-0.081,0.042-0.16,0.088-0.242,0.131
		c0.302,0.616,0.923,0.995,1.598,0.967l1.033-0.043c2.828-0.128,3.846,0.018,4.204,0.116c0.383,3.626,2.328,3.955,4.832,3.953h0.123
		c0,0,0.066,0.008,0.112,0.012c0.049,0.101,0.073,0.262,0.073,0.423c0,0.148-0.019,0.291-0.047,0.369
		c-0.003,0.004-0.032,0.063-0.032,0.063c-0.277,0.556-0.755,1.518-0.755,2.538c0,0.49,0.109,0.996,0.407,1.476
		c0.387,0.621,1.201,1.36,2.904,1.36c0.574,0,0.932,0.14,1.107,0.241c-0.118,0.214-0.463,0.687-1.481,1.374
		c-1.518,1.026-2.175,1.973-2.175,3.221c0,0.212,0.021,0.434,0.059,0.666c-0.135,0.185-0.82,0.859-4.369,2.439
		c-0.618,0.273-1.005,0.886-1.005,1.56c0,0.065,0.004,0.133,0.011,0.198c0.18-0.016,0.358-0.032,0.535-0.051
		C35.232,39.122,37.834,30.198,35.93,24.396z M29.378,36.255c0-0.103-0.012-0.207-0.028-0.313c-0.023-0.145-0.048-0.285-0.048-0.432
		c0-0.463,0.235-0.98,1.429-1.786c1.889-1.276,2.3-2.281,2.3-2.913c0-0.154-0.024-0.284-0.058-0.393
		c-0.261-0.855-1.425-1.453-2.83-1.453c-0.732,0-1.219-0.184-1.443-0.546c-0.105-0.171-0.148-0.371-0.148-0.581
		c0-0.612,0.354-1.326,0.572-1.761c-0.001,0.001,0.04-0.081,0.04-0.081c0.265-0.537,0.367-1.693-0.123-2.483
		c-0.324-0.521-0.849-0.789-1.561-0.789h-0.123c-2.106,0.002-2.978,0.002-3.169-2.719c-0.073-1.015-1.088-1.412-3.962-1.399
		c3.142-0.753,6.406-0.527,9.33,0.704c2.803,1.178,4.83,3.131,5.56,5.354c0.351,1.069,0.522,2.185,0.522,3.296
		c0,2.021-0.568,4.031-1.667,5.738c-1.419,2.203-3.67,3.816-6.586,4.799C28.918,37.587,29.378,36.938,29.378,36.255z"/>
	<path fill="#E6F5D2" d="M23.628,17.326c-0.409,0.006-0.756,0.298-0.833,0.7c-0.074,0.4,0.143,0.801,0.522,0.955
		c0.724,0.295,0.847,0.684,0.871,1.025c0.173,2.455,0.795,2.721,3.169,2.719h0.123c0.489,0,1.155,0.137,1.561,0.789
		c0.284,0.457,0.344,0.982,0.344,1.345c0,0.511-0.118,0.93-0.219,1.135l-0.043,0.088c-0.399,0.801-0.579,1.342-0.579,1.751
		l0.155,0.587c0.227,0.363,0.712,0.547,1.444,0.547c1.405,0,2.569,0.598,2.83,1.453l0.062,0.412c0,0.875-0.796,1.875-2.304,2.894
		c-0.897,0.606-1.419,1.104-1.419,1.849l0.038,0.371l0.039,0.411c0,0.229-0.047,0.416-0.149,0.604
		c-0.186,0.338-0.123,0.755,0.149,1.024c0.273,0.27,0.691,0.326,1.025,0.137c1.865-1.052,3.338-2.435,4.377-4.108
		c1.114-1.795,1.703-3.889,1.703-6.053c0-1.222-0.189-2.422-0.563-3.563c-0.773-2.358-2.859-4.451-5.722-5.739
		C28.171,17.74,25.958,17.293,23.628,17.326z M25.9,19.885c-0.015-0.219-0.063-0.459-0.144-0.705
		c1.308,0.173,2.563,0.511,3.747,1.043c2.422,1.09,4.17,2.806,4.795,4.708c0.315,0.969,0.479,1.987,0.479,3.028
		c0,0.641-0.083,1.268-0.2,1.885c-0.497-1.474-2.12-2.459-4.124-2.559c0.053-0.122,0.119-0.267,0.207-0.442
		c0.002-0.003,0.045-0.09,0.045-0.09c0.251-0.51,0.396-1.2,0.396-1.896c0-0.84-0.208-1.617-0.603-2.252
		c-0.631-1.015-1.731-1.599-3.02-1.599h-0.123c-0.558,0-1.122-0.001-1.311-0.062C25.965,20.754,25.917,20.108,25.9,19.885z"/>
	<path fill="#CCEBAE" d="M17.225,18.702c2.623-0.084,6.834-0.533,6.963,1.304c0.196,2.775,1.139,2.719,3.292,2.719
		s2.077,2.475,1.686,3.268c-0.393,0.793-1.566,2.973,0.978,2.973c2.545,0,4.698,1.982,0.588,4.759
		c-3.957,2.671,2.648,2.287-6.748,6.47c11.41-1.639,13.791-10.181,11.947-15.799C34.122,18.886,25.367,15.18,17.225,18.702z"/>
	<path fill="#B3E0A1" d="M35.93,24.396c-1.038-3.167-4.375-5.734-8.569-6.679c3.698,1.43,3.874,3.023,3.698,3.721
		c-0.285,1.146-0.817,3.42,1.718,3.149c2.849-0.305,2.864,4.295,1.836,9.7c0,0-0.408-0.311,0,0
		C36.696,31.139,36.901,27.36,35.93,24.396z"/>
	<path fill="#B3E0A1" d="M30.344,19.146c0,0-6.299-1.001-2.434,0.43c0,0,2.434,0.715,3.865,2.434
		C31.775,22.011,31.49,19.434,30.344,19.146z"/>
	<path fill="#B3E0A1" d="M35.743,25.972c0,0-1.577,6.181-1.361,2.064c0,0,0.309-2.52-0.7-4.514
		C33.682,23.522,35.934,24.806,35.743,25.972z"/>
	<g>
		<path fill="#B3E0A1" d="M34.453,34.166C34.425,34.146,34.431,34.148,34.453,34.166L34.453,34.166z"/>
		<path fill="#B3E0A1" d="M34.453,34.166c0.023,0.019,0.068,0.054,0.159,0.121C34.612,34.287,34.501,34.202,34.453,34.166z"/>
	</g>
	<path fill="#FFFFFF" d="M18.527,21.043c0,0-9.371,4.427-15.138,12.438c0,0-1.093,0.987,0.055-0.939c0,0,5.667-9.316,14.713-12.307
		C18.158,20.235,22.167,19.27,18.527,21.043z"/>
	<path fill="#B3E0A1" d="M14.084,20.364c5.646,2.081,9.387,6.875,9.387,12.164c0,0.081,0.064,0.146,0.143,0.146
		c0.079,0,0.144-0.065,0.144-0.146c0-5.342-3.715-10.192-9.348-12.357C14.3,20.234,14.192,20.3,14.084,20.364z"/>
	<path fill="#B3E0A1" d="M13.302,20.842c-0.104,0.064-0.208,0.129-0.312,0.195c5.696,2.016,9.479,6.725,9.479,11.925
		c0,0.079,0.063,0.144,0.144,0.144c0.079,0,0.141-0.064,0.141-0.144C22.754,27.704,18.994,22.94,13.302,20.842z"/>
	<path fill="#B3E0A1" d="M19.212,17.98c-0.153,0.045-0.305,0.095-0.455,0.143c5.534,2.475,9.115,7.239,9.115,12.462
		c0,0.087,0.073,0.157,0.161,0.157c0.091,0,0.164-0.07,0.164-0.157C28.197,25.34,24.679,20.546,19.212,17.98z"/>
	<path fill="#B3E0A1" d="M5.343,27.322c-0.053,0.058-0.104,0.115-0.156,0.173c3.134,1.894,5.096,4.964,5.096,8.289
		c0,0.063,0.05,0.113,0.114,0.113c0.061,0,0.112-0.051,0.112-0.113C10.51,32.392,8.522,29.26,5.343,27.322z"/>
	<path fill="#B3E0A1" d="M4.797,27.941c-0.05,0.058-0.097,0.118-0.146,0.177c2.949,1.906,4.773,4.883,4.773,8.096
		c0,0.061,0.051,0.113,0.115,0.113c0.062,0,0.111-0.053,0.111-0.113C9.65,32.931,7.796,29.889,4.797,27.941z"/>
	<path fill="#B3E0A1" d="M4.137,28.759c-0.043,0.053-0.085,0.107-0.125,0.16c2.322,1.517,3.844,3.816,4.06,6.396
		c0.003,0.057,0.053,0.1,0.107,0.094c0.057-0.005,0.098-0.056,0.094-0.11C8.054,32.659,6.503,30.308,4.137,28.759z"/>
	<path fill="#DAE9C7" d="M24.273,40.146c0.234-0.035,0.468-0.072,0.694-0.114c0.136-0.025,0.265-0.056,0.398-0.083
		c0.201-0.041,0.402-0.082,0.595-0.128c0.138-0.032,0.27-0.068,0.403-0.103c0.183-0.047,0.363-0.093,0.541-0.145
		c0.133-0.039,0.262-0.08,0.391-0.121c0.169-0.053,0.338-0.104,0.501-0.162c0.128-0.044,0.253-0.09,0.378-0.136
		c0.157-0.059,0.313-0.118,0.465-0.181c0.121-0.049,0.242-0.099,0.359-0.149c0.148-0.064,0.295-0.131,0.437-0.197
		c0.115-0.055,0.229-0.108,0.34-0.165c0.139-0.069,0.275-0.141,0.409-0.214c0.106-0.058,0.214-0.116,0.319-0.176
		c0.13-0.074,0.257-0.151,0.383-0.229c0.101-0.063,0.201-0.123,0.298-0.188c0.123-0.08,0.242-0.162,0.359-0.246
		c0.093-0.064,0.187-0.129,0.275-0.195c0.116-0.087,0.229-0.177,0.341-0.267c0.081-0.066,0.167-0.132,0.248-0.199
		c0.112-0.095,0.22-0.192,0.327-0.288c0.071-0.066,0.15-0.132,0.22-0.199c0.115-0.108,0.224-0.221,0.332-0.333
		c0.057-0.059,0.117-0.115,0.171-0.174c0.158-0.169,0.307-0.34,0.451-0.515c0.066-0.079,0.125-0.16,0.19-0.241
		c0.075-0.098,0.153-0.196,0.228-0.297c0.066-0.093,0.129-0.187,0.192-0.28c0.062-0.09,0.126-0.18,0.185-0.272
		c0.063-0.099,0.123-0.201,0.183-0.301c0.052-0.087,0.104-0.175,0.154-0.263c0.059-0.105,0.114-0.212,0.17-0.318
		c0.044-0.085,0.088-0.169,0.13-0.255c0.053-0.11,0.104-0.223,0.154-0.333c0.036-0.083,0.073-0.165,0.107-0.248
		c0.047-0.116,0.094-0.232,0.138-0.348c0.031-0.079,0.06-0.158,0.087-0.238c0.045-0.119,0.085-0.242,0.122-0.363
		c0.024-0.075,0.047-0.148,0.069-0.224c0.036-0.126,0.072-0.254,0.104-0.382c0.019-0.069,0.035-0.138,0.05-0.206
		c0.032-0.135,0.063-0.268,0.089-0.4c0.012-0.062,0.022-0.121,0.033-0.182c0.026-0.142,0.051-0.284,0.073-0.427
		c0.005-0.047,0.012-0.092,0.017-0.138c0.021-0.156,0.04-0.313,0.056-0.471c0.001-0.02,0.002-0.038,0.004-0.059
		c0.1-1.148,0.029-2.282-0.187-3.347c-0.189,0.451-0.415,0.922-0.669,1.341c0.03,0.323,0.049,0.647,0.049,0.972
		c0,2.021-0.568,4.031-1.667,5.738c-1.419,2.203-3.67,3.816-6.586,4.799c1.534-0.91,1.994-1.56,1.994-2.242
		c0-0.103-0.012-0.207-0.028-0.313c-0.023-0.145-0.048-0.285-0.048-0.432c0-0.463,0.235-0.98,1.429-1.786
		c1.889-1.276,2.3-2.281,2.3-2.913c0-0.154-0.024-0.284-0.058-0.393c-0.088-0.288-0.286-0.544-0.554-0.761
		c-0.745,1.207-1.616,2.827-3.328,3.148c-1.032,0.843-1.497,1.674-1.497,2.714c0,0.212,0.021,0.434,0.059,0.666
		c-0.135,0.185-0.82,0.859-4.369,2.439c-0.618,0.273-1.005,0.886-1.005,1.56c0,0.065,0.004,0.133,0.011,0.198
		c0.18-0.016,0.358-0.032,0.535-0.051c0.376-0.035,0.741-0.081,1.099-0.131C24.042,40.186,24.156,40.163,24.273,40.146z"/>
	<path fill="#CEE4BD" d="M36.394,26.478c-0.003-0.017-0.006-0.032-0.008-0.047c-0.034-0.264-0.077-0.523-0.128-0.779
		c0-0.001-0.001-0.003-0.001-0.004c-0.189,0.451-0.415,0.922-0.669,1.341c0,0.004,0,0.009,0,0.013
		c0.026,0.285,0.041,0.575,0.044,0.861c0,0.033,0.005,0.064,0.005,0.098c0,0.432-0.031,0.861-0.084,1.289
		c-0.006,0.063-0.01,0.126-0.02,0.189c-0.018,0.135-0.045,0.27-0.068,0.404c-0.021,0.112-0.036,0.226-0.06,0.338
		c-0.021,0.101-0.049,0.2-0.073,0.301c-0.034,0.145-0.068,0.291-0.108,0.438c-0.022,0.07-0.046,0.141-0.068,0.213
		c-0.054,0.17-0.106,0.34-0.167,0.508c-0.019,0.052-0.041,0.101-0.059,0.15c-0.072,0.188-0.146,0.372-0.228,0.555
		c-0.015,0.035-0.034,0.068-0.05,0.103c-0.089,0.196-0.186,0.389-0.286,0.578c-0.016,0.028-0.032,0.054-0.047,0.081
		c-0.085,0.153-0.168,0.306-0.259,0.454c-0.027,0.042-0.057,0.081-0.084,0.124c-0.002,0.004-0.003,0.008-0.007,0.014
		c-0.005,0.006-0.01,0.013-0.015,0.019c-0.17,0.265-0.354,0.521-0.548,0.769c-0.006,0.005-0.009,0.012-0.014,0.016
		c-0.897,1.139-2.036,2.102-3.401,2.872c0.009-0.015,0.014-0.03,0.021-0.047c-0.805,0.455-1.677,0.85-2.63,1.171
		c1.534-0.91,1.994-1.56,1.994-2.242c0-0.103-0.012-0.207-0.028-0.313c-0.023-0.145-0.048-0.285-0.048-0.432
		c0-0.463,0.235-0.98,1.429-1.786c1.889-1.276,2.3-2.281,2.3-2.913c0-0.154-0.024-0.284-0.058-0.393
		c-0.088-0.288-0.286-0.544-0.554-0.761c-0.143,0.233-0.296,0.482-0.454,0.735c0.092,0.089,0.158,0.183,0.187,0.276
		c0.125,0.405-0.301,1.261-1.901,2.342c-1.699,1.148-1.928,1.995-1.747,3.073c0.067,0.402,0.181,1.076-4.87,3.324
		c-0.349,0.155-0.532,0.519-0.488,0.886c0,0,0.004,0,0.005-0.001c0.375-0.04,0.741-0.09,1.099-0.145
		c0.002-0.001,0.008-0.001,0.011-0.001c0.358-0.056,0.705-0.119,1.043-0.188c0.003,0,0.004,0,0.007,0
		c4.441-0.905,7.357-2.932,9.096-5.376c0.009-0.013,0.017-0.025,0.025-0.038c0.12-0.17,0.234-0.343,0.342-0.516
		c0.018-0.027,0.033-0.054,0.05-0.081c0.097-0.158,0.188-0.316,0.276-0.478c0.023-0.046,0.049-0.091,0.073-0.138
		c0.077-0.146,0.151-0.293,0.22-0.439c0.027-0.056,0.052-0.111,0.078-0.168c0.063-0.137,0.121-0.273,0.176-0.413
		c0.026-0.063,0.053-0.127,0.078-0.191c0.048-0.128,0.094-0.257,0.139-0.385c0.025-0.077,0.051-0.151,0.076-0.229
		c0.039-0.121,0.075-0.244,0.11-0.367c0.022-0.082,0.047-0.166,0.067-0.249c0.029-0.11,0.053-0.22,0.08-0.33
		c0.021-0.094,0.042-0.188,0.063-0.284c0.018-0.096,0.034-0.192,0.052-0.288c0.02-0.109,0.038-0.218,0.054-0.328
		c0.012-0.074,0.02-0.148,0.028-0.223c0.017-0.128,0.032-0.256,0.046-0.383c0.001-0.027,0.002-0.054,0.004-0.081
		c0.023-0.269,0.036-0.536,0.041-0.803c0.001-0.021,0.001-0.044,0.001-0.065C36.493,27.555,36.461,27.009,36.394,26.478z"/>
	<path fill="#B5DAA4" d="M36.257,25.648c-0.542,1.29-1.371,2.742-2.333,2.661c-0.581-0.048-1.014,0.558-1.5,1.34
		c1.002,0.81,0.973,2.275-1.693,4.075c-3.957,2.671,2.648,2.287-6.748,6.47C34.575,38.674,37.381,31.206,36.257,25.648z"/>
	<path fill="#A3CC92" d="M34.377,28.224c-0.086,2.229,0.555,1.434,0.977,0.086c0.121,1.729-0.28,3.557-0.741,5.978
		c1.8-2.722,2.197-5.911,1.645-8.64C35.804,26.729,35.146,27.914,34.377,28.224z"/>
	<path fill="#B5DAA4" d="M13.669,23.241c-0.075-0.03-0.159,0.005-0.187,0.078c-0.031,0.074,0.004,0.159,0.079,0.188
		c2.965,1.193,5.313,3.526,6.61,6.567c1.387,3.259,1.419,7.069,0.1,10.489c0.104-0.009,0.21-0.018,0.315-0.025
		c1.295-3.457,1.246-7.29-0.153-10.575C19.108,26.849,16.704,24.462,13.669,23.241z"/>
	<path fill="#B5DAA4" d="M13.055,23.945c-0.068-0.032-0.15-0.003-0.183,0.066c-0.032,0.068-0.002,0.152,0.068,0.184
		c2.979,1.39,5.244,3.872,6.378,6.987c1.125,3.095,1,6.446-0.328,9.478c0.103-0.007,0.204-0.015,0.306-0.021
		c1.303-3.062,1.414-6.433,0.281-9.55C18.418,27.904,16.103,25.366,13.055,23.945z"/>
	<path fill="#B5DAA4" d="M9.12,29.419c-0.037,0.041-0.037,0.104,0,0.14c1.587,1.59,2.467,3.77,2.479,6.143
		c0.006,1.778-0.476,3.505-1.377,5.012c0.068,0.007,0.135,0.014,0.205,0.02c0.891-1.52,1.367-3.253,1.358-5.04
		c-0.011-2.424-0.908-4.654-2.532-6.279C9.215,29.377,9.154,29.38,9.12,29.419z"/>
	
		<ellipse transform="matrix(0.9892 -0.1468 0.1468 0.9892 -5.2889 0.8435)" fill="#C2DFBB" cx="3.07" cy="36.255" rx="0.788" ry="1.36"/>
</g>
</svg>
