<?xml version="1.0" encoding="utf-8"?>
<!-- Generator: Adobe Illustrator 15.0.0, SVG Export Plug-In . SVG Version: 6.00 Build 0)  -->
<!DOCTYPE svg PUBLIC "-//W3C//DTD SVG 1.1//EN" "http://www.w3.org/Graphics/SVG/1.1/DTD/svg11.dtd">
<svg version="1.1" id="Layer_1" xmlns="http://www.w3.org/2000/svg" xmlns:xlink="http://www.w3.org/1999/xlink" x="0px" y="0px"
	 width="50px" height="50px" viewBox="0 0 50 50" enable-background="new 0 0 50 50" xml:space="preserve">
<g>
	
		<linearGradient id="SVGID_1_" gradientUnits="userSpaceOnUse" x1="61.9902" y1="14.9287" x2="38.0131" y2="31.7698" gradientTransform="matrix(0.9997 -0.0236 0.0236 0.9997 -23.3192 -6.7711)">
		<stop  offset="0.0056" style="stop-color:#007900"/>
		<stop  offset="0.0232" style="stop-color:#017B00"/>
		<stop  offset="0.4741" style="stop-color:#24AF00"/>
		<stop  offset="0.8134" style="stop-color:#3AD000"/>
		<stop  offset="1" style="stop-color:#42DC00"/>
	</linearGradient>
	<path fill="url(#SVGID_1_)" d="M23.988,23.305c0,0,10.476-14.895,11.165-20.51l1.58,0.259c0,0-6.035,13.602-11.982,20.903
		L23.988,23.305z"/>
	
		<linearGradient id="SVGID_2_" gradientUnits="userSpaceOnUse" x1="65.6494" y1="15.9292" x2="39.1555" y2="34.538" gradientTransform="matrix(0.9997 -0.0236 0.0236 0.9997 -23.3192 -6.7711)">
		<stop  offset="0.0056" style="stop-color:#007900"/>
		<stop  offset="0.0232" style="stop-color:#017B00"/>
		<stop  offset="0.4741" style="stop-color:#24AF00"/>
		<stop  offset="0.8134" style="stop-color:#3AD000"/>
		<stop  offset="1" style="stop-color:#42DC00"/>
	</linearGradient>
	<path fill="url(#SVGID_2_)" d="M24.289,23.519c0,0,10.131-13.831,17.125-18.255l0.62,1.037c0,0-11.355,9.302-17.066,17.729
		L24.289,23.519z"/>
	
		<linearGradient id="SVGID_3_" gradientUnits="userSpaceOnUse" x1="67.2109" y1="18.3433" x2="41.3688" y2="36.4943" gradientTransform="matrix(0.9997 -0.0236 0.0236 0.9997 -23.3192 -6.7711)">
		<stop  offset="0.0056" style="stop-color:#007900"/>
		<stop  offset="0.0232" style="stop-color:#017B00"/>
		<stop  offset="0.4741" style="stop-color:#24AF00"/>
		<stop  offset="0.8134" style="stop-color:#3AD000"/>
		<stop  offset="1" style="stop-color:#42DC00"/>
	</linearGradient>
	<path fill="url(#SVGID_3_)" d="M25.728,24.607c0,0,12.743-11.21,19.013-14.636l-0.534-0.516c0,0-12.143,7.834-18.78,14.786
		L25.728,24.607z"/>
	
		<linearGradient id="SVGID_4_" gradientUnits="userSpaceOnUse" x1="69.7959" y1="17.7588" x2="41.6472" y2="37.5299" gradientTransform="matrix(0.9997 -0.0236 0.0236 0.9997 -23.3192 -6.7711)">
		<stop  offset="0.0056" style="stop-color:#00A900"/>
		<stop  offset="0.2788" style="stop-color:#54C500"/>
		<stop  offset="0.5387" style="stop-color:#9DDE00"/>
		<stop  offset="0.7525" style="stop-color:#D2F000"/>
		<stop  offset="0.9123" style="stop-color:#F3FB00"/>
		<stop  offset="1" style="stop-color:#FFFF00"/>
	</linearGradient>
	<path fill="url(#SVGID_4_)" d="M26.485,24.814c0,0,13.771-11.901,21.392-14.777L46.51,9.251c0,0-11.506,6.098-20.557,15.128
		L26.485,24.814z"/>
	
		<linearGradient id="SVGID_5_" gradientUnits="userSpaceOnUse" x1="63.4307" y1="13.0005" x2="36.3583" y2="32.0156" gradientTransform="matrix(0.9997 -0.0236 0.0236 0.9997 -23.3192 -6.7711)">
		<stop  offset="0.0056" style="stop-color:#00A900"/>
		<stop  offset="0.2788" style="stop-color:#54C500"/>
		<stop  offset="0.5387" style="stop-color:#9DDE00"/>
		<stop  offset="0.7525" style="stop-color:#D2F000"/>
		<stop  offset="0.9123" style="stop-color:#F3FB00"/>
		<stop  offset="1" style="stop-color:#FFFF00"/>
	</linearGradient>
	<path fill="url(#SVGID_5_)" d="M23.988,23.305c0,0,5.219-9.912,8.861-13.807c3.641-3.895,5.325-8.415,5.325-8.415l-0.902-0.502
		c0,0-2.423,5.136-5.406,8.496c-2.983,3.353-8.549,14.238-8.549,14.238L23.988,23.305z"/>
	
		<linearGradient id="SVGID_6_" gradientUnits="userSpaceOnUse" x1="67.7393" y1="16.0225" x2="39.725" y2="35.6991" gradientTransform="matrix(0.9997 -0.0236 0.0236 0.9997 -23.3192 -6.7711)">
		<stop  offset="0.0056" style="stop-color:#007900"/>
		<stop  offset="0.0232" style="stop-color:#017B00"/>
		<stop  offset="0.4741" style="stop-color:#24AF00"/>
		<stop  offset="0.8134" style="stop-color:#3AD000"/>
		<stop  offset="1" style="stop-color:#42DC00"/>
	</linearGradient>
	<path fill="url(#SVGID_6_)" d="M25.728,24.607c0,0,13.499-13.84,16.501-16.37c3.004-2.542,1.797-2.96-0.033-1.574
		c-1.841,1.392-17.147,17.438-17.147,17.438L25.728,24.607z"/>
	
		<linearGradient id="SVGID_7_" gradientUnits="userSpaceOnUse" x1="67.2656" y1="15.3193" x2="39.1771" y2="35.0482" gradientTransform="matrix(0.9997 -0.0236 0.0236 0.9997 -23.3192 -6.7711)">
		<stop  offset="0.0056" style="stop-color:#00A900"/>
		<stop  offset="0.2788" style="stop-color:#54C500"/>
		<stop  offset="0.5387" style="stop-color:#9DDE00"/>
		<stop  offset="0.7525" style="stop-color:#D2F000"/>
		<stop  offset="0.9123" style="stop-color:#F3FB00"/>
		<stop  offset="1" style="stop-color:#FFFF00"/>
	</linearGradient>
	<path fill="url(#SVGID_7_)" d="M25.203,24.396c0,0,16.044-16.739,18.605-18.743L42.598,4.86c0,0-11.989,11.266-17.935,18.806
		L25.203,24.396z"/>
	<path fill="#C25300" d="M13.042,37.834c0,0,1.012,1.846-1.701,3.853c-2.716,2.002-4.713,2.725-5.391,5.806
		c0,0,0.986-2.338,2.908-3.285c1.919-0.944,5.026-2.286,5.409-5.283C14.637,35.93,13.042,37.834,13.042,37.834z"/>
	<path fill="#FF5300" d="M26.479,24.058c4.292,4.051,4.765,10.521,1.049,14.445c-3.718,3.936-10.198,3.834-14.483-0.217
		c-4.293-4.047-4.759-10.516-1.049-14.446C15.7,19.915,22.194,20.007,26.479,24.058z"/>
	<path opacity="0.15" fill="#FFFFFF" d="M9.604,28.427c0,0-0.663,9.581,8.402,7.494c9.069-2.081,9.465-10.529,6.488-13
		c-2.965-2.472-6.699-2.234-8.694-1.444C13.798,22.276,10.98,23.387,9.604,28.427z"/>
	<path opacity="0.15" fill="#FFFFFF" d="M12.184,23.583c0,0-2.412,2.225-1.509,5.492c0.891,3.268,5.95,5.086,8.035,1.976
		c2.098-3.113,5.828-3.351,5.542-5.882c-0.281-2.529-4.076-4.908-7.044-4.093C14.234,21.891,12.916,22.815,12.184,23.583z"/>
	<path opacity="0.15" fill="#FFFFFF" d="M15.273,21.646c0,0-3.411,1.126-3.864,3.897c-0.461,2.777,4.19,6.55,6.662,3.583
		c2.475-2.978,4.717-2.507,3.532-5.244C20.424,21.149,18.608,20.369,15.273,21.646z"/>
	<path opacity="0.38" fill="#C25300" d="M9.866,32.976c0,0,3.077,6.955,9.982,4.844c6.893-2.102,8.39-8.338,7.5-11.229
		c-0.893-2.895,2.435,1.659,2.553,3.752c0.122,2.084,0.434,5.008-2.373,8.16c-2.811,3.163-7.075,3.045-9.028,2.636
		C16.548,40.735,11.425,38.917,9.866,32.976z"/>
	<path opacity="0.15" fill="#FFFFFF" d="M17.312,22.57c0.115,0.602,1.007,1.39-0.16,2.614c-1.168,1.223,1.406,2.585,2.693,0.231
		C21.134,23.072,16.889,20.186,17.312,22.57z"/>
</g>
</svg>
