<?xml version="1.0" encoding="utf-8"?>
<!-- Generator: Adobe Illustrator 15.0.0, SVG Export Plug-In . SVG Version: 6.00 Build 0)  -->
<!DOCTYPE svg PUBLIC "-//W3C//DTD SVG 1.1//EN" "http://www.w3.org/Graphics/SVG/1.1/DTD/svg11.dtd">
<svg version="1.1" id="Layer_1" xmlns="http://www.w3.org/2000/svg" xmlns:xlink="http://www.w3.org/1999/xlink" x="0px" y="0px"
	 width="50px" height="50px" viewBox="0 0 50 50" enable-background="new 0 0 50 50" xml:space="preserve">
<g>
	<g>
		<path fill="#B37500" d="M36.128,11.064c-1.946-1.348-4.321-2.391-6.865-2.145c-6.966,0.674-11.651,4.577-11.651,11.123
			c0,3.86,0.835,6.574,4.015,9.776c5.02,4.55,7.199,5.729,12.01,5.729c7.782,0,15.431-4.383,14.092-12.34
			C46.722,17.223,42.723,12.096,36.128,11.064z"/>
		<path fill="#D98D00" d="M36.161,11.172c-1.903-1.309-4.227-2.321-6.714-2.083c-6.813,0.654-11.395,4.444-11.395,10.8
			c0,3.747,0.818,6.38,3.928,9.49c4.908,4.419,7.039,5.564,11.744,5.564c7.612,0,15.091-4.256,13.782-11.982
			C46.521,17.15,42.609,12.172,36.161,11.172z"/>
		<path fill="#F29D00" d="M35.933,11.162c-1.835-1.272-4.076-2.259-6.477-2.026c-6.574,0.638-10.995,4.325-10.995,10.51
			c0,3.646,2.268,7.199,4.992,9.244c2.398,3.044,5.59,5.407,10.13,5.407c7.343,0,14.559-4.14,13.297-11.659
			C45.93,16.981,42.153,12.135,35.933,11.162z"/>
		<path fill="#FFA600" d="M35.832,11.373c-1.642-1.129-3.646-2.005-5.792-1.798c-5.878,0.564-9.83,3.836-9.83,9.323
			c0,3.236,2.442,5.723,4.878,7.536c2.146,2.701,4.583,5.459,8.643,5.459c6.565,0,13.02-3.673,11.891-10.342
			C44.772,16.534,41.396,12.236,35.832,11.373z"/>
		<path fill="#FFB300" d="M35.541,11.49c-1.478-1.016-3.282-1.804-5.213-1.618c-5.291,0.51-8.848,3.454-8.848,8.39
			c0,2.912,2.626,5.39,3.608,7.517c1.932,2.43,5.348,4.092,8.998,4.092c5.912,0,11.489-3.25,10.473-9.252
			C43.796,16.104,40.549,12.267,35.541,11.49z"/>
		<path fill="#E69600" d="M40.536,17.527c0,0.4-0.322,0.726-0.721,0.726c-0.399,0-0.325,0.191-0.325-0.209
			c0-0.4,0.324-0.726,0.722-0.726C40.61,17.317,40.536,17.125,40.536,17.527z"/>
		<path fill="#E69600" d="M28.918,22.436c0,0.401-0.323,0.726-0.722,0.726c-0.396,0-0.322,0.192-0.322-0.209
			c0-0.4,0.322-0.725,0.72-0.725C28.993,22.227,28.918,22.035,28.918,22.436z"/>
		<path fill="#E69600" d="M37.064,22.904c0,0.4-0.323,0.726-0.72,0.726c-0.398,0-0.323,0.191-0.323-0.21
			c0-0.4,0.32-0.726,0.72-0.726C37.139,22.693,37.064,22.503,37.064,22.904z"/>
		<path fill="#E69600" d="M24.009,17.746c0,0.401-0.322,0.725-0.721,0.725s-0.323,0.192-0.323-0.208
			c0-0.401,0.322-0.725,0.721-0.725S24.009,17.344,24.009,17.746z"/>
		<path fill="#E69600" d="M33.138,13.413c0,0.401-0.322,0.726-0.72,0.726c-0.4,0-0.324,0.192-0.324-0.208
			c0-0.401,0.322-0.726,0.721-0.726C33.212,13.204,33.138,13.012,33.138,13.413z"/>
		<path fill="#E69600" d="M32.847,27.998c0,0.402-0.322,0.727-0.723,0.727c-0.397,0-0.323,0.191-0.323-0.209
			c0-0.402,0.323-0.725,0.721-0.725C32.921,27.791,32.847,27.598,32.847,27.998z"/>
		<path fill="#CC8500" d="M29.018,32.123c0,0.35-0.283,0.635-0.631,0.635c-0.349,0-0.284,0.168-0.284-0.184
			c0-0.35,0.282-0.635,0.631-0.635S29.018,31.772,29.018,32.123z"/>
		<path fill="#FFA600" d="M40.143,12.854c0,0-3.984-0.339-4.727,1.022c0,0-1.113,0.618-0.247-0.866c0,0,0.495-1.114,1.606-1.484
			C36.775,11.525,39.16,11.871,40.143,12.854z"/>
		<path fill="#FFA600" d="M30.346,30.713c0,0-2.182-3.582-1.255-4.914c0,0,0.06-1.331-0.926,0.174c0,0-0.812,0.984-0.639,2.201
			C27.526,28.174,28.966,30.252,30.346,30.713z"/>
		<path fill="#E69600" d="M40.668,28.422c0,0.4-0.323,0.725-0.721,0.725c-0.398,0-0.324,0.191-0.324-0.209s0.323-0.727,0.721-0.727
			C40.743,28.211,40.668,28.021,40.668,28.422z"/>
		<path fill="#D98D00" d="M18.052,19.889c0,0,1.145-4.418,1.145-1.146s0.656,6.546,1.964,7.036c1.309,0.49,3.436,2.781,3.927,3.764
			c0.49,0.982,1.799,3.764,3.928,4.255c2.126,0.49,5.726-0.328,7.69-0.328c1.962,0,6.054-0.981,6.872-1.636
			C43.579,31.834,23.616,42.798,18.052,19.889z"/>
		<path fill="#FEBF4E" d="M29.146,10.562c0,0-4.413-0.126-5.061,3.31c0,0-0.519,1.147,0.908,0.637c0,0,0.78-0.127,1.039-0.637
			c0,0,1.558-2.418,3.245-2.418C29.277,11.453,30.316,10.688,29.146,10.562z"/>
		<path fill="#E69600" d="M44.136,22.109c0,0.399-0.322,0.726-0.721,0.726s-0.324,0.192-0.324-0.209
			c0-0.401,0.324-0.726,0.721-0.726C44.211,21.899,44.136,21.708,44.136,22.109z"/>
	</g>
	<g>
		<path fill="#B37500" d="M16.604,19.521c-1.908-0.772-4.122-1.207-6.232-0.515c-5.784,1.896-9.019,6.099-7.774,11.654
			c0.732,3.273,1.958,5.419,5.265,7.532c5.123,2.907,7.198,3.493,11.28,2.58c6.604-1.48,12.262-6.651,9.614-13.151
			C26.766,22.735,22.396,19.143,16.604,19.521z"/>
		<path fill="#D98D00" d="M16.653,19.605c-1.863-0.748-4.027-1.166-6.092-0.491c-5.658,1.851-8.825,5.937-7.617,11.331
			c0.711,3.178,1.907,5.261,5.136,7.308c5.005,2.814,7.03,3.383,11.023,2.488c6.458-1.447,11.998-6.478,9.417-12.786
			C26.581,22.711,22.315,19.229,16.653,19.605z"/>
		<path fill="#F29D00" d="M16.458,19.641c-1.799-0.731-3.89-1.141-5.881-0.488c-5.458,1.789-8.509,5.759-7.333,11.007
			c0.693,3.095,3.292,5.68,5.991,6.896c2.616,2.127,5.772,3.524,9.624,2.664c6.232-1.396,11.57-6.28,9.068-12.421
			C26.048,22.682,21.922,19.286,16.458,19.641z"/>
		<path fill="#FFA600" d="M16.414,19.84c-1.607-0.647-3.475-1.009-5.258-0.426c-4.881,1.596-7.613,5.124-6.57,9.779
			c0.614,2.745,3.161,4.393,5.572,5.469c2.334,1.884,4.926,3.761,8.371,2.989c5.572-1.247,10.351-5.591,8.125-11.034
			C24.98,22.521,21.299,19.515,16.414,19.84z"/>
		<path fill="#FFB300" d="M16.188,19.994c-1.447-0.582-3.128-0.907-4.731-0.381c-4.393,1.436-6.852,4.609-5.914,8.801
			c0.554,2.469,3.253,4.074,4.491,5.692c2.101,1.696,5.315,2.454,8.414,1.761c5.015-1.123,9.133-4.939,7.129-9.841
			C24.069,22.34,20.585,19.701,16.188,19.994z"/>
		<path fill="#E69600" d="M21.574,24.167c0.076,0.34-0.136,0.677-0.474,0.752c-0.337,0.077-0.238,0.225-0.313-0.116
			c-0.078-0.341,0.135-0.677,0.473-0.753C21.597,23.975,21.498,23.828,21.574,24.167z"/>
		<path fill="#E69600" d="M12.648,30.542c0.076,0.339-0.137,0.675-0.474,0.753c-0.337,0.074-0.238,0.223-0.314-0.117
			c-0.077-0.34,0.136-0.678,0.474-0.753S12.572,30.201,12.648,30.542z"/>
		<path fill="#E69600" d="M19.65,29.389c0.075,0.342-0.137,0.678-0.475,0.754c-0.337,0.076-0.237,0.224-0.314-0.117
			c-0.075-0.34,0.136-0.676,0.475-0.752C19.673,29.197,19.573,29.049,19.65,29.389z"/>
		<path fill="#E69600" d="M7.59,27.493c0.078,0.34-0.136,0.677-0.473,0.752c-0.338,0.075-0.238,0.226-0.314-0.115
			c-0.077-0.341,0.135-0.677,0.473-0.753C7.614,27.301,7.515,27.152,7.59,27.493z"/>
		<path fill="#E69600" d="M14.515,22.083c0.076,0.34-0.137,0.676-0.475,0.752c-0.339,0.077-0.239,0.224-0.315-0.115
			c-0.075-0.34,0.137-0.678,0.474-0.752C14.537,21.89,14.437,21.742,14.515,22.083z"/>
		<path fill="#E69600" d="M17.038,34.516c0.076,0.342-0.136,0.677-0.474,0.753s-0.238,0.225-0.314-0.116
			c-0.076-0.34,0.135-0.678,0.475-0.752C17.061,34.322,16.961,34.176,17.038,34.516z"/>
		<path fill="#CC8500" d="M14.572,38.742c0.068,0.298-0.119,0.592-0.414,0.658c-0.297,0.066-0.208,0.196-0.276-0.101
			c-0.067-0.299,0.12-0.594,0.415-0.659C14.592,38.574,14.506,38.443,14.572,38.742z"/>
		<path fill="#FFA600" d="M20.351,20.276c0,0-3.445,0.47-3.817,1.765c0,0-0.826,0.735-0.373-0.688c0,0,0.208-1.038,1.081-1.564
			C17.242,19.789,19.333,19.629,20.351,20.276z"/>
		<path fill="#FFA600" d="M15.433,37.295c0,0-2.533-2.627-1.999-3.932c0,0-0.203-1.143-0.754,0.322c0,0-0.501,0.99-0.123,1.989
			C12.558,35.675,14.174,37.165,15.433,37.295z"/>
		<path fill="#E69600" d="M23.756,33.387c0.076,0.34-0.136,0.678-0.474,0.752c-0.338,0.076-0.239,0.227-0.314-0.115
			c-0.077-0.34,0.135-0.676,0.474-0.752C23.78,33.196,23.68,33.047,23.756,33.387z"/>
		<path fill="#D98D00" d="M2.943,30.445c0,0,0.132-3.969,0.754-1.191c0.621,2.777,1.799,5.43,3.003,5.598
			c1.204,0.168,3.444,1.708,4.047,2.447c0.604,0.741,2.243,2.853,4.142,2.866c1.898,0.01,4.797-1.368,6.464-1.74
			c1.666-0.373,4.95-1.983,5.521-2.693C26.874,35.731,12.018,48.827,2.943,30.445z"/>
		<path fill="#FEBF4E" d="M10.585,20.42c0,0-3.768,0.732-3.666,3.771c0,0-0.223,1.071,0.892,0.368c0,0,0.636-0.256,0.76-0.738
			c0,0,0.863-2.348,2.295-2.668C10.866,21.152,11.6,20.307,10.585,20.42z"/>
		<path fill="#E69600" d="M25.5,27.371c0.076,0.34-0.136,0.678-0.475,0.752c-0.336,0.076-0.239,0.227-0.315-0.115
			c-0.076-0.34,0.137-0.676,0.475-0.753C25.523,27.18,25.423,27.031,25.5,27.371z"/>
	</g>
</g>
</svg>
