<?xml version="1.0" encoding="utf-8"?>
<!-- Generator: Adobe Illustrator 15.0.0, SVG Export Plug-In . SVG Version: 6.00 Build 0)  -->
<!DOCTYPE svg PUBLIC "-//W3C//DTD SVG 1.1//EN" "http://www.w3.org/Graphics/SVG/1.1/DTD/svg11.dtd">
<svg version="1.1" id="Layer_1" xmlns="http://www.w3.org/2000/svg" xmlns:xlink="http://www.w3.org/1999/xlink" x="0px" y="0px"
	 width="50px" height="50px" viewBox="0 0 50 50" enable-background="new 0 0 50 50" xml:space="preserve">
<g>
	<g>
		<path fill="#D63200" d="M22.09,20.629c0,0-6.587-0.879-10.539-2.196c0,0-6.148-3.074-8.124,2.196c0,0-4.61,16.029,1.098,16.689
			c0,0,11.418,3.512,19.102-9.005C23.626,28.313,26.92,21.288,22.09,20.629z"/>
		<path fill="#FF3C00" d="M20.114,22.826c0,0-5.012-2.484-8.646-3.685c0,0-5.651-2.801-7.468,2c0,0-4.239,14.6,1.01,15.2
			c0,0,10.495,3.2,17.559-8.2C22.569,28.142,24.555,23.426,20.114,22.826z"/>
		<path fill="#D63200" d="M11.112,36.438c0,0-8.345,0.659-2.635-4.83c5.709-5.488-0.658-2.635-2.634-2.854
			c-1.977-0.22-2.197-0.657,0.328-3.293c1.849-1.93,4.941-4.831,0.549-5.928c-1.121-0.279-1.739-0.575-2.042-0.859
			c-0.498,0.467-0.931,1.1-1.252,1.957c0,0-4.61,16.029,1.098,16.689c0,0,2.814,0.862,6.587,0.203V36.438z"/>
		<path fill="#D63200" d="M1.872,34.056c0.333,1.791,1.226,3.481,2.981,3.645c0,0,11.09,3.13,18.773-9.387
			c0,0,1.937-4.134,0.656-6.355c-0.335-0.481-0.705-0.793-1.062-0.996c-0.315-0.158-0.688-0.271-1.13-0.333
			c0,0-0.084-0.01-0.233-0.031c-1.783-0.027-3.562,1.889-5.641,3.647c-1.364,1.155-3.247,1.784-4.61,2.5
			c-1.103,0.577-2.673,0.682-3.842,1.15C4.756,29.104,2.192,31.022,1.872,34.056z M13.26,29.262c1.621-0.85,3.212-2.195,4.616-3.384
			c1.31-1.109,3.289-2.782,4-2.646c0.096,0.019,0.236,0.184,0.367,0.429c0.219,0.415,0.291,1.331-0.172,2.654
			c-0.88,2.525-3.546,5.979-8.384,8.098c-3.273,1.431-7.194,1.902-8.737,1.049c-0.393-0.219-0.424-0.432-0.439-0.534
			c-0.254-1.708,1.337-2.537,5.03-4.021C10.77,30.412,12.042,29.9,13.26,29.262z"/>
		<path fill="#D63200" d="M12.538,20.081l5.71,2.634c0,0-5.12,4.989-4.611,3.293C14.295,23.813,9.355,17.446,12.538,20.081z"/>
		<path fill="#B32A00" d="M15.393,35.998c0,0-2.031,0.715-2.525,0.934c-0.494,0.22-1.647,0.439-1.976,0.439
			c-0.329,0-3.238,0.495-3.513,0.495c-0.275,0-3.349-0.386-3.733-0.879s-1.811-2.359-1.043-2.909
			c0.769-0.549-0.83-2.398,0.604-1.538c0.274,0.166-0.713-2.579,0.439-0.877c1.333,1.966,6.378-2.854,6.423-3.239
			c0.165-1.428,0.483,0.033,1.098-0.273c0.55-0.275,0.879-0.824,1.153-0.715c0,0,1.372-1.646,1.481-1.206
			c0,0,1.647-0.715,1.922-1.373c0,0,0.878-1.153,1.098-0.933c0,0,1.483-1.812,2.47-1.757c0,0-1.317-0.879,0.989-0.603
			c0,0,0.549-0.879,2.25-0.221c0.543,0.211,0.659,0.439,0.933,0.439c0.274,0,0.44,0.549,0.494,0.824
			c0.055,0.274,0.11,0.439,0.274,0.548c0.165,0.11,0.165,1.646,0.165,1.646s-0.548,2.688-0.769,2.801
			c-0.218,0.109-1.261,3.02-4.39,5.708L15.393,35.998z"/>
		<path fill="#FFFFFF" d="M4.682,31.976c0,0,2.171,1.505,3.525,0.03c1.356-1.475,1.429-1.657,1.607-2.1
			c0.252-0.625,0.973-1.899-0.511-2.307c0,0-2.771-1.906-4.003-0.327C4.069,28.851,2.216,30.744,4.682,31.976z"/>
		<path fill="#FFFFFF" d="M14.733,23.704c0,0.544-0.688,0.782-1.481,0.987c-0.806,0.21-1.483-0.442-1.483-0.987
			c0-0.545,0.664-0.989,1.483-0.989C14.071,22.715,14.733,23.159,14.733,23.704z"/>
		<path fill="#FFFFFF" d="M15.048,20.076c0.115,0.673-0.586,1.356-1.564,1.524c-0.979,0.167-1.866-0.246-1.981-0.919
			c-0.115-0.673-0.254-2.062,1.498-1.163C13.885,19.973,14.932,19.401,15.048,20.076z"/>
		<path fill="#EDEDED" d="M14.733,23.704c0-0.545-0.663-0.989-1.481-0.989c-0.134,0-0.262,0.017-0.385,0.04
			c0.284,0.63,0.539,1.273,0.689,1.854C14.213,24.418,14.733,24.177,14.733,23.704z"/>
		<path fill="#EDEDED" d="M12.538,20.081c-0.496-0.411-0.795-0.603-0.948-0.625c-0.052,0.076-0.087,0.164-0.11,0.263
			c0.081,0.345,0.408,0.998,0.787,1.773c0.345,0.134,0.77,0.185,1.218,0.109c0.474-0.082,0.879-0.285,1.162-0.547L12.538,20.081z"/>
		<path fill="#FFFFFF" d="M9.465,22.715c0,1.031-0.958,1.866-2.141,1.866s-2.141-0.835-2.141-1.866c0-1.031,0.886-2.401,2.141-1.866
			C8.412,21.314,9.465,21.684,9.465,22.715z"/>
		<path fill="#EDEDED" d="M7.038,24.557c0.874-0.929,1.736-1.961,1.896-2.878c-0.409-0.335-1-0.57-1.61-0.83
			c-1.254-0.536-2.141,0.834-2.141,1.866C5.184,23.661,5.992,24.434,7.038,24.557z"/>
		<path fill="#EDEDED" d="M9.744,30.077c0.024-0.054,0.046-0.11,0.07-0.171c0.252-0.625,0.973-1.899-0.511-2.307
			c0,0-0.041-0.029-0.111-0.074c-0.963,0.357-2.529,1.083-3.57,1.283c-0.703,0.135-1.045-0.116-1.213-0.406
			c-0.966,1.287-1.625,2.627,0.272,3.573c0,0,0.957,0.657,1.997,0.673L9.744,30.077z"/>
		<path fill="#A57941" d="M16.742,24.536c-1.4,1.185-2.847,2.411-4.297,3.169c-1.141,0.599-2.371,1.092-3.56,1.57
			c-3.394,1.364-6.598,2.653-6.112,5.91c0.113,0.769,0.573,1.396,1.325,1.812c2.313,1.28,7.03,0.451,10.293-0.977
			c5.355-2.345,8.335-6.252,9.337-9.128c0.566-1.624,0.59-3.063,0.066-4.053l0,0c-0.401-0.758-0.935-1.206-1.586-1.333
			C20.673,21.21,18.851,22.752,16.742,24.536z M4.524,36.229c-0.52-0.287-0.809-0.672-0.883-1.172
			c-0.364-2.447,1.879-3.481,5.573-4.967c1.208-0.486,2.458-0.988,3.639-1.605c1.535-0.805,3.02-2.061,4.457-3.277
			c1.856-1.57,3.61-3.054,4.734-2.837c0.382,0.074,0.701,0.363,0.976,0.88l0,0c0.401,0.761,0.359,1.982-0.12,3.354
			c-0.942,2.7-3.764,6.381-8.86,8.612C10.487,36.77,6.308,37.215,4.524,36.229z"/>
		<path fill="#FFED8C" d="M23.408,23.045c1.361,2.57-1.537,9.222-9.191,12.573c-4.555,1.993-10.582,2.381-11.009-0.497
			c-0.588-3.958,5.038-4.72,9.44-7.025C17.052,25.788,21.431,19.312,23.408,23.045z"/>
		<path fill="#F0DF68" d="M22.686,24.147c1.226,2.314-1.528,8.375-8.633,11.505c-4.228,1.861-9.793,2.285-10.154-0.317
			c-0.496-3.581,4.706-4.337,8.798-6.482C16.789,26.711,20.907,20.788,22.686,24.147z"/>
		<path fill="#D8C45D" d="M17.04,27.656c0,0,0.769,0.987,3.953-1.099c0,0-2.417,2.525-0.77,3.294l-3.293,5.051
			c-2.635-0.879-6.586,1.427-6.586,1.427c0.47-0.528-0.33-1.977-4.611-1.208c0,0,6.586-2.305,4.391-4.281
			c0,0,3.403,0.329,3.293-1.867C13.417,28.973,15.503,29.852,17.04,27.656z"/>
		<path fill="#B39D4C" d="M17.772,30.438c0.395,0.822-1.073,1.828-2.408,2.47c-1.335,0.64-2.423,2.214-3.302,0.311
			c-0.382-0.828,0.419-3.004,1.873-3.287C17.333,29.266,17.377,29.615,17.772,30.438z"/>
		<path fill="#FFFFCC" d="M9.685,30.346c0,0-8.673,3.897-3.842,5.817c0,0,2.414,0.675,1.537-0.438c0,0-2.855-1.634,1.372-4.349
			C8.751,31.377,11.496,29.579,9.685,30.346z"/>
		<g>
			<path fill="#A57941" d="M23.685,23.923c-1.539,1.295-7.022,6.28-7.864,6.989c0.294-0.938,2.058-5.614,2.542-7.154
				c-0.204,0.165-0.41,0.335-0.621,0.51c-0.583,1.855-2.01,6.394-2.01,6.394c-0.007,0.023-0.01,0.045-0.01,0.067
				c0,0.072,0.035,0.142,0.098,0.183c0.081,0.054,0.188,0.049,0.263-0.014c0,0,5.845-4.922,7.646-6.439
				C23.726,24.273,23.711,24.092,23.685,23.923z"/>
			<path fill="#A57941" d="M14.224,30.632c0.066,0.101,0.203,0.129,0.304,0.062c0.064-0.042-0.177-0.058-0.177-0.128
				c0-0.042,0.025,0.036,0,0c0,0-0.799-1.732-1.402-2.635c-0.1,0.054-0.199,0.112-0.301,0.165c-0.028,0.015-0.057,0.029-0.086,0.044
				L14.224,30.632z"/>
			<path fill="#A57941" d="M22.458,28.598c-1.773,0.795-5.289,2.371-5.289,2.371c-0.08,0.035-0.129,0.114-0.129,0.2
				c0,0.008,0,0.017,0.001,0.026c0.011,0.094,0.083,0.172,0.177,0.189c0,0,1.416,0.27,2.636,0.502
				c0.129-0.124,0.254-0.248,0.377-0.376c-0.835-0.159-2.767-0.086-3.246-0.177c0.626-0.28,3.602-1.416,5.06-2.07
				C22.19,29.042,22.331,28.818,22.458,28.598z"/>
			<path fill="#A57941" d="M9.135,37.057c0.259-0.035,0.522-0.079,0.788-0.127c1.332-1.221,4.191-3.842,4.191-3.842
				c0.047-0.045,0.072-0.104,0.072-0.162c0-0.036-0.009-0.073-0.028-0.107c-0.048-0.089-0.152-0.131-0.25-0.104
				c0,0-8.472,2.325-10.56,2.899c0.062,0.139,0.142,0.271,0.234,0.391c2.168-0.597,8.941-2.631,10.165-2.969
				C12.983,33.734,10.192,36.086,9.135,37.057z"/>
			<path fill="#A57941" d="M14.402,31.647C14.521,31.67,14.38,31.767,14.402,31.647c0.021-0.118-0.058-0.233-0.177-0.255
				l-6.452-1.189c-0.248,0.104-0.489,0.207-0.725,0.313C9.322,30.936,14.402,31.647,14.402,31.647z"/>
		</g>
		<path fill="#FFE655" d="M13.478,30.626c-0.874,0.605-0.905,1.613-0.077,2.251c0.463,0.357,3.257,3.4-0.497,6.715
			c-0.769,0.679-0.276,2.15,0.658,2.71c0.933,0.561,4.601,1.675,6.354-0.318c4.285-4.873-0.836-9.415-3.353-11.313
			C15.726,30.037,14.349,30.02,13.478,30.626z"/>
		<path fill="#E6D04D" d="M16.601,42.682c-4.864-1.833,1.122-3.666-0.374-4.5c-1.497-0.832,0.841-0.084,0.28-0.832
			c-0.561-0.751-1.684-1.585-0.094-1.502c1.591,0.083-0.093-1.584-0.093-1.584c-0.89-2.43-0.35-3.318,0.163-3.643
			c-0.842-0.579-2.16-0.584-3.005,0.005c-0.874,0.605-0.905,1.613-0.077,2.251c0.463,0.357,3.257,3.4-0.497,6.715
			c-0.769,0.679-0.276,2.15,0.658,2.71c0.621,0.374,2.451,0.985,4.123,0.771C17.349,42.959,16.991,42.829,16.601,42.682z"/>
		<path fill="#D8C45D" d="M19.833,33.767c-0.097-0.124-0.196-0.245-0.298-0.362c-0.324,0.093-0.692,0.238-0.877,0.444
			C18.658,33.849,19.289,33.729,19.833,33.767z"/>
		<path fill="#D8C45D" d="M20.862,35.357c-0.399-0.016-0.885,0.01-1.091,0.198c0,0,0.73,0.06,1.336,0.332
			C21.033,35.707,20.951,35.532,20.862,35.357z"/>
		<path fill="#D8C45D" d="M21.505,37.304c-0.047-0.313-0.118-0.62-0.214-0.921c-0.455-0.126-1.124-0.273-1.573-0.202
			C19.719,36.181,20.879,36.758,21.505,37.304z"/>
		<path fill="#FEE685" d="M19.321,38.684c0,0-0.983,2.099-2.062,2.777c0,0-0.805,0.453,0.377,0.842c0,0,2.331,0.431,2.36-2.967
			C19.997,39.336,19.788,38.262,19.321,38.684z"/>
		<path fill="#FFFFCC" d="M19.24,39.338c0,0-0.708,1.511-1.484,1.999c0,0-0.581,0.326,0.271,0.606c0,0,1.678,0.31,1.7-2.135
			C19.726,39.809,19.576,39.035,19.24,39.338z"/>
		<path fill="#AD2800" d="M4,21.142c0,0-1.891,7.245-1.452,8.417c0,0,1.025,0.731,0.732-1.317c0,0-0.147-2.049,1.317-3.074
			c0,0,1.904-0.257,0.146-1.903C4.744,23.264,4.586,18.652,4,21.142z"/>
		<path fill="#AD2800" d="M15.576,19.897c0,0,4.246,1.024,4.831,1.024c0,0,0,0.293-1.026,0.44
			C19.381,21.362,14.551,20.19,15.576,19.897z"/>
		<path fill="#FF7800" d="M6.548,18.703c0,0,2.196-0.522,3.516,0.339c0,0,0.003,0.443-0.388,0.093c0,0-0.795-0.773-3.182-0.228
			C6.494,18.907,5.884,18.927,6.548,18.703z"/>
		<path fill="#CCB844" d="M15.208,38.415c-0.74-1.184,0.888-1.035,0.295-1.774c-0.59-0.739,0.444-1.774-1.39-3.553
			c-1.507-1.463-0.198-2.516,0.316-2.844c-0.346,0.066-0.676,0.19-0.953,0.382c-0.874,0.605-0.905,1.613-0.077,2.251
			c0.463,0.357,3.257,3.4-0.497,6.715c-0.604,0.532-0.423,1.549,0.133,2.236C12.787,39.705,15.867,39.468,15.208,38.415z"/>
		<path fill="#FF7800" d="M18.018,22.17c-2.075,2.208-5.196,4.244-5.228,4.264c-0.052,0.034-0.078,0.089-0.061,0.123
			c0.021,0.034,0.078,0.034,0.13,0c0.032-0.021,3.188-2.081,5.292-4.318c1.146-1.22,1.86-1.49,2.675-1.716
			c0.055-0.015,0.104-0.063,0.112-0.109c0.005-0.045-0.035-0.069-0.091-0.054C20.014,20.592,19.225,20.888,18.018,22.17z"/>
	</g>
	<g>
		<g>
			<path fill="#D63200" d="M46.277,22.191c0,0-6.305-5.18-9.576-9.112c0,0-4.425-7.185-9.897-2.967c0,0-15.184,13.739-9.653,18.122
				c0,0,9.639,11.054,25.756,2.969C42.907,31.203,50.891,26.004,46.277,22.191z"/>
			<path fill="#FF3C00" d="M42.794,23.203c0,0-3.623-5.835-6.636-9.438c0,0-4.086-6.58-9.086-2.746c0,0-13.871,12.491-8.785,16.513
				c0,0,8.879,10.131,23.627,2.807C41.915,30.338,47.038,26.702,42.794,23.203z"/>
			<path fill="#D63200" d="M24.591,31.58c0,0-9.132-4.711,0.377-6.745c9.508-2.032,1.018-3.175-0.902-4.684
				c-1.919-1.507-1.864-2.108,2.475-3.222c3.177-0.816,8.281-1.844,4.409-5.83c-0.987-1.018-1.441-1.726-1.573-2.218
				c-0.82,0.164-1.683,0.544-2.573,1.23c0,0-15.184,13.739-9.653,18.122c0,0,2.376,2.723,6.74,4.477L24.591,31.58z"/>
			<path fill="#D63200" d="M16.492,23.115c-0.811,2.083-0.974,4.424,0.753,5.734c0,0,9.545,10.438,25.662,2.354
				c0,0,4.693-3.062,4.797-6.208c-0.039-0.719-0.222-1.285-0.463-1.727c-0.227-0.368-0.541-0.729-0.964-1.077
				c0,0-0.082-0.067-0.223-0.185c-1.845-1.181-4.939-0.333-8.249,0.156c-2.167,0.321-4.54-0.241-6.425-0.378
				c-1.523-0.11-3.23-1.018-4.755-1.284C22.707,19.816,18.791,20.157,16.492,23.115z M31.478,25.482
				c2.242,0.162,4.772-0.212,7.007-0.543c2.083-0.309,5.231-0.774,5.885-0.172c0.087,0.082,0.129,0.346,0.104,0.686
				c-0.039,0.574-0.558,1.572-1.896,2.657c-2.554,2.064-7.568,3.943-13.986,3.021c-4.342-0.623-8.737-2.671-9.795-4.56
				c-0.269-0.481-0.164-0.725-0.114-0.841c0.84-1.947,3.038-1.782,7.851-0.94C28.136,25.07,29.792,25.36,31.478,25.482z"/>
			<path fill="#D63200" d="M36.666,15.436l4.252,6.445c0,0-8.571,1.892-6.942,0.452C36.083,20.468,35.05,10.627,36.666,15.436z"/>
			<path fill="#B32A00" d="M29.344,33.893c0,0-2.583-0.57-3.239-0.66c-0.658-0.09-2.002-0.607-2.346-0.82
				c-0.344-0.214-3.699-1.582-3.985-1.759c-0.286-0.177-3.245-2.566-3.326-3.331c-0.082-0.765-0.363-3.636,0.794-3.711
				c1.156-0.074,0.685-3.038,1.624-1.212c0.18,0.35,0.926-3.154,1.027-0.632c0.118,2.913,8.501,1.15,8.796,0.777
				c1.095-1.383,0.483,0.347,1.323,0.423c0.751,0.069,1.449-0.29,1.664,0.002c0,0,2.498-0.83,2.329-0.3c0,0,2.179,0.321,2.892-0.189
				c0,0,1.662-0.634,1.749-0.263c0,0,2.72-0.931,3.714-0.233c0,0-0.807-1.77,1.423,0.009c0,0,1.141-0.562,2.488,1.228
				c0.432,0.572,0.404,0.884,0.691,1.062c0.285,0.178,0.102,0.857-0.018,1.179c-0.12,0.322-0.172,0.53-0.068,0.751
				c0.1,0.22-0.895,1.825-0.895,1.825s-2.313,2.45-2.613,2.423c-0.302-0.028-3.271,2.333-8.277,3.113L29.344,33.893z"/>
			<path fill="#FFFFFF" d="M20.771,22.763c0,0,1.29,2.974,3.66,2.314c2.368-0.661,2.563-0.806,3.034-1.152
				c0.666-0.489,2.244-1.354,0.961-2.738c0,0-1.658-3.781-3.966-2.931C22.153,19.106,18.995,19.883,20.771,22.763z"/>
			<path fill="#FFFFFF" d="M39.286,17.057c-0.314,0.777-1.487,1.035-2.616,0.576c-1.129-0.458-1.787-1.461-1.473-2.239
				c0.317-0.777,1.069-2.315,2.314-0.244C38.14,16.195,39.603,16.279,39.286,17.057z"/>
			<path fill="#EDEDED" d="M36.666,15.436c-0.252-0.749-0.439-1.143-0.585-1.265c-0.103,0.045-0.197,0.115-0.284,0.203
				c-0.141,0.412-0.221,1.305-0.326,2.359c0.271,0.364,0.683,0.69,1.199,0.9c0.547,0.224,1.101,0.274,1.565,0.183L36.666,15.436z"/>
			<path fill="#EDEDED" d="M27.279,24.059c0.062-0.043,0.121-0.085,0.186-0.133c0.666-0.489,2.244-1.354,0.961-2.738
				c0,0-0.025-0.057-0.07-0.148c-1.235-0.25-3.337-0.508-4.553-0.972c-0.82-0.314-1.016-0.798-1.003-1.208
				c-1.84,0.717-3.395,1.687-2.028,3.903c0,0,0.572,1.305,1.646,1.994L27.279,24.059z"/>
			<path fill="#A57941" d="M38.167,22.806c-2.228,0.33-4.529,0.673-6.532,0.525c-1.577-0.114-3.181-0.394-4.73-0.665
				c-4.423-0.772-8.601-1.502-10.203,2.21c-0.378,0.875-0.305,1.826,0.213,2.749c1.584,2.83,7.041,5.019,11.37,5.641
				c7.104,1.019,12.74-1.13,15.649-3.479c1.641-1.328,2.597-2.816,2.69-4.188l0,0c0.073-1.051-0.193-1.863-0.792-2.416
				C44.421,21.879,41.523,22.309,38.167,22.806z M17.854,27.098c-0.356-0.636-0.41-1.224-0.162-1.795
				c1.204-2.788,4.214-2.415,9.026-1.575c1.576,0.276,3.205,0.562,4.837,0.679c2.123,0.156,4.485-0.194,6.77-0.533
				c2.954-0.438,5.743-0.852,6.776,0.102c0.351,0.325,0.498,0.833,0.449,1.552l0,0c-0.072,1.053-0.909,2.3-2.295,3.421
				c-2.73,2.208-8.058,4.222-14.818,3.25C23.726,31.521,19.077,29.283,17.854,27.098z"/>
			<path fill="#FFED8C" d="M46.087,25.563c-0.242,3.564-7.57,8.628-17.725,7.171c-6.043-0.867-12.581-4.362-11.166-7.644
				c1.947-4.509,8.311-1.664,14.398-1.221C37.682,24.313,46.442,20.39,46.087,25.563z"/>
			<path fill="#F0DF68" d="M44.621,26.247c-0.22,3.207-7.016,7.748-16.453,6.415c-5.614-0.794-11.695-3.951-10.388-6.902
				c1.799-4.055,7.717-1.479,13.374-1.069C36.809,25.104,44.939,21.59,44.621,26.247z"/>
			<path fill="#D8C45D" d="M36.461,26.253c0,0,0.162,1.528,4.834,1.413c0,0-4.154,1.07-2.934,2.938l-6.704,3.137
				c-2.182-2.619-7.797-2.772-7.797-2.772c0.834-0.248,0.936-2.275-4.029-4.244c0,0,8.365,1.857,7.352-1.626
				c0,0,3.339,2.547,4.646,0.185C31.828,25.283,33.436,27.549,36.461,26.253z"/>
			<path fill="#B39D4C" d="M35.424,29.629c-0.12,1.113-2.302,1.215-4.109,1.018c-1.809-0.193-3.961,0.743-3.646-1.811
				c0.136-1.111,2.382-2.863,4.082-2.219C35.724,28.124,35.544,28.516,35.424,29.629z"/>
			<path fill="#FFFFCC" d="M27.046,24.3c0,0-11.572-1.546-7.775,3.585c0,0,2.083,2.268,1.888,0.535c0,0-3.134-3.725,4.247-3.649
				C25.406,24.771,29.431,24.672,27.046,24.3z"/>
			<g>
				<path fill="#A57941" d="M45.809,26.658c-2.444,0.356-11.391,2.01-12.727,2.204c0.914-0.788,5.778-4.524,7.281-5.819
					c-0.318,0.04-0.645,0.084-0.979,0.13c-1.809,1.559-6.234,5.372-6.234,5.372c-0.021,0.02-0.039,0.04-0.053,0.063
					c-0.048,0.075-0.056,0.169-0.016,0.254c0.049,0.108,0.163,0.171,0.283,0.154c0,0,9.281-1.354,12.144-1.769
					C45.626,27.052,45.727,26.854,45.809,26.658z"/>
				<path fill="#A57941" d="M31.595,27.535c0.005,0.148,0.13,0.266,0.278,0.261c0.094-0.004-0.146-0.174-0.102-0.248
					c0.027-0.043,0.002,0.056,0,0c0,0,0.287-2.324,0.242-3.658c-0.141-0.004-0.281-0.01-0.419-0.021
					c-0.041-0.003-0.08-0.007-0.121-0.009L31.595,27.535z"/>
				<path fill="#A57941" d="M41.504,30.743c-2.362-0.319-7.052-0.949-7.052-0.949c-0.106-0.015-0.209,0.035-0.266,0.124
					c-0.005,0.01-0.01,0.021-0.014,0.029c-0.052,0.105-0.025,0.232,0.061,0.313c0,0,1.304,1.196,2.426,2.229
					c0.215-0.046,0.427-0.096,0.636-0.149c-0.77-0.705-2.831-1.879-3.271-2.284c0.834,0.112,4.674,0.853,6.617,1.115
					C40.938,31.032,41.229,30.891,41.504,30.743z"/>
				<path fill="#A57941" d="M22.127,30.945c0.295,0.132,0.597,0.258,0.907,0.378c2.177-0.412,6.858-1.296,6.858-1.296
					c0.077-0.016,0.141-0.061,0.181-0.122c0.023-0.04,0.037-0.082,0.039-0.13c0.007-0.125-0.073-0.236-0.192-0.271
					c0,0-10.346-3.057-12.895-3.811c-0.026,0.188-0.027,0.374-0.007,0.561c2.646,0.782,11.032,3.039,12.525,3.48
					C28.295,29.971,23.86,30.618,22.127,30.945z"/>
				<path fill="#A57941" d="M31.123,28.711C31.234,28.811,31.023,28.821,31.123,28.711c0.102-0.11,0.094-0.28-0.017-0.38
					l-5.962-5.417c-0.325-0.053-0.646-0.1-0.96-0.143C26.284,24.68,31.123,28.711,31.123,28.711z"/>
			</g>
			<path fill="#FFE655" d="M30.82,27.048c-1.302,0.065-1.986,1.098-1.535,2.298c0.252,0.673,1.197,5.656-4.864,6.683
				c-1.242,0.212-1.68,2.065-1.067,3.257c0.611,1.187,3.715,4.723,6.834,3.777c7.622-2.313,5.22-10.365,3.824-13.975
				C33.548,27.889,32.123,26.979,30.82,27.048z"/>
			<path fill="#E6D04D" d="M26.277,41.646c-3.888-5.06,3.544-3.1,2.521-4.937c-1.021-1.839,0.932,0.457,0.832-0.688
				c-0.1-1.146-0.731-2.743,0.875-1.625c1.604,1.115,0.925-1.713,0.925-1.713c0.646-3.113,1.783-3.69,2.53-3.697
				c-0.503-1.149-1.877-2.005-3.141-1.938c-1.302,0.065-1.986,1.098-1.535,2.298c0.252,0.673,1.197,5.656-4.864,6.683
				c-1.242,0.212-1.68,2.065-1.067,3.257c0.406,0.789,1.919,2.612,3.802,3.47C26.881,42.419,26.589,42.053,26.277,41.646z"/>
			<path fill="#D8C45D" d="M35.42,34.436c-0.022-0.19-0.047-0.38-0.077-0.57c-0.399-0.111-0.875-0.199-1.2-0.104
				C34.143,33.761,34.878,34.045,35.42,34.436z"/>
			<path fill="#D8C45D" d="M35.465,36.762c-0.407-0.275-0.93-0.563-1.27-0.498c0,0,0.726,0.534,1.182,1.208
				C35.416,37.238,35.444,37.001,35.465,36.762z"/>
			<path fill="#D8C45D" d="M34.875,39.208c0.154-0.355,0.279-0.723,0.373-1.099c-0.393-0.426-0.994-1.012-1.509-1.229
				C33.739,36.881,34.576,38.232,34.875,39.208z"/>
			<path fill="#FFF295" d="M31.783,39.173c0,0-2.479,1.612-4.105,1.622c0,0-1.18-0.049-0.159,1.171c0,0,2.24,2.034,4.559-1.632
				C32.077,40.334,32.574,39.027,31.783,39.173z"/>
			<path fill="#FFFFCC" d="M31.326,39.691c0,0-1.929,1.254-3.197,1.264c0,0-0.918-0.039-0.123,0.913c0,0,1.745,1.581,3.551-1.272
				C31.557,40.596,31.943,39.578,31.326,39.691z"/>
			<path fill="#AD2800" d="M27.072,11.019c0,0-6.663,6.335-6.963,7.841c0,0,0.595,1.427,1.616-0.9c0,0,1.173-2.233,3.363-2.354
				c0,0,2.151,0.965,1.385-1.891C26.474,13.714,29.293,8.801,27.072,11.019z"/>
			<path fill="#AD2800" d="M39.953,17.211c0,0,3.767,3.816,4.377,4.195c0,0-0.188,0.305-1.353-0.206
				C42.978,21.201,38.694,16.853,39.953,17.211z"/>
			<g>
				<path fill="#FF4D00" d="M32.593,15.89c0,0-0.908,1.435-3.441,2.008c0,0-1.435,0.191,0.383,1.051c0,0,3.394,1.864,3.823,0.717
					c0.338-0.901,0.908-2.963,0-4.015C33.357,15.652,33.022,14.982,32.593,15.89z"/>
				<path fill="#FF5900" d="M32.516,16.376c0,0-0.776,1.186-2.939,1.661c0,0-1.225,0.158,0.328,0.87c0,0,2.896,1.542,3.263,0.593
					c0.289-0.745,0.776-2.452,0-3.322C33.167,16.179,32.882,15.625,32.516,16.376z"/>
				<path fill="#FF6600" d="M32.457,16.701c0,0-0.656,1.008-2.486,1.413c0,0-1.034,0.133,0.277,0.738c0,0,2.449,1.311,2.76,0.504
					c0.245-0.633,0.656-2.084,0-2.822C33.008,16.534,32.768,16.061,32.457,16.701z"/>
				<path fill="#FF7800" d="M32.359,16.83c0,0-0.591,0.907-2.236,1.271c0,0-0.933,0.122,0.249,0.667c0,0,2.205,1.179,2.484,0.453
					c0.218-0.57,0.59-1.875,0-2.54C32.856,16.679,32.639,16.255,32.359,16.83z"/>
			</g>
			<path fill="#FFFFFF" d="M36.612,20.638c-0.354,0.569-1.226,0.369-2.185,0.072c-0.977-0.303-1.261-1.421-0.907-1.99
				c0.354-0.57,1.331-0.601,2.186-0.072C36.56,19.177,36.965,20.068,36.612,20.638z"/>
			<path fill="#EDEDED" d="M36.612,20.638c0.353-0.57-0.053-1.461-0.906-1.99c-0.141-0.087-0.283-0.153-0.427-0.21
				c-0.112,0.842-0.262,1.678-0.48,2.381C35.606,21.045,36.307,21.132,36.612,20.638z"/>
			<path fill="#FFFFFF" d="M31.755,16.196c-0.667,1.076-2.208,1.328-3.442,0.563c-1.233-0.764-1.693-2.258-1.025-3.333
				c0.666-1.076,2.479-1.933,3.441-0.562C31.563,14.052,32.421,15.121,31.755,16.196z"/>
			<path fill="#EDEDED" d="M28.03,16.547c1.512-0.404,3.081-0.922,3.841-1.776c-0.209-0.612-0.675-1.241-1.143-1.907
				c-0.962-1.371-2.775-0.514-3.441,0.562C26.675,14.413,27.02,15.742,28.03,16.547z"/>
			<path fill="#FF7800" d="M30.883,10.098c0,0,3.279,0.829,4.436,2.885c0,0-0.301,0.589-0.579-0.146c0,0-0.521-1.578-4.067-2.505
				C30.672,10.332,29.848,9.934,30.883,10.098z"/>
			<path fill="#CCB844" d="M30.82,27.048c-1.302,0.065-1.986,1.098-1.535,2.298c0.252,0.673,1.197,5.656-4.864,6.683
				c-1.242,0.212-1.68,2.065-1.067,3.257c0.03,0.059,0.078,0.133,0.12,0.201c0.266-5.219,3.751-1.656,4.155-3.142
				c0.443-1.627,1.036-0.443,1.184-1.774s1.627-1.331,1.627-1.331c0.991-0.556-0.327-3.464-0.327-3.464
				c-0.561-3.337,3.476-1.29,3.569-1.269C33.053,27.609,31.9,26.99,30.82,27.048z"/>
		</g>
		<path fill="#FF7800" d="M40.346,21.41c-4.472,0.85-9.652,0.603-9.707,0.599c-0.094-0.005-0.174,0.038-0.182,0.097
			c-0.005,0.058,0.064,0.108,0.158,0.113c0.057,0.004,5.714,0.289,10.25-0.572c2.471-0.469,3.577-0.166,4.768,0.279
			c0.08,0.031,0.184,0.016,0.232-0.034c0.047-0.05,0.02-0.114-0.062-0.146C44.582,21.29,42.946,20.917,40.346,21.41z"/>
	</g>
</g>
</svg>
