<?xml version="1.0" encoding="utf-8"?>
<!-- Generator: Adobe Illustrator 15.0.0, SVG Export Plug-In . SVG Version: 6.00 Build 0)  -->
<!DOCTYPE svg PUBLIC "-//W3C//DTD SVG 1.1//EN" "http://www.w3.org/Graphics/SVG/1.1/DTD/svg11.dtd">
<svg version="1.1" id="Layer_1" xmlns="http://www.w3.org/2000/svg" xmlns:xlink="http://www.w3.org/1999/xlink" x="0px" y="0px"
	 width="50px" height="50px" viewBox="0 0 50 50" enable-background="new 0 0 50 50" xml:space="preserve">
<g>
	<g>
		
			<radialGradient id="SVGID_1_" cx="49.9004" cy="35.417" r="18.0728" gradientTransform="matrix(-1 0 0 1 79.4609 0)" gradientUnits="userSpaceOnUse">
			<stop  offset="0.0056" style="stop-color:#FFF0C7"/>
			<stop  offset="1" style="stop-color:#E69A0A"/>
		</radialGradient>
		<path fill="url(#SVGID_1_)" d="M18.913,37.036c2.088,1.148-1.775-2.506,1.514-3.968c2.608-1.158,7.278-3.964,10.481-7.911
			c3.35,4.066,6.316,8.556,6.744,12.088c0,0-1.879,5.376-11.014,5.376c-7.268,0-9.775-5.415-10.656-8.103
			C16.536,35.197,17.558,36.291,18.913,37.036z"/>
		
			<radialGradient id="SVGID_2_" cx="58.7334" cy="17.0005" r="22.8519" gradientTransform="matrix(-1 0 0 1 79.4609 0)" gradientUnits="userSpaceOnUse">
			<stop  offset="0" style="stop-color:#88B300"/>
			<stop  offset="1" style="stop-color:#004C00"/>
		</radialGradient>
		<path fill="url(#SVGID_2_)" d="M6.195,19.574c-0.561-0.858-0.89-1.882-0.89-2.984c0-3.018,2.446-5.463,5.464-5.463
			c0.984,0,1.906,0.264,2.703,0.72l2.1-0.285l4.907,2.766c0,0,5.612,4.978,10.429,10.829c-3.203,3.947-7.874,6.753-10.481,7.911
			c-3.289,1.462,0.574,5.116-1.514,3.968c-1.355-0.745-2.377-1.839-2.93-2.518c-0.226-0.692-0.346-1.206-0.411-1.397
			c-0.303-0.908-1.483-4.596-3.966-4.37c-0.527,0.17-1.088,0.264-1.672,0.264c-3.018,0-5.464-2.446-5.464-5.464
			C4.47,21.981,5.136,20.571,6.195,19.574z"/>
		
			<radialGradient id="SVGID_3_" cx="55.7861" cy="40.4941" r="13.5194" gradientTransform="matrix(-1 0 0 1 79.4609 0)" gradientUnits="userSpaceOnUse">
			<stop  offset="0.0056" style="stop-color:#FFF0C7"/>
			<stop  offset="1" style="stop-color:#FFCA0A"/>
		</radialGradient>
		<path fill="url(#SVGID_3_)" d="M19.487,32.182c2.088,1.566,1.827,0-2.714-6.16c-4.542-6.16-0.261-1.618,2.088,0.731
			c2.349,2.349,4.698,4.437,4.176,2.767c-0.522-1.671-2.506-3.236-0.261-2.297s1.67,2.871,3.028,3.549
			c1.357,0.68,3.549,4.333,3.236,0.574c-0.313-3.758-2.505-7.046-2.505-7.046l4.411-2.061c3.68,5.945,7.07,12.416,6.707,15.007
			c0,0-2.105,4.785-10.109,4.089c-6.436-0.56-8.865-6.786-9.824-9.893C17.861,31.278,18.282,31.277,19.487,32.182z"/>
		<path opacity="0.4" fill="#006000" d="M10.976,12.51c0,0-3.809,1.975-0.676,7.404c0,0-1.879,3.549,0.052,5.481
			c1.931,1.932,3.915,1.879,3.915,1.879s1.774,0.366,2.192,1.827c0.417,1.462,2.61,5.638,2.61,5.638s-1.514-3.724-1.827-4.89
			c-0.313-1.166-0.73-2.627-2.923-2.992c-2.192-0.366-3.654-1.253-4.071-3.08s0.987-3.798,0.987-3.798S7.894,16.799,10.976,12.51z"
			/>
		
			<radialGradient id="SVGID_4_" cx="56.7275" cy="12.5952" r="21.3543" gradientTransform="matrix(-1 0 0 1 79.4609 0)" gradientUnits="userSpaceOnUse">
			<stop  offset="0" style="stop-color:#88B300"/>
			<stop  offset="1" style="stop-color:#004C00"/>
		</radialGradient>
		<path fill="url(#SVGID_4_)" d="M9.621,16.104c0-1.378,0.514-2.633,1.355-3.594c-0.456-0.609-0.729-1.364-0.729-2.183
			c0-2.019,1.636-3.655,3.654-3.655c1.955,0,3.546,1.536,3.645,3.467c1.692-0.296,3.853-0.29,4.917,0.223
			c0.71,0.342,4.747,5.838,8.483,11.876l-4.411,2.061c0,0,2.192,3.289,2.505,7.046c0.313,3.759-1.879,0.105-3.236-0.574
			c-1.357-0.678-0.783-2.609-3.028-3.549s-0.261,0.626,0.261,2.297c0.522,1.67-1.827-0.418-4.176-2.767
			c-2.349-2.35-6.629-6.891-2.088-0.731c4.542,6.16,4.802,7.727,2.714,6.16c-1.205-0.904-1.626-0.903-1.768-0.74
			c-0.234-0.758-0.381-1.332-0.477-1.592c-0.469-1.272-0.575-2.574-3.138-2.996c-2.213-0.041-3.996-1.845-3.996-4.068
			c0-1.089,0.431-2.076,1.126-2.807C10.238,18.989,9.621,17.619,9.621,16.104z"/>
		<path opacity="0.2" fill="#006000" d="M27.108,25.187c0,0-5.116-1.566-7.987-1.514c-2.871,0.053-5.324-2.088-5.847-4.906
			c-0.521-2.819,1.201-4.385,1.201-4.385s-3.758-4.229,0.366-7.621c0,0-2.722,3.643,0.388,7.328c0,0-3.311,3.999-0.022,7.288
			S22.462,22.106,27.108,25.187z"/>
		<path fill="none" d="M37.092,14.712c-0.175-0.096-0.347-0.187-0.512-0.27C36.641,14.466,36.832,14.548,37.092,14.712z"/>
		
			<radialGradient id="SVGID_5_" cx="35.0625" cy="22.8892" r="15.5664" gradientTransform="matrix(-1 0 0 1 79.4609 0)" gradientUnits="userSpaceOnUse">
			<stop  offset="0.0056" style="stop-color:#FFF0C7"/>
			<stop  offset="1" style="stop-color:#FFD721"/>
		</radialGradient>
		<path fill="url(#SVGID_5_)" d="M34.416,26.021c-0.261-0.939-1.514-1.618-3.602-2.349c-2.088-0.73-3.341-2.871-1.514-1.931
			s3.132,0.679,3.132,0.679c-0.991-2.871-7.517-6.838-5.585-7.256c1.931-0.417,7.673,3.706,7.673,3.706
			c0-2.871-1.305-3.445-0.208-3.184c1.096,0.261,1.931,1.305,2.191,2.192c0.262,0.888,0,1.932,1.305,2.506
			c1.306,0.574,1.723,2.036,1.723,2.036c0.762-5.044-1.393-7.047-2.439-7.708c3.244,1.773,7.891,5.592,8.182,11.674
			c0.366,7.622-7.621,10.858-7.621,10.858s-1.685-7.362-9.205-11.411l0.018-0.021C31.023,25.03,34.677,26.961,34.416,26.021z"/>
		
			<radialGradient id="SVGID_6_" cx="51.8311" cy="11.2173" r="20.5311" gradientTransform="matrix(-1 0 0 1 79.4609 0)" gradientUnits="userSpaceOnUse">
			<stop  offset="0" style="stop-color:#CDCF00"/>
			<stop  offset="1" style="stop-color:#007200"/>
		</radialGradient>
		<path fill="url(#SVGID_6_)" d="M13.658,10.257c0-3.018,2.446-5.464,5.464-5.464c1.663,0,3.15,0.746,4.152,1.918
			c0.999-1.09,2.43-1.779,4.026-1.779c3.018,0,5.464,2.446,5.464,5.463c0,0.194-0.012,0.385-0.031,0.574
			c0.034,0.774,0.378,2.134,2.258,2.784c0.426,0.148,0.963,0.372,1.565,0.676l0.001,0.003c0,0,0.01,0.003,0.023,0.009
			c0.165,0.083,0.337,0.174,0.512,0.27c1.047,0.661,3.201,2.664,2.439,7.708c0,0-0.417-1.461-1.723-2.036
			c-1.305-0.574-1.043-1.618-1.305-2.506c-0.261-0.887-1.096-1.931-2.191-2.192c-1.097-0.261,0.208,0.313,0.208,3.184
			c0,0-5.742-4.124-7.673-3.706c-1.932,0.417,4.594,4.385,5.585,7.256c0,0-1.305,0.261-3.132-0.679s-0.574,1.201,1.514,1.931
			c2.088,0.731,3.341,1.41,3.602,2.349c0.261,0.939-3.393-0.991-5.951-0.208l-0.018,0.021c-2.43-1.309-5.466-2.272-9.256-2.528
			c0,0-0.492,0.034-1.022-0.099c-2.528-0.479-4.442-2.696-4.442-5.364c0-1.456,0.573-2.776,1.502-3.755
			C14.258,13.102,13.658,11.75,13.658,10.257z"/>
		<path fill="none" stroke="#FF0000" stroke-width="0.25" d="M36.556,14.43c0.008,0.004,0.017,0.008,0.024,0.012
			c-0.014-0.006-0.023-0.009-0.023-0.009L36.556,14.43z"/>
		
			<radialGradient id="SVGID_7_" cx="38.8232" cy="37.5059" r="7.2933" gradientTransform="matrix(-1 0 0 1 79.4609 0)" gradientUnits="userSpaceOnUse">
			<stop  offset="0.0056" style="stop-color:#FFD479"/>
			<stop  offset="1" style="stop-color:#D4900A"/>
		</radialGradient>
		<path fill="url(#SVGID_7_)" d="M36.98,36.178c-1.233,1.127-1.711,2.616-1.063,3.322c0.646,0.707,2.169,0.365,3.402-0.764
			c1.233-1.128,1.71-2.616,1.063-3.322C39.736,34.707,38.213,35.049,36.98,36.178z"/>
		
			<linearGradient id="SVGID_8_" gradientUnits="userSpaceOnUse" x1="41.1543" y1="42.4395" x2="40.8251" y2="34.3201" gradientTransform="matrix(-1 0 0 1 79.4609 0)">
			<stop  offset="0.0056" style="stop-color:#FFF0C7"/>
			<stop  offset="1" style="stop-color:#E69A0A"/>
		</linearGradient>
		<path fill="url(#SVGID_8_)" d="M37.611,36.754c-1.054,0.964-1.511,2.18-1.021,2.716s1.741,0.189,2.795-0.775
			c1.054-0.964,1.511-2.18,1.021-2.716C39.916,35.443,38.664,35.791,37.611,36.754z"/>
		<path opacity="0.1" fill="#FFFFFF" d="M25.333,20.906c1.036,0.444,2.924,2.401,3.968,2.975s-1.462,0.679-3.915-0.261
			c-2.454-0.94-6.995-0.731-9.031-2.61c-2.036-1.879-1.409-4.437-0.626-5.376c0.783-0.939,3.967-0.783,4.489,1.305
			S24.237,20.436,25.333,20.906z"/>
		<path opacity="0.1" fill="#FFFFFF" d="M16.616,16.104c0.634-0.725,2.454-0.783,2.976,0.939s1.461,3.184,4.228,4.124
			s3.132,1.879,4.02,2.401s-1.357-0.104-2.923-0.992c-1.566-0.888-5.376-0.679-7.151-1.462
			C15.989,20.332,15.154,17.774,16.616,16.104z"/>
		<path opacity="0.1" fill="#FFFFFF" d="M16.877,16.625c0.407-0.572,2.192-0.365,2.245,0.835s0.73,2.61,2.088,3.08
			s-0.887,0.992-2.767,0.313C16.564,20.175,15.729,18.244,16.877,16.625z"/>
		<path opacity="0.1" fill="#FFFFFF" d="M17.764,16.939c0.464-0.093,0.835,0.157,0.94,1.148c0.104,0.992,0.104,1.461,0.835,1.983
			s-1.461,0.574-2.297-0.574C16.407,18.348,16.981,17.096,17.764,16.939z"/>
		<path opacity="0.1" fill="#FFFFFF" d="M18.234,6.029c0.849-0.212,3.341,0,4.176,1.879c0.835,1.879,1.67,4.75,2.558,5.951
			c0.888,1.2-0.939,1.722-3.654-0.313s-4.437-2.401-5.22-3.602C15.311,8.744,15.729,6.655,18.234,6.029z"/>
		<path opacity="0.1" fill="#FFFFFF" d="M19.017,6.708c1.162-0.117,2.401,1.044,3.289,2.923c0.887,1.879,2.401,4.437-0.731,2.871
			c-3.132-1.566-4.906-1.879-4.802-3.602C16.877,7.178,17.973,6.812,19.017,6.708z"/>
		<path opacity="0.1" fill="#FFFFFF" d="M19.435,7.438c1.095-0.076,1.723,1.357,2.558,2.976c0.835,1.618-0.522,1.514-2.401,0.261
			C17.712,9.422,17.921,7.543,19.435,7.438z"/>
		<path opacity="0.1" fill="#FFFFFF" d="M19.696,8.117C20.124,8.319,20.427,8.9,21,9.788c0.574,0.887-0.835,0.783-1.67-0.104
			C18.495,8.795,18.808,7.7,19.696,8.117z"/>
		<path opacity="0.1" fill="#FFFFFF" d="M28.204,5.403c0.979-0.17,3.237,1.044,3.289,3.184s-0.209,4.489,0.835,5.69
			c1.044,1.2,0.522,1.566-1.827-0.313c-2.349-1.879-3.341-1.983-3.967-4.646C25.907,6.655,27.004,5.612,28.204,5.403z"/>
		<path opacity="0.1" fill="#FFFFFF" d="M28.622,6.342c0.833,0.083,1.932,0.156,2.036,1.827c0.104,1.67-0.104,3.184,0.261,4.228
			c0.365,1.044-0.418,1.41-2.088-0.678c-1.671-2.088-1.827-2.871-1.775-3.863C27.108,6.864,28.1,6.29,28.622,6.342z"/>
		<path opacity="0.1" fill="#FFFFFF" d="M29.248,7.021c0.468,0.046,1.201,0.208,1.148,1.514c-0.052,1.305-0.104,2.767,0.157,3.55
			s-1.357-0.104-2.245-1.932C27.422,8.326,27.683,6.864,29.248,7.021z"/>
		<path opacity="0.1" fill="#FFFFFF" d="M29.145,7.438c0.544-0.182,0.887,0.208,0.835,1.357c-0.053,1.148,0.365,3.132-0.522,1.828
			C28.57,9.318,27.734,7.908,29.145,7.438z"/>
		<path opacity="0.05" fill="#FFFFFF" d="M11.605,21.48c0.354-0.642,1.67-1.096,2.244-0.417c0.574,0.678-0.156,2.349,0.835,3.34
			c0.992,0.992-0.104,2.088-1.723,1.357S10.77,22.994,11.605,21.48z"/>
		<path opacity="0.05" fill="#FFFFFF" d="M12.44,21.271c0.384-0.411,1.201,0.261,1.148,0.94c-0.052,0.678-0.261,1.409,0.261,2.036
			c0.522,0.626-0.574,1.096-1.461,0.104S11.709,22.055,12.44,21.271z"/>
		<path opacity="0.05" fill="#FFFFFF" d="M12.649,21.741c0.275-0.157,0.783,0,0.626,0.731c-0.156,0.731-0.313,0.783-0.052,1.305
			c0.261,0.522-0.626,0.574-0.888-0.261C12.075,22.681,12.283,21.95,12.649,21.741z"/>
		<path opacity="0.05" fill="#FFFFFF" d="M11.187,13.024c0.421-0.421,2.454-1.253,1.932,0.365c-0.522,1.619-0.574,3.498-0.209,4.803
			c0.365,1.305-2.453,0.521-2.767-1.619C9.83,14.434,10.822,13.389,11.187,13.024z"/>
		<path opacity="0.05" fill="#FFFFFF" d="M11.657,13.285c0.475-0.412,0.992-0.157,0.626,0.939c-0.365,1.096-0.313,2.245,0.052,3.236
			s-1.514,0.417-1.723-1.096S10.874,13.963,11.657,13.285z"/>
		<path opacity="0.05" fill="#FFFFFF" d="M8.055,12.241c0.659-0.445,2.714-0.574,1.67,0.522c-1.044,1.097-1.41,3.289-0.626,5.638
			c0.783,2.349,0.261,3.236,0.052,4.489c-0.209,1.253,0.365,3.445,2.297,4.229c1.931,0.783-2.297,2.088-4.229,0.679
			c-1.931-1.41-2.296-4.855-0.887-6.734c1.409-1.879-0.37-2.513-0.522-4.072C5.602,14.851,6.124,13.546,8.055,12.241z"/>
		<path opacity="0.05" fill="#FFFFFF" d="M6.698,14.12c0.376-0.565,0.992-1.357,1.932-1.514c0.939-0.157-1.462,1.827-0.47,4.75
			c0.992,2.923,0.887,3.602,0.313,5.22s0.313,3.654,1.201,4.384c0.887,0.731-2.245,1.148-3.132-1.356
			c-0.888-2.506,0.574-3.707,0.887-4.542c0.313-0.835-0.209-2.036-0.626-2.819C6.385,17.461,5.654,15.686,6.698,14.12z"/>
		<path opacity="0.05" fill="#FFFFFF" d="M6.75,14.747c0.219-0.956,1.044-0.887,0.783,0S7.22,16.625,7.794,17.67
			C8.368,18.713,6.02,17.931,6.75,14.747z"/>
		<path opacity="0.05" fill="#FFFFFF" d="M6.907,22.994c0.303-0.607,1.305-1.514,1.096-0.104c-0.208,1.41,0.104,2.558,0.679,3.445
			c0.574,0.888-0.522,0.522-1.357-0.209C6.489,25.396,6.542,23.725,6.907,22.994z"/>
		<path opacity="0.2" fill="#FFFFFF" d="M37.131,20.697c0.757,0.416,1.723,1.409,2.036,2.088c0.313,0.678,2.923,0.313,3.235,2.975
			c0.313,2.662-0.887,5.585-3.027,5.69c-2.14,0.104-4.437-1.619-4.071-4.855c0.365-3.236-1.932-4.437-3.132-6.16
			c-1.201-1.723-3.341-4.019-3.968-4.541c-0.626-0.522,1.775,0.209,3.706,1.775c1.932,1.566,2.977,2.245,2.977,1.305
			c0-0.94-0.053-1.775-0.21-2.297c-0.156-0.522,0.783,0.052,1.253,1.043S36.087,20.123,37.131,20.697z"/>
		<path opacity="0.2" fill="#FFFFFF" d="M39.479,23.464c0.813,0.325,2.245,1.148,2.088,3.289c-0.156,2.14-1.879,4.28-3.967,3.288
			c-2.088-0.991-1.671-2.714-1.514-3.862c0.156-1.148,0.156-2.715-1.253-4.124c-1.409-1.41-3.445-3.185-4.072-4.072
			c-0.626-0.887-0.469-1.357,1.515,0.418c1.983,1.774,3.027,1.357,3.027,0.626s0.47-0.626,0.783,0.574
			c0.313,1.201,0.783,1.618,1.514,2.088S38.696,23.151,39.479,23.464z"/>
		<path opacity="0.2" fill="#FFFFFF" d="M38.696,24.09c0.792,0.373,1.983,0.887,1.618,2.663c-0.365,1.774-1.774,2.871-2.818,1.565
			c-1.044-1.305-0.73-1.879-0.836-3.445c-0.104-1.566-0.73-2.401-1.931-3.602s-0.261-1.357,1.044-0.104
			C37.078,22.42,37.809,23.672,38.696,24.09z"/>
		<path opacity="0.2" fill="#FFFFFF" d="M38.331,24.717c0.491,0.441,1.306,0.783,1.097,1.67c-0.209,0.888-1.462,2.559-1.88,0.836
			c-0.417-1.723-0.417-2.192-0.626-3.028C36.713,23.36,37.809,24.247,38.331,24.717z"/>
		<path opacity="0.2" fill="#FFFFFF" d="M27.734,33.068c0.643,0.678,2.141,1.201,2.245-1.409c0.104-2.609,3.185-1.931,3.445,2.036
			s-4.438,6.942-7.883,5.586c-3.445-1.357-5.22-4.542-5.22-5.064c0-0.521,0.574-0.626,1.357-0.208
			c0.783,0.417,0.313-1.044-0.73-2.61c-1.044-1.566-1.618-3.08,0.73-1.096C24.028,32.286,25.907,31.138,27.734,33.068z"/>
		<path opacity="0.2" fill="#FFFFFF" d="M26.378,32.912c0.517,0.633,1.044,0.836,1.774,1.201s1.514,0.261,2.035-1.148
			c0.522-1.41,2.245-0.939,1.984,1.617c-0.262,2.559-3.236,4.594-6.63,3.394c-3.393-1.2-3.654-2.976-3.236-3.288
			c0.417-0.313,0.574-1.097,0.104-2.036s0.522-1.148,1.357-0.574C24.603,32.651,25.907,32.338,26.378,32.912z"/>
		<path opacity="0.2" fill="#FFFFFF" d="M24.864,33.277c0.421,0.394,1.201-0.052,1.67,0.574c0.47,0.627,1.879,1.41,3.079,0.627
			c1.201-0.783,2.193-0.104,1.306,1.305s-3.445,2.088-5.69,1.148s-2.14-1.305-2.088-2.506
			C23.193,33.226,24.081,32.547,24.864,33.277z"/>
		<path opacity="0.2" fill="#FFFFFF" d="M25.229,34.27c0.501,0.146,0.835,0,1.566,0.521c0.73,0.522,1.462,0.836,2.401,0.471
			c0.939-0.366,1.723,0.521-0.157,1.2c-1.879,0.679-3.549,0.104-4.489-0.783C23.611,34.791,24.341,34.009,25.229,34.27z"/>
		<path opacity="0.4" fill="#FFFFFF" d="M37.639,36.836c-0.736,0.672-1.202,1.445-1.302,2.052c-0.042-0.614,0.411-1.49,1.211-2.222
			c0.929-0.849,2.008-1.218,2.588-0.928C39.512,35.619,38.521,36.029,37.639,36.836z"/>
	</g>
	<g>
		
			<radialGradient id="SVGID_9_" cx="93.6875" cy="96.6729" r="11.9074" gradientTransform="matrix(-0.7071 -0.7071 -0.7071 0.7071 150.2721 35.3564)" gradientUnits="userSpaceOnUse">
			<stop  offset="0.0056" style="stop-color:#FFF0C7"/>
			<stop  offset="1" style="stop-color:#E69A0A"/>
		</radialGradient>
		<path fill="url(#SVGID_9_)" d="M9.954,33.262c0.438,1.509,0.34-1.994,2.553-1.143c1.755,0.675,5.238,1.545,8.569,1.197
			c-0.334,3.456-1.043,6.929-2.49,8.773c0,0-3.38,1.629-7.636-2.627c-3.386-3.385-2.032-7.076-1.189-8.739
			C9.703,31.298,9.669,32.284,9.954,33.262z"/>
		
			<radialGradient id="SVGID_10_" cx="99.5088" cy="84.5391" r="15.0558" gradientTransform="matrix(-0.7071 -0.7071 -0.7071 0.7071 150.2721 35.3564)" gradientUnits="userSpaceOnUse">
			<stop  offset="0" style="stop-color:#88B300"/>
			<stop  offset="1" style="stop-color:#004C00"/>
		</radialGradient>
		<path fill="url(#SVGID_10_)" d="M12.164,19.202c0.139-0.661,0.462-1.291,0.976-1.805c1.405-1.406,3.685-1.405,5.091,0
			c0.459,0.459,0.765,1.012,0.924,1.596l1.111,0.846l0.997,3.575c0,0,0.296,4.935-0.185,9.903c-3.332,0.348-6.814-0.522-8.569-1.197
			c-2.213-0.852-2.116,2.651-2.553,1.143c-0.285-0.978-0.251-1.964-0.192-2.538c0.216-0.427,0.4-0.722,0.459-0.841
			c0.283-0.564,1.45-2.832,0.188-3.884c-0.325-0.167-0.63-0.385-0.902-0.656c-1.406-1.407-1.406-3.686,0-5.092
			C10.238,19.52,11.206,19.173,12.164,19.202z"/>
		
			<radialGradient id="SVGID_11_" cx="97.5645" cy="100.0195" r="8.908" gradientTransform="matrix(-0.7071 -0.7071 -0.7071 0.7071 150.2721 35.3564)" gradientUnits="userSpaceOnUse">
			<stop  offset="0.0056" style="stop-color:#FFF0C7"/>
			<stop  offset="1" style="stop-color:#FFCA0A"/>
		</radialGradient>
		<path fill="url(#SVGID_11_)" d="M12.482,31.268c0.243,1.703,0.851,0.852,1.605-4.134c0.754-4.985,0.632-0.876,0.632,1.313
			c0,2.188,0.122,4.256,0.657,3.234c0.535-1.021,0.341-2.676,0.948-1.191c0.608,1.483-0.559,2.115-0.243,3.064
			c0.316,0.948-0.365,3.672,1.24,1.774c1.605-1.896,2.115-4.45,2.115-4.45l3.015,1.096c-1.056,4.484-2.491,9.078-3.866,10.115
			c0,0-3.21,1.25-6.615-2.805c-2.738-3.259-0.968-7.291,0.032-9.186C12.146,30.09,12.342,30.286,12.482,31.268z"/>
		<path opacity="0.4" fill="#006000" d="M17.682,18.139c0,0-2.694-0.855-3.765,3.135c0,0-2.529,0.778-2.529,2.577
			s0.949,2.7,0.949,2.7s0.656,0.996,0.17,1.872c-0.487,0.875-1.411,3.843-1.411,3.843s1.03-2.44,1.427-3.129
			c0.397-0.689,0.883-1.565,0.032-2.757s-1.119-2.286-0.462-3.332c0.657-1.045,2.229-1.31,2.229-1.31S14.248,18.701,17.682,18.139z"
			/>
		
			<radialGradient id="SVGID_12_" cx="98.1855" cy="81.6367" r="14.0696" gradientTransform="matrix(-0.7071 -0.7071 -0.7071 0.7071 150.2721 35.3564)" gradientUnits="userSpaceOnUse">
			<stop  offset="0" style="stop-color:#88B300"/>
			<stop  offset="1" style="stop-color:#004C00"/>
		</radialGradient>
		<path fill="url(#SVGID_12_)" d="M15.376,19.181c0.641-0.642,1.466-0.987,2.305-1.042c0.072-0.497,0.296-0.976,0.678-1.357
			c0.94-0.939,2.465-0.939,3.405,0c0.911,0.911,0.936,2.367,0.083,3.314c0.926,0.649,1.93,1.66,2.187,2.393
			c0.171,0.49-0.509,4.932-1.582,9.486l-3.015-1.096c0,0-0.51,2.554-2.115,4.45c-1.605,1.897-0.924-0.826-1.24-1.774
			c-0.316-0.949,0.851-1.581,0.243-3.064c-0.607-1.484-0.414,0.17-0.948,1.191c-0.535,1.021-0.656-1.046-0.657-3.234
			c0-2.189,0.122-6.299-0.632-1.313c-0.754,4.985-1.362,5.837-1.605,4.134c-0.14-0.981-0.337-1.178-0.479-1.168
			c0.245-0.462,0.443-0.798,0.52-0.963c0.374-0.812,0.932-1.467-0.066-2.859c-1.012-1.049-1.002-2.72,0.034-3.756
			c0.507-0.507,1.167-0.767,1.832-0.783C14.319,20.814,14.67,19.887,15.376,19.181z"/>
		<path opacity="0.2" fill="#006000" d="M19.292,31.561c0,0-1.653-3.114-3.015-4.426c-1.362-1.314-1.508-3.454-0.438-5.011
			c1.07-1.556,2.602-1.483,2.602-1.483s0.219-3.721,3.721-3.38c0,0-2.966,0.43-3.234,3.595c0,0-3.406,0.321-3.405,3.384
			C15.522,27.304,18.562,27.961,19.292,31.561z"/>
		<path fill="none" d="M28.822,31.332c-0.037-0.126-0.074-0.248-0.111-0.365C28.728,31.007,28.778,31.134,28.822,31.332z"/>
		
			<radialGradient id="SVGID_13_" cx="83.9111" cy="88.4199" r="10.2555" gradientTransform="matrix(-0.7071 -0.7071 -0.7071 0.7071 150.2721 35.3564)" gradientUnits="userSpaceOnUse">
			<stop  offset="0.0056" style="stop-color:#FFF0C7"/>
			<stop  offset="1" style="stop-color:#FFD721"/>
		</radialGradient>
		<path fill="url(#SVGID_13_)" d="M22.308,35.354c0.316-0.559,0.049-1.459-0.583-2.771c-0.632-1.314-0.219-2.895,0.194-1.606
			c0.414,1.29,1.143,1.776,1.143,1.776c0.876-1.801-0.316-6.688,0.779-5.983c1.094,0.706,1.848,5.302,1.848,5.302
			c1.337-1.338,0.998-2.213,1.386-1.58c0.389,0.632,0.292,1.507,0,2.043c-0.292,0.535-0.899,0.899-0.56,1.774
			c0.341,0.876-0.146,1.751-0.146,1.751c2.704-1.995,2.635-3.932,2.454-4.727c0.686,2.337,1.071,6.28-1.627,9.25
			c-3.38,3.722-8.609,1.508-8.609,1.508s2.645-4.215,1.028-9.604l0.018-0.001C21.189,33.311,21.991,35.913,22.308,35.354z"/>
		
			<radialGradient id="SVGID_14_" cx="94.96" cy="80.7285" r="13.5277" gradientTransform="matrix(-0.7071 -0.7071 -0.7071 0.7071 150.2721 35.3564)" gradientUnits="userSpaceOnUse">
			<stop  offset="0" style="stop-color:#CDCF00"/>
			<stop  offset="1" style="stop-color:#007200"/>
		</radialGradient>
		<path fill="url(#SVGID_14_)" d="M19.98,18.338c1.406-1.406,3.686-1.406,5.091,0c0.775,0.775,1.12,1.815,1.041,2.828
			c0.974-0.043,1.962,0.303,2.704,1.047c1.406,1.406,1.406,3.686,0,5.09c-0.09,0.091-0.184,0.175-0.281,0.254
			c-0.345,0.376-0.817,1.17-0.245,2.349c0.13,0.268,0.275,0.621,0.415,1.043l-0.002,0.002c0,0,0.004,0.007,0.008,0.016
			c0.037,0.117,0.074,0.239,0.111,0.365c0.181,0.795,0.25,2.731-2.454,4.727c0,0,0.487-0.875,0.146-1.751
			c-0.34-0.875,0.268-1.239,0.56-1.774c0.292-0.536,0.389-1.411,0-2.043c-0.389-0.633-0.049,0.242-1.386,1.58
			c0,0-0.754-4.596-1.848-5.302c-1.095-0.704,0.098,4.183-0.779,5.983c0,0-0.729-0.486-1.143-1.776
			c-0.413-1.288-0.827,0.292-0.194,1.606c0.632,1.313,0.9,2.213,0.583,2.771c-0.316,0.56-1.119-2.043-2.675-2.869l-0.018,0.001
			c-0.523-1.741-1.488-3.604-3.135-5.489c0,0-0.245-0.213-0.43-0.522c-0.955-1.401-0.813-3.326,0.429-4.569
			c0.678-0.678,1.56-1.025,2.449-1.049C18.935,19.944,19.285,19.034,19.98,18.338z"/>
		<path fill="none" stroke="#FF0000" stroke-width="0.25" d="M28.705,30.949c0.002,0.006,0.003,0.012,0.006,0.018
			c-0.004-0.009-0.008-0.016-0.008-0.016L28.705,30.949z"/>
		
			<radialGradient id="SVGID_15_" cx="86.3887" cy="98.0498" r="4.8055" gradientTransform="matrix(-0.7071 -0.7071 -0.7071 0.7071 150.2721 35.3564)" gradientUnits="userSpaceOnUse">
			<stop  offset="0.0056" style="stop-color:#FFD479"/>
			<stop  offset="1" style="stop-color:#D4900A"/>
		</radialGradient>
		<path fill="url(#SVGID_15_)" d="M18.771,41.279c-1.1-0.049-2.016,0.422-2.043,1.054c-0.028,0.63,0.84,1.181,1.941,1.229
			c1.1,0.05,2.015-0.422,2.042-1.052C20.74,41.879,19.87,41.329,18.771,41.279z"/>
		
			<linearGradient id="SVGID_16_" gradientUnits="userSpaceOnUse" x1="87.9238" y1="101.3008" x2="87.707" y2="95.9525" gradientTransform="matrix(-0.7071 -0.7071 -0.7071 0.7071 150.2721 35.3564)">
			<stop  offset="0.0056" style="stop-color:#FFF0C7"/>
			<stop  offset="1" style="stop-color:#E69A0A"/>
		</linearGradient>
		<path fill="url(#SVGID_16_)" d="M18.795,41.843c-0.939-0.043-1.719,0.312-1.74,0.789c-0.022,0.479,0.723,0.899,1.663,0.94
			c0.939,0.043,1.72-0.312,1.74-0.789C20.48,42.306,19.736,41.884,18.795,41.843z"/>
		<path opacity="0.1" fill="#FFFFFF" d="M20.458,28.738c0.277,0.689,0.244,2.48,0.463,3.235c0.219,0.753-0.997-0.364-1.702-1.946
			c-0.706-1.581-2.918-3.599-2.992-5.423c-0.073-1.824,1.411-2.723,2.213-2.796c0.803-0.073,2.213,1.483,1.484,2.699
			C19.194,25.724,20.167,28.01,20.458,28.738z"/>
		<path opacity="0.1" fill="#FFFFFF" d="M18.635,22.44c0.633-0.042,1.507,0.778,0.949,1.824c-0.56,1.045-0.803,2.165,0.048,3.891
			c0.851,1.728,0.583,2.335,0.754,2.991c0.169,0.656-0.584-0.682-0.9-1.824c-0.316-1.143-2.189-2.82-2.651-4.013
			C16.374,24.118,17.176,22.538,18.635,22.44z"/>
		<path opacity="0.1" fill="#FFFFFF" d="M18.514,22.805c0.456-0.078,1.191,0.852,0.656,1.436c-0.535,0.583-0.875,1.555-0.462,2.407
			c0.414,0.852-0.875,0.049-1.435-1.143C16.714,24.312,17.225,23.023,18.514,22.805z"/>
		<path opacity="0.1" fill="#FFFFFF" d="M18.781,23.364c0.259,0.173,0.316,0.462-0.098,0.973c-0.413,0.511-0.632,0.729-0.535,1.313
			c0.097,0.584-0.949-0.413-0.802-1.337C17.492,23.389,18.343,23.073,18.781,23.364z"/>
		<path opacity="0.1" fill="#FFFFFF" d="M24.083,18.5c0.494,0.298,1.557,1.557,1.07,2.821c-0.486,1.265-1.435,2.991-1.581,3.964
			c-0.146,0.972-1.24,0.365-1.556-1.849c-0.317-2.213-0.949-3.185-0.755-4.11C21.457,18.403,22.624,17.625,24.083,18.5z"/>
		<path opacity="0.1" fill="#FFFFFF" d="M24.131,19.181c0.595,0.488,0.632,1.605,0.17,2.895c-0.462,1.289-0.949,3.185-1.678,0.997
			c-0.729-2.188-1.41-3.162-0.559-3.916C22.916,18.403,23.596,18.744,24.131,19.181z"/>
		<path opacity="0.1" fill="#FFFFFF" d="M23.986,19.717c0.545,0.475,0.17,1.435-0.195,2.577c-0.365,1.143-0.949,0.462-1.24-0.997
			C22.259,19.838,23.231,19.06,23.986,19.717z"/>
		<path opacity="0.1" fill="#FFFFFF" d="M23.791,20.154c0.105,0.293-0.023,0.705-0.169,1.386c-0.146,0.681-0.754-0.024-0.73-0.827
			C22.916,19.911,23.572,19.546,23.791,20.154z"/>
		<path opacity="0.1" fill="#FFFFFF" d="M29.02,22.854c0.535,0.377,1.021,1.994,0.049,3.016c-0.973,1.021-2.189,1.994-2.262,3.04
			s-0.486,0.974-0.705-0.997c-0.219-1.97-0.632-2.481,0.316-4.013C27.366,22.367,28.363,22.391,29.02,22.854z"/>
		<path opacity="0.1" fill="#FFFFFF" d="M28.776,23.486c0.35,0.427,0.827,0.973,0.098,1.8c-0.729,0.826-1.532,1.434-1.849,2.091
			s-0.851,0.462-0.656-1.289c0.194-1.75,0.486-2.188,0.973-2.626C27.828,23.024,28.558,23.218,28.776,23.486z"/>
		<path opacity="0.1" fill="#FFFFFF" d="M28.753,24.094c0.195,0.24,0.462,0.657-0.171,1.241c-0.632,0.584-1.338,1.241-1.581,1.726
			c-0.243,0.486-0.583-0.681-0.146-1.945S28.096,23.292,28.753,24.094z"/>
		<path opacity="0.1" fill="#FFFFFF" d="M28.509,24.241c0.339,0.168,0.316,0.51-0.243,1.02c-0.56,0.512-1.289,1.63-1.094,0.609
			C27.365,24.848,27.633,23.801,28.509,24.241z"/>
		<path opacity="0.05" fill="#FFFFFF" d="M13.795,22.611c0.465-0.135,1.289,0.267,1.241,0.851s-1.167,1.022-1.167,1.946
			c0,0.925-1.021,0.925-1.435-0.171C12.02,24.143,12.702,22.926,13.795,22.611z"/>
		<path opacity="0.05" fill="#FFFFFF" d="M14.282,22.902c0.37-0.012,0.438,0.681,0.097,0.974c-0.34,0.292-0.778,0.535-0.827,1.07
			c-0.049,0.535-0.778,0.243-0.73-0.632C12.872,23.438,13.577,22.926,14.282,22.902z"/>
		<path opacity="0.05" fill="#FFFFFF" d="M14.161,23.218c0.202,0.055,0.365,0.365-0.049,0.632s-0.511,0.218-0.632,0.584
			c-0.122,0.365-0.559-0.024-0.292-0.535C13.456,23.388,13.893,23.145,14.161,23.218z"/>
		<path opacity="0.05" fill="#FFFFFF" d="M17.541,18.477c0.392,0,1.727,0.559,0.729,1.07c-0.997,0.511-1.896,1.362-2.334,2.14
			c-0.438,0.778-1.387-0.9-0.535-2.042C16.252,18.5,17.2,18.477,17.541,18.477z"/>
		<path opacity="0.05" fill="#FFFFFF" d="M17.638,18.816c0.413,0.03,0.535,0.389-0.146,0.729c-0.681,0.341-1.192,0.9-1.483,1.533
			s-0.9-0.511-0.292-1.313C16.325,18.962,16.957,18.768,17.638,18.816z"/>
		<path opacity="0.05" fill="#FFFFFF" d="M16.447,16.652c0.514,0.1,1.532,0.998,0.534,1.022c-0.996,0.024-2.188,0.875-2.917,2.334
			c-0.73,1.459-1.387,1.629-2.067,2.115c-0.681,0.487-1.435,1.776-0.9,3.042c0.535,1.264-2.042-0.098-2.286-1.655
			s1.191-3.332,2.724-3.551s0.999-1.343,1.654-2.14C14.088,16.725,14.939,16.361,16.447,16.652z"/>
		<path opacity="0.05" fill="#FFFFFF" d="M14.938,16.896c0.438-0.088,1.095-0.17,1.605,0.194c0.51,0.366-1.533,0.17-2.432,1.994
			c-0.9,1.825-1.265,2.091-2.286,2.579c-1.021,0.486-1.557,1.848-1.484,2.602c0.073,0.754-1.581-0.511-0.827-2.091
			c0.754-1.581,1.994-1.459,2.53-1.702c0.534-0.243,0.851-1.046,1.021-1.605C13.236,18.306,13.723,17.139,14.938,16.896z"/>
		<path opacity="0.05" fill="#FFFFFF" d="M14.671,17.211c0.547-0.343,0.899,0.072,0.365,0.365c-0.535,0.291-1.021,0.729-1.24,1.483
			C13.577,19.814,12.847,18.355,14.671,17.211z"/>
		<path opacity="0.05" fill="#FFFFFF" d="M10.902,21.127c0.424-0.143,1.313-0.098,0.56,0.461c-0.755,0.56-1.144,1.24-1.289,1.921
			c-0.146,0.681-0.486,0-0.536-0.729C9.588,22.051,10.391,21.297,10.902,21.127z"/>
		<path opacity="0.2" fill="#FFFFFF" d="M26.053,34.139c0.159,0.546,0.146,1.459-0.024,1.92c-0.17,0.463,1.216,1.509,0.122,2.895
			c-1.095,1.387-3.016,2.188-4.062,1.241c-1.046-0.949-1.313-2.822,0.365-4.16c1.678-1.337,1.167-2.966,1.411-4.328
			c0.243-1.361,0.317-3.429,0.268-3.964c-0.048-0.535,0.729,0.924,0.9,2.553c0.17,1.63,0.34,2.433,0.778,1.995
			c0.438-0.438,0.803-0.852,0.973-1.168c0.17-0.315,0.341,0.389,0.097,1.07C26.636,32.873,25.834,33.384,26.053,34.139z"/>
		<path opacity="0.2" fill="#FFFFFF" d="M25.858,36.521c0.227,0.529,0.51,1.58-0.56,2.505c-1.07,0.923-2.87,1.118-3.38-0.316
			s0.486-2.044,1.094-2.505c0.608-0.463,1.338-1.191,1.338-2.506c0-1.313-0.122-3.088,0-3.793c0.121-0.705,0.413-0.852,0.51,0.9
			c0.098,1.75,0.779,2.042,1.119,1.702c0.341-0.341,0.511-0.073,0.098,0.632c-0.414,0.705-0.389,1.119-0.268,1.678
			C25.931,35.378,25.64,36.011,25.858,36.521z"/>
		<path opacity="0.2" fill="#FFFFFF" d="M25.202,36.448c0.195,0.542,0.51,1.337-0.486,1.995c-0.997,0.655-2.165,0.51-2.043-0.584
			c0.123-1.095,0.535-1.217,1.216-1.994c0.681-0.779,0.778-1.46,0.778-2.578c0-1.119,0.51-0.754,0.535,0.438
			C25.225,34.916,24.983,35.84,25.202,36.448z"/>
		<path opacity="0.2" fill="#FFFFFF" d="M24.739,36.569c0.023,0.435,0.243,0.974-0.267,1.289c-0.511,0.316-1.873,0.511-1.265-0.486
			c0.607-0.997,0.827-1.216,1.119-1.702C24.618,35.184,24.715,36.107,24.739,36.569z"/>
		<path opacity="0.2" fill="#FFFFFF" d="M15.911,35.523c-0.017,0.616,0.438,1.558,1.703,0.39c1.265-1.167,2.383,0.584,0.656,2.554
			c-1.726,1.97-5.301,1.167-6.274-1.07c-0.972-2.237-0.316-4.548-0.072-4.791c0.243-0.243,0.56-0.024,0.729,0.535
			c0.17,0.56,0.633-0.341,0.876-1.557c0.244-1.216,0.681-2.188,0.851-0.17C14.549,33.433,15.96,33.773,15.911,35.523z"/>
		<path opacity="0.2" fill="#FFFFFF" d="M15.352,34.818c-0.053,0.536,0.098,0.876,0.268,1.387c0.17,0.511,0.583,0.827,1.483,0.413
			c0.899-0.413,1.483,0.608,0.169,1.678c-1.313,1.071-3.647,0.632-4.668-1.508c-1.022-2.14-0.317-3.088,0.024-3.039
			c0.34,0.048,0.778-0.244,0.998-0.9c0.219-0.656,0.778-0.291,0.899,0.365C14.647,33.87,15.401,34.332,15.352,34.818z"/>
		<path opacity="0.2" fill="#FFFFFF" d="M14.477,34.283c0.013,0.38,0.583,0.535,0.51,1.046c-0.073,0.511,0.219,1.532,1.143,1.728
			c0.924,0.195,1.07,0.973,0,1.215c-1.07,0.244-2.578-0.632-3.186-2.115c-0.608-1.484-0.39-1.604,0.194-2.141
			C13.723,33.481,14.452,33.578,14.477,34.283z"/>
		<path opacity="0.2" fill="#FFFFFF" d="M14.185,34.916c0.165,0.302,0.389,0.39,0.487,0.973c0.097,0.584,0.292,1.07,0.899,1.338
			s0.56,1.045-0.632,0.486c-1.191-0.56-1.702-1.605-1.726-2.457C13.188,34.405,13.893,34.381,14.185,34.916z"/>
		<path opacity="0.4" fill="#FFFFFF" d="M18.771,41.893c-0.656-0.029-1.234,0.115-1.563,0.35c0.267-0.305,0.886-0.502,1.6-0.47
			c0.827,0.036,1.502,0.368,1.638,0.772C20.21,42.199,19.558,41.928,18.771,41.893z"/>
	</g>
</g>
</svg>
