<?xml version="1.0" encoding="utf-8"?>
<!-- Generator: Adobe Illustrator 15.0.0, SVG Export Plug-In . SVG Version: 6.00 Build 0)  -->
<!DOCTYPE svg PUBLIC "-//W3C//DTD SVG 1.1//EN" "http://www.w3.org/Graphics/SVG/1.1/DTD/svg11.dtd">
<svg version="1.1" id="Layer_1" xmlns="http://www.w3.org/2000/svg" xmlns:xlink="http://www.w3.org/1999/xlink" x="0px" y="0px"
	 width="50px" height="50px" viewBox="0 0 50 50" enable-background="new 0 0 50 50" xml:space="preserve">
<g>
	<g>
		
			<linearGradient id="SVGID_1_" gradientUnits="userSpaceOnUse" x1="72.6914" y1="-260.833" x2="82.7666" y2="-260.833" gradientTransform="matrix(-0.3074 1.0077 -1.1047 -0.337 -225.0676 -136.0876)">
			<stop  offset="0.0112" style="stop-color:#00DE3A"/>
			<stop  offset="0.9944" style="stop-color:#007F13"/>
		</linearGradient>
		<path fill="url(#SVGID_1_)" d="M32.264,30.251l4.794-1.049c0,0-3.252-2.875-0.348-4.5c2.903-1.625,2.798,2.109,2.798,2.109
			s2.223-2.774,4.128,0.004c1.904,2.779-3.08,2.199-3.08,2.199s6.228-1.238,5.176,2.208c-1.051,3.445-4.478,1.145-4.478,1.145
			s3.864,0.864,2.358,3.545c-1.506,2.68-5.945-3.069-5.945-3.069l-4.53,0.187L32.264,30.251z"/>
		
			<linearGradient id="SVGID_2_" gradientUnits="userSpaceOnUse" x1="88.7822" y1="-251.4131" x2="108.1699" y2="-251.4131" gradientTransform="matrix(-0.2918 0.9565 -0.9565 -0.2918 -191.354 -133.2829)">
			<stop  offset="0.0112" style="stop-color:#FF6000"/>
			<stop  offset="0.9944" style="stop-color:#FF9005"/>
		</linearGradient>
		<path fill="url(#SVGID_2_)" d="M30.557,27.25c0,0,6.981,1.534,4.357,8.182c-2.625,6.648-29.092,4.531-29.092,4.531
			S3.998,39.107,4.58,37.2C5.162,35.292,18.407,28.012,30.557,27.25z"/>
		<polygon fill="#993300" points="31.296,38.499 28.751,34.147 29.684,38.9 		"/>
		<polygon fill="#993300" points="23.729,28.146 26.154,34.845 22.935,28.797 		"/>
		<polygon fill="#993300" points="23.128,39.88 20.726,34.082 21.872,40.092 		"/>
		<polygon fill="#993300" points="16.485,30.404 18.744,37.648 15.903,32.313 17.344,39.307 14.707,31.352 		"/>
		<polygon fill="#993300" points="12.045,40.074 11.135,36.221 11.228,39.824 		"/>
		
			<linearGradient id="SVGID_3_" gradientUnits="userSpaceOnUse" x1="-212.5845" y1="11.9902" x2="-201.9834" y2="11.9902" gradientTransform="matrix(-1 0 0 1 -184.2969 0)">
			<stop  offset="0.0112" style="stop-color:#00DE3A"/>
			<stop  offset="0.9944" style="stop-color:#007F13"/>
		</linearGradient>
		<path fill="url(#SVGID_3_)" d="M20.866,17.689l2.398-3.705c0,0,1.8,3.419,4.199,1.425c2.399-1.995-1.199-2.85-1.199-2.85
			s3.298-1.14,1.199-3.419s-2.999,1.995-2.999,1.995s2.999-4.844-0.6-4.844c-3.599,0-2.399,3.419-2.399,3.419s0.3-3.419-2.699-2.85
			s1.199,5.699,1.199,5.699l-1.5,3.705L20.866,17.689z"/>
		
			<linearGradient id="SVGID_4_" gradientUnits="userSpaceOnUse" x1="-207.5371" y1="28.3223" x2="-188.1494" y2="28.3223" gradientTransform="matrix(-1 0 0 1 -184.2969 0)">
			<stop  offset="0.0112" style="stop-color:#FF6000"/>
			<stop  offset="0.9944" style="stop-color:#FF9005"/>
		</linearGradient>
		<path fill="url(#SVGID_4_)" d="M23.229,20.645c0,0,0.57-7.124-6.554-6.554C9.551,14.66,3.853,40.592,3.853,40.592
			s0.284,1.995,2.278,1.995C8.127,42.587,18.955,32.044,23.229,20.645z"/>
		<polygon fill="#993300" points="12.686,16.655 16.105,20.359 11.831,18.08 		"/>
		<polygon fill="#993300" points="20.38,26.914 14.681,22.639 19.525,27.483 		"/>
		<polygon fill="#993300" points="8.981,24.064 13.826,28.054 8.411,25.204 		"/>
		<polygon fill="#993300" points="16.105,33.184 9.836,28.908 14.111,33.184 7.841,29.764 14.681,34.607 		"/>
		<polygon fill="#993300" points="5.562,34.607 8.981,36.604 5.562,35.463 		"/>
	</g>
	<path opacity="0.25" fill="#FFFFFF" d="M20.346,16.127c0,0-5.805-5.013-10.027,6.86c0,0-0.923,2.243,1.056,1.979
		c1.979-0.264,0.792-5.673,5.013-7.256C20.609,16.127,19.686,18.897,20.346,16.127z"/>
	<path opacity="0.25" fill="#FFFFFF" d="M32.879,29.98c0,0-1.056-1.979-3.298-1.979c-2.243,0-8.84,1.979-8.84,1.979
		s-0.396,1.583,1.583,1.583c1.979,0,6.069-1.847,8.311-1.583C30.636,29.98,32.879,31.563,32.879,29.98z"/>
</g>
</svg>
