<?xml version="1.0" encoding="utf-8"?>
<!-- Generator: Adobe Illustrator 15.0.0, SVG Export Plug-In . SVG Version: 6.00 Build 0)  -->
<!DOCTYPE svg PUBLIC "-//W3C//DTD SVG 1.1//EN" "http://www.w3.org/Graphics/SVG/1.1/DTD/svg11.dtd">
<svg version="1.1" id="Layer_1" xmlns="http://www.w3.org/2000/svg" xmlns:xlink="http://www.w3.org/1999/xlink" x="0px" y="0px"
	 width="50px" height="50px" viewBox="0 0 50 50" enable-background="new 0 0 50 50" xml:space="preserve">
<g id="XMLID_2_">
	<g>
		<path fill="#1FD642" d="M25.73,14.75c0.1,0.25,0.3,0.41,0.35,0.7c-0.64,1.32-1.61,1.87-2.7,2.7c-0.09,0.01-0.09-0.05-0.15-0.05
			c-0.29,0.44-0.81,0.53-1.31,0.75c-0.79,0.35-1.4,0.87-2.5,0.95c-0.06,0.05-0.06,0.17-0.15,0.2c-0.7,0.12-1.53,0.39-2.29,0.15
			c-0.03-0.2-0.02-0.26-0.31-0.25c-0.01-0.49-0.46-0.82-0.55-1.4c0.32-0.09,0.66-0.09,1.05-0.2c0.26-0.07,0.5-0.22,0.75-0.3
			c0.2-0.06,0.42-0.04,0.6-0.1c0.09-0.03,0.17-0.12,0.25-0.15c0.31-0.09,0.65-0.09,0.96-0.2c0.76-0.27,1.53-0.83,2.29-1.2
			c0.14-0.07,0.29-0.09,0.4-0.15c1.1-0.56,2.23-1.39,2.96-2.4c0.24,0.21,0.21,0.51,0.29,0.75c0.02,0.04,0.1,0.03,0.1,0.1
			C25.78,14.69,25.73,14.77,25.73,14.75z M17.48,20.05c-0.08,0.03-0.26-0.06-0.25,0.05C17.3,20.07,17.48,20.16,17.48,20.05z"/>
		<path fill="#1FD642" d="M33.72,33.3c0.03,0.101-0.22,0.07-0.14-0.05c-0.15,0.05,0.01,0.21,0,0.3c-0.08,0.16-0.01-0.22-0.2-0.1
			c0.04,0.069,0.04,0.189,0.15,0.2c-0.181,0.06-0.061,0.13-0.2,0.149c0.16,0.061,0.01,0.24-0.11,0.3c-0.01,0.091,0.13,0,0.16-0.04
			c0,0.051-0.09,0.41-0.26,0.341c0.03,0.1,0.13,0.14,0.1,0.3c-0.17,0.13-0.149,0.229-0.14,0.399c-0.29,0.011-0.15,0.53-0.46,0.65
			c0.03,0.04,0.06,0.08,0.05,0.15c-0.12,0.029-0.16,0.13-0.29,0.149c0,0.04,0.04,0.05,0.04,0.101c0.22-0.261-0.14,0.489-0.25,0.05
			c0.07,0.06,0.08,0.02,0.16,0c-0.03-0.08-0.16-0.04-0.11-0.2c0.221,0.02,0.04-0.16,0.36-0.2c0-0.08,0-0.17,0-0.25
			c-0.18,0.21-0.05-0.18,0.04-0.2c-0.19-0.04,0.13-0.439,0-0.55c0.17,0.01-0.021-0.13,0.16-0.149c-0.16-0.131,0.279-0.48,0.14-1
			c0.05,0,0.11,0,0.16,0c-0.21-0.07,0.15-0.32-0.11-0.351c0.021-0.069,0.21-0.09,0-0.1c0.15-0.23,0.101-0.34,0.15-0.65
			c0.03,0.021,0.09,0.08,0.1,0.101c0.07-0.051-0.02-0.08,0.11-0.15c0.16-0.08,0.21,0.21,0.29,0.05c0.17,0.021-0.21,0.17,0.05,0.15
			c0.021,0.09-0.08,0.13,0,0.149c0.021,0.091-0.28,0.091-0.2-0.05c-0.06,0.021-0.04,0.13-0.05,0.2c0.05-0.04,0.12-0.05,0.2-0.05
			c0.04,0.109-0.14,0.16,0.05,0.149c0.08-0.149,0.04,0.12-0.09,0.051C33.73,33.21,33.55,33.29,33.72,33.3z"/>
		<path fill="#1FD642" d="M32.83,32.6c0.08-0.01,0.1,0.051,0.05,0.051c0.101,0.46-0.24,0.89-0.55,1.1
			c-0.23,0.01-0.44,0.03-0.55,0.15c0.18,0.1,0.479-0.11,0.75-0.101c0,0.61-0.101,1.271-0.36,1.9c-0.16,0.399-0.42,1-0.7,1.399
			c-0.05,0.08-0.09,0.04-0.09,0.051c-0.149,0.239-0.11,0.409-0.3,0.55c-0.19,0.13-0.561,0.189-0.86,0.3
			c-0.27,0.11-0.529,0.24-0.75,0.3c-0.16,0.05-0.399-0.08-0.5,0.15c0.83,0.01,1.601-0.47,2.36-0.7c-0.08,0.26-0.07,0.55-0.21,0.8
			c-0.01,0.04-0.13,0.07-0.2,0.15c-0.13,0.17-0.1,0.189-0.3,0.35c-0.29,0.26-0.89,0.46-1.54,0.65c-0.69,0.2-1.34,0.46-1.75,0.399
			c-0.97,0.33-1.89,0.53-3.06,0.551c-0.14-0.011,0.01-0.221,0.05-0.301c0.15-0.27,0.4-0.659,0.56-0.85c0.2-0.54,0.38-0.87,0.44-1.6
			c0.03-0.311,0.15-0.591,0.2-0.95c0.05-0.3,0.01-0.97-0.04-1.3c-0.03-0.131-0.04-0.261-0.06-0.4c0-0.03-0.09-0.25,0.06-0.25
			c-0.13-0.19-0.17-0.46-0.25-0.7c-0.08-0.21-0.26-0.42-0.16-0.55c-0.01-0.21,0.19,0.03,0.31,0C27.46,33.76,31.08,33.94,32.83,32.6z
			"/>
		<path fill="#1FD642" d="M25.17,35.55c0.09,0.51,0.14,0.95,0.1,1.7c-0.07,1.46-1.08,2.8-1.79,3.65
			c-0.09,0.01-0.09-0.051-0.16-0.051c-0.06,0.16,0.17,0.04,0.1,0.2c-0.06-0.06-0.07-0.02-0.15,0c-0.25,0.391-0.83,0.79-1.45,0.9
			c-0.36,0.069-0.32,0.08-0.55,0.1c0.21,0.3-0.11-0.06-0.1,0.25c-0.1-0.03-0.1-0.08-0.05-0.149c-0.15-0.051-0.08,0.109-0.1,0.199
			c-0.29-0.189-0.48,0.15-0.7-0.05c-0.05,0.01-0.04,0.09-0.05,0.15c-0.12-0.23-0.34,0.16-0.5-0.101c-0.23,0.32-1.17-0.069-1.65,0
			c0.02-0.069,0.15-0.02,0.15-0.1c-0.29,0.02-0.6-0.08-0.95-0.05c0-0.2-0.02-0.29,0.16-0.2c-0.06-0.07-0.05-0.19-0.16-0.2
			c-0.08,0.11-0.08,0.23-0.05,0.351c-0.05-0.03-0.05-0.11-0.15-0.101c0.02-0.05,0.1-0.03,0.11-0.1c-0.12-0.13-0.36,0.08-0.5,0.2
			c0-0.04,0.04-0.051,0.04-0.101c-0.51,0.13-0.88,0.8-1.15,0.8c-0.01,0.091-0.14,0.381-0.3,0.301c0,0.09,0.07,0.109,0.06,0.199
			c-0.07-0.01-0.1-0.21-0.11,0c-0.06-0.02-0.1-0.06-0.1-0.149c-0.17,0.1-0.01,0.189,0,0.35c-0.13-0.09-0.16-0.01-0.19-0.149
			c-0.03,0.22,0,0.76-0.5,0.75c0,0.05,0.06,0.04,0.09,0.05c-0.05,0.08-0.15,0.12-0.34,0.2c-0.05,0.02-0.03,0.09-0.06,0.1
			c-0.2,0.08-0.52,0.02-0.6,0.15c-0.17-0.08-0.28-0.12-0.19-0.351c0.33-0.05,0.35-0.42,0.69-0.45c0.04-0.239,0.14-0.43,0.35-0.5
			c0.22-1.029,0.7-2.17,0.4-3.5c-0.08-0.409-0.18-0.89-0.3-1.3c-0.09-0.35-0.21-0.93-0.25-1.35c-0.02-0.07-0.07-0.12-0.15-0.15
			c-0.25-1.399-0.02-3.43,0.5-4.2c0.61-0.739,1.12-1.8,1.36-2.75c0.51,0,0.74,0.29,1,0.551c0.1-0.011,0.01-0.221,0.09-0.25
			c-0.13-0.4-0.72-0.351-0.95-0.65c-0.21,0.06-0.3-0.21-0.64-0.35c0.01-0.07,0.08-0.08,0.09-0.15c-0.14,0.15-0.09-0.16-0.19-0.2
			c0.07,0,0.22-0.26,0.19-0.05c0.1-0.1,0.02-0.21,0-0.3c-0.04,0.02-0.08,0.04-0.09,0.1c-0.15-0.06,0.06-0.16,0.14-0.149
			c0.04-0.141-0.23,0.04-0.2-0.101c0.1-0.17,0.09-0.399,0.46-0.399c0.06,0.6,0.4,0.779,1,1.05c0.62,0.28,1.21,0.37,1.79,0.55
			c1.79,0.55,3.89,1.23,4.9,2.3c0.61,0.311,0.84,0.99,1.2,1.55c-0.02,0.131-0.06,0.181,0.05,0.25c0,0.051-0.06,0.04-0.09,0.051
			c0.01,0.069,0.14,0.02,0.15,0.1c0.02,0.11-0.08,0.1-0.15,0.1c-0.14,0.181,0.12,0.301-0.06,0.351c0.02,0.109,0.22-0.01,0.25-0.05
			c-0.08-0.021-0.1-0.141-0.1-0.15c-0.13-0.32,0.39,0.37,0.1,0.2c-0.02,0.109,0.08,0.1,0.15,0.1c-0.02,0.101-0.07,0.11-0.15,0.05
			c-0.05,0.12,0.1,0.07,0.14,0.101c0.01,0.03,0.06,0.14,0.06,0.149C25.16,35.01,25.14,35.33,25.17,35.55z M23.12,34.45
			c0.19-0.13,0.4-0.45,0.3-0.7c-0.18,0.14-0.11-0.05-0.25,0.1c-0.06-0.13-0.07-0.239-0.25-0.149c0.03-0.16-0.24-0.11-0.1-0.25
			c-0.15,0.03-0.2-0.12-0.25,0.05c0.16-0.03-0.09,1.02,0.16,0.65c0.02,0.159-0.02,0.25-0.11,0.3c0.37,0.1,0.17,0.22,0.11,0.3
			c-0.06,0.06-0.57-0.01-0.61,0.14c0-0.05,0-0.08-0.05-0.09c-0.1,0.021-0.58,0.44-0.59,0.101c0,0.029,0.03,0.06,0.04,0
			c-0.07-0.021-0.08-0.061-0.14,0c-0.16-0.431-0.12-0.761-0.36-1.101c-0.15,0.28,0.02,0.48-0.14,0.65c0.08,0.2,0.1,0.399,0.24,0.7
			c0.21,0.409,0.63,1.17,0.86,1.3c0.38,0.229,0.52-0.07,0.69,0.1c0.07-0.17,0.24-0.18,0.31-0.3s0.08-0.44,0.09-0.7
			C23.1,34.99,23.1,34.75,23.12,34.45z M22.57,33.55c-0.2,0.021,0.05-0.13-0.15-0.149c0,0.069,0,0.13,0,0.199
			C22.48,33.59,22.57,33.61,22.57,33.55z M13.92,44.45c0.13-0.061,0.16,0.03,0.2-0.05c-0.07-0.03-0.12-0.07-0.2-0.101
			C13.92,44.35,13.92,44.4,13.92,44.45z"/>
		<path fill="#1FCAFF" d="M34.08,23.85c0.16,0.44,0.4,0.72,0.3,1.15c-0.04,0.12-0.26,0.48-0.5,0.55c-0.17,0.05-0.72-0.06-1.21,0.05
			c-0.46,0.11-0.67,0.419-1.14,0.25c-0.17-0.06-0.25-0.24-0.36-0.2c-0.5-0.89,0.44-2.19,1.25-1.45c0.07-0.08,0.19-0.16,0.2,0
			c0.52-0.21,0.939-0.14,1.21-0.45C33.92,23.77,33.95,23.86,34.08,23.85z"/>
		<path d="M41.88,24c0.14,0.17,0.29,0.5,0.15,0.8c-0.271,0.1-0.49,0.19-0.75,0.05C40.96,24.45,41.21,23.85,41.88,24z M41.38,24.8
			c0.5,0.11,0.74-0.16,0.59-0.6c-0.31-0.13-0.47-0.21-0.689,0.05C41.26,24.48,41.28,24.68,41.38,24.8z"/>
		<path d="M41.38,23.15c0.12,0.15,0.07,0.29-0.05,0.35c0.1-0.1-0.05-0.16,0.05-0.25c-0.22-0.02-0.11,0.15-0.3,0.05
			c0,0.14,0.08,0.21,0.25,0.2c-0.11,0.08-0.271,0.09-0.36-0.05C40.96,23.21,41.2,23.21,41.38,23.15z"/>
		<path d="M40.53,25.6c0.21,0.26,0.05,0.62-0.311,0.6c-0.08-0.11-0.189-0.21-0.189-0.4C40.14,25.68,40.26,25.57,40.53,25.6z
			 M40.17,26c0.13,0.1,0.42,0.04,0.41-0.15c-0.05-0.2-0.25-0.11-0.41-0.05C40.17,25.87,40.17,25.93,40.17,26z"/>
		<path d="M25.06,34.7c-0.04-0.03-0.19,0.02-0.14-0.101c0.08,0.061,0.13,0.051,0.15-0.05c-0.07,0-0.17,0.01-0.15-0.1
			c0.29,0.17-0.23-0.521-0.1-0.2c0,0.01,0.02,0.13,0.1,0.15c-0.03,0.04-0.23,0.159-0.25,0.05c0.18-0.05-0.08-0.17,0.06-0.351
			c0.07,0,0.17,0.011,0.15-0.1c-0.01-0.08-0.14-0.03-0.15-0.1c0.03-0.011,0.09,0,0.09-0.051c-0.11-0.069-0.07-0.119-0.05-0.25
			c-0.36-0.56-0.59-1.239-1.2-1.55c-1.01-1.069-3.11-1.75-4.9-2.3c-0.58-0.18-1.17-0.27-1.79-0.55c-0.6-0.271-0.94-0.45-1-1.05
			c-0.37,0-0.36,0.229-0.46,0.399c-0.03,0.141,0.24-0.04,0.2,0.101c-0.08-0.011-0.29,0.09-0.14,0.149c0.01-0.06,0.05-0.08,0.09-0.1
			c0.02,0.09,0.1,0.2,0,0.3c0.03-0.21-0.12,0.05-0.19,0.05c0.1,0.04,0.05,0.351,0.19,0.2c-0.01,0.07-0.08,0.08-0.09,0.15
			c0.34,0.14,0.43,0.409,0.64,0.35c0.23,0.3,0.82,0.25,0.95,0.65c-0.08,0.029,0.01,0.239-0.09,0.25c-0.26-0.261-0.49-0.551-1-0.551
			c-0.24,0.95-0.75,2.011-1.36,2.75c-0.52,0.771-0.75,2.801-0.5,4.2c0.08,0.03,0.13,0.08,0.15,0.15c0.04,0.42,0.16,1,0.25,1.35
			c0.12,0.41,0.22,0.891,0.3,1.3c0.3,1.33-0.18,2.471-0.4,3.5c-0.21,0.07-0.31,0.261-0.35,0.5c-0.34,0.03-0.36,0.4-0.69,0.45
			c-0.09,0.23,0.02,0.271,0.19,0.351c0.08-0.131,0.4-0.07,0.6-0.15c0.03-0.01,0.01-0.08,0.06-0.1c0.19-0.08,0.29-0.12,0.34-0.2
			c-0.03-0.01-0.09,0-0.09-0.05c0.5,0.01,0.47-0.53,0.5-0.75c0.03,0.14,0.06,0.06,0.19,0.149c-0.01-0.16-0.17-0.25,0-0.35
			c0,0.09,0.04,0.13,0.1,0.149c0.01-0.21,0.04-0.01,0.11,0c0.01-0.09-0.06-0.109-0.06-0.199c0.16,0.08,0.29-0.21,0.3-0.301
			c0.27,0,0.64-0.67,1.15-0.8c0,0.05-0.04,0.061-0.04,0.101c0.14-0.12,0.38-0.33,0.5-0.2c-0.01,0.069-0.09,0.05-0.11,0.1
			c0.1-0.01,0.1,0.07,0.15,0.101c-0.03-0.12-0.03-0.24,0.05-0.351c0.11,0.01,0.1,0.13,0.16,0.2c-0.18-0.09-0.16,0-0.16,0.2
			c0.35-0.03,0.66,0.069,0.95,0.05c0,0.08-0.13,0.03-0.15,0.1c0.48-0.069,1.42,0.32,1.65,0c0.16,0.261,0.38-0.13,0.5,0.101
			c0.01-0.061,0-0.141,0.05-0.15c0.22,0.2,0.41-0.14,0.7,0.05c0.02-0.09-0.05-0.25,0.1-0.199c-0.05,0.069-0.05,0.119,0.05,0.149
			c-0.01-0.31,0.31,0.05,0.1-0.25c0.23-0.02,0.19-0.03,0.55-0.1c0.62-0.11,1.2-0.51,1.45-0.9c0.08-0.02,0.09-0.06,0.15,0
			c0.07-0.16-0.16-0.04-0.1-0.2c0.07,0,0.07,0.061,0.16,0.051c0.71-0.851,1.72-2.19,1.79-3.65c0.04-0.75-0.01-1.19-0.1-1.7
			c-0.03-0.22-0.01-0.54-0.05-0.7C25.12,34.84,25.07,34.73,25.06,34.7z M26.96,27.31c-0.01,0.131-0.14,0.091-0.18-0.01
			c0,0.05,0,0.101,0,0.15c-0.28-0.15-0.57,0-0.86,0c-0.24,0-0.54-0.09-0.65-0.101c-0.08-0.01-0.21,0-0.29,0
			c-0.09,0-0.05-0.069-0.1-0.1c-0.32-0.15-0.75-0.16-1.11-0.4c-0.03-0.02-0.01-0.13-0.04-0.149c-0.11-0.08-0.28-0.04-0.31-0.2
			c-0.02,0.09-0.06-0.01-0.15,0c-0.09-0.22-0.36-0.22-0.35-0.45c-0.25,0-0.36-0.55-0.4-0.7c-0.09,0.14,0-0.11,0-0.1
			c-0.05-0.1-0.13-0.05-0.14-0.15c-0.06-0.3-0.17-0.48-0.21-0.7c-0.13-0.89,0.24-1.8,0.21-2.3c0.13,0.09,0.24-0.31,0.35-0.45
			c0.1-0.14,0.22-0.19,0.25-0.3c0.07-0.11,0.12,0.06,0.14-0.05c-0.09-0.18,0.56-0.31,0.45-0.5c-0.3,0.28-0.73,0.35-0.95,0.6
			c0.02-0.06,0.08-0.1-0.05-0.1c-0.04,0.14-0.1,0.27-0.34,0.2c-0.09,0.13,0.22,0.1,0.04,0.15c-0.13,0.02-0.03-0.19-0.2-0.15
			c-0.22,0.09-0.77,0.44-0.8,0.25c-0.01,0.16-0.21,0.16-0.29,0.25c-0.18-0.06-0.39,0.08-0.46,0.1c-1.39,0.36-3.05,0.68-4.45,0.5
			c-0.14,0.2-0.13,0.33-0.19,0.6c-0.08,0.32-0.22,0.61-0.26,0.95c-0.14,1.44,0.12,2.78,0.4,3.85c0.02,0.1,0.14,0.1,0.15,0.2
			c-0.12,0.479,0.55,0.59,0.81,0.85c0.45,0.101,0.82,0.11,1.09,0.3c0.38,0.061,0.76,0.15,1.1,0.25c0.18,0.051,0.3,0.19,0.45,0.25
			c0.46,0.16,0.92,0.23,1.36,0.4c0.22,0.09,0.42,0.25,0.64,0.35c0.43,0.181,0.9,0.19,1.15,0.551c0.72,0.22,1.06,0.81,1.61,1.199
			c0.17,0.37,0.37,0.73,0.54,1.101c0.53,0.22,1.07,0.14,1.66,0.149c0.75,0.021,1.51,0.08,2.34,0c0.66-0.06,1.5-0.119,2.11-0.25
			c0.47-0.1,1.47-0.569,1.59-0.699c0.18-0.17,0.17-0.33,0.07-0.391c0.079,0,0.069-0.09,0.14-0.109c0.07-0.181-0.17-0.03-0.16-0.15
			c0.01-0.08,0.33-0.2,0.11-0.2c-0.17-0.1-0.03,0.25-0.4,0.2c-0.05,0.14,0.271,0.06,0.15,0.2c-0.311-0.09-0.181-0.09-0.41-0.2
			c0.08-0.01,0.189,0.02,0.21-0.05c-0.17,0.06-0.04-0.16-0.21-0.101c-0.07,0.061-0.04,0.221-0.24,0.15
			c-0.02,0.1,0.061,0.1,0.09,0.15c-0.26,0-0.239,0.02-0.14-0.15c-0.22-0.01-0.2,0.21-0.36,0.25c0.05-0.12-0.34-0.03-0.14,0
			c0.07,0,0.17-0.01,0.14,0.1c-0.189,0-0.27-0.149-0.35,0.051c-0.01-0.04,0-0.101-0.04-0.101c-0.42,0.311-0.9,0.24-1.25,0.101
			c-0.271-0.69-0.271-1.521-0.16-2.25c0.521-0.67,1.4-0.15,2.11-0.15c0.43,0,0.66-0.32,1.05-0.35c0.04,0.069,0.16,0.06,0.2,0.149
			c0.14-0.09,0.319-0.14,0.5-0.2c0.1-1.04,0.08-1.369,0.09-2.6c-0.23,0.05-0.42,0.44-0.65,0.2c-0.06,0.109-0.33,0.08-0.439,0.05
			c-0.5-0.13-0.63-0.7-0.65-1.1c-0.92,0.1-1.02-0.61-1.05-1.4c0.22-0.47,0.68-0.72,0.95-1.15c-0.2-0.79,0.939-0.91,1.39-1.05
			c-0.12-0.46-0.24-0.92-0.39-1.35c-0.19-0.13-0.33-0.31-0.36-0.6c-0.189-0.04-0.12-0.27-0.2-0.4c-0.35-0.6-0.979-0.99-1.6-1.3
			c0.12-0.13-0.29-0.2-0.5-0.3c-0.4-0.19-0.87-0.54-1.24-0.55c0.05-0.07,0.05-0.13,0-0.2c-0.13,0.01-0.18,0.09-0.26,0.15
			c0.06,0.01,0.13,0.08,0.05,0.1c-0.14-0.12-0.18,0.1-0.25,0c0.14-0.14-0.07-0.05-0.09-0.15c0.06-0.12,0.15,0.09,0.2-0.05
			c-0.05-0.17-0.17,0.03-0.25-0.1c0.069,0,0.029-0.15,0-0.05c-0.33,0.16-0.23,0.15-0.4,0.35c0.04,0.01,0.16,0.19,0.04,0.2
			c-0.05-0.05-0.05,0.08-0.25,0c-0.439,0.32-0.78,0.73-1.25,1.05c-0.36,0.25-0.95,0.47-1.19,0.75c0.26-0.13,0.06,0,0.25,0
			c0.25,0,0.87-0.22,0.94,0c0.12-0.07-0.06-0.12,0.05-0.15c0.2,0.11,0.34,0.26,0.65,0.25c0.18,0.24,0.56,0.28,0.85,0.4
			c0.391,0.42,0.87,0.73,1.2,1.2c-0.05,0.3,0.17,0.21,0.11,0.45c0.09,0.01,0.16,0.03,0.189,0.1c-0.05,0.01-0.14-0.01-0.14,0.05
			c0.17,0.07,0.22,0.37,0.14,0.55c0.05,0.01,0.09,0.01,0.11,0.05c0.07,0.24,0.1,0.61,0.09,0.9c-0.01,0.36-0.15,0.69-0.2,1
			c-0.01,0.07,0.061,0.18,0.061,0.2c-0.061,0.15-0.32,0.17-0.11,0.25c-0.16,0.06-0.32,0.44-0.14,0.4
			c-0.261,0.08-0.271,0.4-0.45,0.55c-0.13-0.02-0.37,0.101-0.25,0.15c0-0.03,0.04-0.061,0.04,0c-0.12,0.09-0.13,0.09-0.2,0.3
			c-0.26-0.05-0.64,0.22-1,0.4C27.33,27.19,26.98,27.46,26.96,27.31z M33.38,34.06c-0.03,0.04-0.17,0.131-0.16,0.04
			c0.12-0.06,0.271-0.239,0.11-0.3c0.14-0.02,0.02-0.09,0.2-0.149c-0.11-0.011-0.11-0.131-0.15-0.2c0.19-0.12,0.12,0.26,0.2,0.1
			c0.01-0.09-0.15-0.25,0-0.3c-0.08,0.12,0.17,0.15,0.14,0.05c-0.17-0.01,0.011-0.09-0.14-0.149c0.13,0.069,0.17-0.2,0.09-0.051
			c-0.189,0.011-0.01-0.04-0.05-0.149c-0.08,0-0.15,0.01-0.2,0.05c0.01-0.07-0.01-0.18,0.05-0.2c-0.08,0.141,0.221,0.141,0.2,0.05
			c-0.08-0.02,0.021-0.06,0-0.149c-0.26,0.02,0.12-0.13-0.05-0.15c-0.08,0.16-0.13-0.13-0.29-0.05c-0.13,0.07-0.04,0.1-0.11,0.15
			c-0.01-0.021-0.069-0.08-0.1-0.101c-0.05,0.311,0,0.42-0.15,0.65c0.21,0.01,0.021,0.03,0,0.1c0.261,0.03-0.1,0.28,0.11,0.351
			c-0.05,0-0.11,0-0.16,0c0.14,0.52-0.3,0.869-0.14,1c-0.181,0.02,0.01,0.159-0.16,0.149c0.13,0.11-0.19,0.51,0,0.55
			c-0.09,0.021-0.22,0.41-0.04,0.2c0,0.08,0,0.17,0,0.25c-0.32,0.04-0.14,0.22-0.36,0.2c-0.05,0.16,0.08,0.12,0.11,0.2
			c-0.08,0.02-0.09,0.06-0.16,0c0.11,0.439,0.47-0.311,0.25-0.05c0-0.051-0.04-0.061-0.04-0.101c0.13-0.02,0.17-0.12,0.29-0.149
			c0.01-0.07-0.02-0.11-0.05-0.15c0.31-0.12,0.17-0.64,0.46-0.65c-0.01-0.17-0.03-0.27,0.14-0.399c0.03-0.16-0.069-0.2-0.1-0.3
			C33.29,34.47,33.38,34.11,33.38,34.06z M39.92,26.75c0.15,0.37,0.061,0.56-0.04,1c-0.1,0.41-0.18,0.73-0.3,1.1
			c-0.19,0.54-0.46,1.16-0.8,1.601c-0.37,0.47-0.761,1.2-1.16,1.7c-0.17,0.06-0.38,0.22-0.59,0.399c-0.24,0.19-0.58,0.41-0.7,0.7
			c-0.15,0.36-0.33,0.9-0.5,1.35c-0.14,0.351-0.26,0.7-0.41,1.2c-0.08,0.28-0.2,0.59-0.2,0.75c0.011,0.84,0.92,0.84,1,1.601
			c-0.38,0.229-0.72,0.09-1.3-0.101c-0.5-0.17-0.77-0.33-1.2-0.55c-0.149-0.08-0.359-0.12-0.5-0.2c-0.04-0.03-0.08-0.149-0.14-0.2
			c-0.11-0.069-0.19-0.04-0.25-0.1c-0.15-0.14-0.22-0.24-0.21-0.4c0.32-0.43,0.95-0.1,1.35-0.25c0.641-0.229,0.62-1.279,1-1.85
			c-0.489,0.14-1-0.04-1.35-0.2c-0.24,0.24-0.21,0.62-0.34,0.9c-0.08,0.16-0.261,0.319-0.36,0.5c-0.02,0.06-0.02,0.1-0.04,0.149
			c-0.1,0.2-0.31,0.511-0.5,0.801c-0.11,0.149-0.14,0.34-0.26,0.449c-0.14,0.15-0.37,0.221-0.54,0.351
			c-0.04,0.5-0.08,1.06-0.36,1.399C30.99,39.14,30.53,39.2,30.28,39.45c-0.16,0.149-0.221,0.34-0.311,0.6
			c-0.06,0.2-0.13,0.3-0.25,0.55c-0.01,0.03,0.07,0.061,0.061,0.101c0,0-0.09,0.149-0.15,0.229c0-0.04-0.16,0.021-0.1,0.221
			c-0.5,0.369-0.57,0.689-1.15,1.05c0.12,0.33,0.12,0.79,0.24,1.149c0.07,0.19,0.18,0.29,0.21,0.45c0.03,0.23-0.12,0.19-0.05,0.351
			c-0.181,0.04-0.38,0.13-0.66,0.1c-0.39-0.04-0.76-0.27-1.04-0.45c-0.17-0.39-0.01-0.79-0.5-0.6c-0.29,0.109-0.63,0.33-0.91,0.399
			c-0.55,0.15-1.12,0.07-1.55,0.15c-1.47,0.27-3.06,0.01-4.3,0.05c-0.38,0.58-0.43,1.601-1.3,1.5c-0.78-0.09-0.65-1.25-0.6-2.05
			c-0.17-0.37-0.73-0.58-0.85-0.85c-0.65,0.01-1.1,0.33-1.45,0.75c-0.1,0.119-0.13,0.31-0.24,0.449c-0.11,0.131-0.33,0.25-0.46,0.4
			c-0.32,0.37-0.46,0.59-1.1,0.7c-0.18,0.03-0.46,0.109-0.65-0.101c0.16-0.619,0.71-0.93,0.95-1.399c0.46-0.87,0.55-2.23,0.4-3.65
			c-0.06-0.68-0.39-1.29-0.5-1.95c-0.05-0.369-0.1-0.81-0.14-1.199c-0.07-0.631-0.15-1.4-0.06-2c0.07-0.44,0.13-0.91,0.25-1.25
			c0.13-0.36,0.5-0.58,0.55-1c0.5-0.32,0.71-0.931,0.9-1.551c0.01-0.17,0.13,0.011,0.15-0.199c0.06-0.631-0.5-0.801-0.55-1.45
			c-0.03-0.49,0.25-0.931,0.7-1.101c0.06-0.33-0.18-0.59-0.25-0.949c-0.14-0.75-0.2-1.63-0.15-2.601c0.04-0.64,0.23-1.15,0.4-1.7
			c-0.71-0.25-1.35-0.59-1.3-1.3c0.02-0.25,0.17-0.66,0.3-0.9c0.3-0.52,0.95-0.91,1.2-1.3c-0.08-0.34-0.37-0.89-0.7-1.15
			c-0.03-0.38-0.25-0.74-0.44-1.05c-0.21-0.34-0.42-0.66-0.61-1c-0.35-0.64-0.66-1.28-1.15-1.9c-0.63-0.81-1.45-1.72-2.2-2.6
			c-0.32-0.38-0.77-0.6-0.6-1.2c0.14-0.47,0.55-0.96,0.95-1.35c1.19-1.14,2.61-1.93,4.15-2.7c1.65-0.81,3.2-1.23,5.15-1.7
			c0.9-0.22,1.97-0.51,2.55,0c0.32,0.27,0.53,1.08,0.65,1.65c0.28,1.26,0.35,2.26,0.61,3.45c0.23,1.08,0.61,2.13,0.79,2.95
			c0.05,0.18,0.02,0.35,0.06,0.5c0.13,0.51,0.43,0.77,0.69,1.25c0.811-0.26,2.37-0.33,2.96,0.3c-0.01,0.18,0.17,0.34,0.2,0.45
			c0.24,1.15-0.311,1.76-0.75,2.5c0.32-0.01,0.62,0.4,1.09,0.4c0.16,0.18,0.26,0.18,0.41,0.3c0.12-0.03,0.8,0.29,0.75,0.45
			c0.04-0.04,0.11-0.05,0.2-0.05c-0.021,0.17,0.229,0.21,0.34,0.3c0.36,0.28,0.77,0.7,1.1,1.05c0.21,0.06,0.37-0.16,0.561-0.2
			c0.96-0.22,2.149,0.07,2.64,0.5c0.22,0.19,0.33,0.47,0.5,0.65c0.85-0.27,1.17,1.21,0.41,1.45c-0.061,0.56,0.04,0.98-0.16,1.35
			c-0.12,0.1,0.04,0.16-0.25,0.2c0.271,0.08-0.06,0.11-0.04,0.2c0.01,0.09-0.05,0.19-0.16,0.35c-0.17-0.01,0.11-0.16-0.05-0.15
			c-0.2,0.41-0.52,0.71-1.05,0.8c-0.15,0.45-0.49,0.66-1,0.85c0.25,1,0.18,2.31,0.05,3.45c0.34-0.051,0.49-0.19,0.86-0.101
			c0.279,0.34,0.21,0.87,0.189,1.3c-0.01,0.261-0.04,0.67-0.3,0.95c-0.14,0-0.12,0.13-0.39,0.101c0.12,0.369-0.011,0.939,0.05,1.25
			c0.38,0.27,1.02,0.27,1.14,0.8c0.28-0.4,0.49-0.811,0.45-1.5c-0.01-0.22-0.12-0.431-0.14-0.65c-0.07-0.55-0.11-1.08-0.061-1.7
			c0.07-0.84,0.42-1.489,0.65-2.149c0.24-0.67,0.56-1.29,0.85-2c0.851-0.16,1.55,0.22,2.2,0.55C39.46,26.39,39.71,26.56,39.92,26.75
			z M39.88,27.2c-1.1,0.17-2.16-0.49-2.96-0.95c-0.34,0.63-0.53,1.21-0.8,1.9c-0.13,0.35-0.32,0.689-0.4,1.05
			c-0.08,0.439-0.09,1.05-0.1,1.5c-0.01,0.729,0.29,1.51,0.21,2.3c-0.03,0.24-0.2,0.46-0.3,0.7c-0.45,1.02-0.91,2.06-1.2,2.95
			c-0.41,0.05-1.24-0.21-1.45,0.1c-0.01,0.25,0.33,0.38,0.54,0.5c0.71,0.39,1.61,0.86,2.5,0.85c-0.03-0.5-0.31-0.51-0.54-0.75
			c-0.17-0.17-0.439-0.489-0.46-0.699c-0.01-0.21,0.2-0.641,0.3-0.95c0.19-0.53,0.36-1.01,0.5-1.4c0.2-0.51,0.351-1.01,0.561-1.399
			c1.22-0.75,2.04-1.881,2.689-3.2c0.061,0,0.08,0.069,0.11,0c-0.04,0-0.061-0.01-0.05-0.05c0.17-0.221,0.189-0.45,0.3-0.7
			c0.09-0.22,0.27-0.46,0.34-0.7C39.77,27.96,39.69,27.55,39.88,27.2z M39.78,27.05c0.09-0.33-0.33-0.49-0.61-0.649
			c-0.55-0.311-1.51-0.84-2.09-0.55c0.14,0.04-0.04,0.16,0,0.25C37.76,26.6,38.64,27.17,39.78,27.05z M36.08,23.55
			c0.1-0.31,0.13-0.87,0.09-1.25c-0.15-1.43-0.97-2.44-2.2-2.5c-0.5,0.17-1.33,0.24-1.5,0.55c0.101,0.01,0.2,0.44,0.36,0.55
			c0.17,0.56,0.46,1.22,0.55,1.7c0.561-0.04,0.811,0.47,0.65,1c0.41,0.26,0.64,0.72,0.64,1.25c0.561-0.03,0.8-0.59,1.11-0.7
			C35.73,23.97,36,23.76,36.08,23.55z M35.17,33.9c0.01-0.11-0.2-0.45-0.34-0.551c-0.061-0.04-0.19,0.03-0.25,0
			c-0.07-0.029-0.061-0.109-0.16-0.149c-0.12-0.061-0.41-0.07-0.45-0.05c-0.13,0.29-0.239,0.64-0.25,1.05
			C34.31,34.3,35.14,34.44,35.17,33.9z M34.38,25c0.101-0.43-0.14-0.71-0.3-1.15c-0.13,0.01-0.16-0.08-0.25-0.1
			c-0.271,0.31-0.69,0.24-1.21,0.45c-0.01-0.16-0.13-0.08-0.2,0c-0.81-0.74-1.75,0.56-1.25,1.45c0.11-0.04,0.19,0.14,0.36,0.2
			c0.47,0.169,0.68-0.14,1.14-0.25c0.49-0.11,1.04,0,1.21-0.05C34.12,25.48,34.34,25.12,34.38,25z M33.88,29.75
			c-0.05,0.09,0.18-0.02,0.15-0.05C33.98,29.66,33.88,29.74,33.88,29.75z M33.83,31.9c0.01,0.06,0.05,0.08,0.09,0.1
			c-0.01-0.07-0.06-0.36-0.14-0.2c0.029,0,0.05,0.01,0.05,0.05c-0.24,0.021-0.14,0.301-0.05,0.4c-0.09,0.02-0.13-0.07-0.16,0
			c0.149,0.14,0.25-0.05,0.3-0.15c-0.05-0.01-0.14,0.011-0.14-0.05C33.78,31.99,33.77,31.91,33.83,31.9z M33.08,32.3
			c-0.04,0.311,0.479,0.101,0.59,0.15c-0.08-0.021,0.03-0.05,0.05-0.101c-0.39,0.16-0.17-0.22-0.39,0.051
			c-0.01-0.061-0.07-0.07-0.05-0.15c0.12,0.02,0.1-0.09,0.25-0.05c-0.011-0.09-0.04-0.17-0.11-0.2c-0.02,0.34-0.21,0.05-0.34,0.25
			C33.16,32.24,33.2,32.31,33.08,32.3z M33.12,26.95c0.25-0.22,0.29-0.641,0.26-1.15c-0.12,0-0.149-0.09-0.3-0.05
			C33.14,26,33,26.6,33.12,26.95z M32.88,32.65c0.05,0,0.03-0.061-0.05-0.051c-1.75,1.341-5.37,1.16-7.45,1.15
			c-0.12,0.03-0.32-0.21-0.31,0c-0.1,0.13,0.08,0.34,0.16,0.55c0.08,0.24,0.12,0.51,0.25,0.7c-0.15,0-0.06,0.22-0.06,0.25
			c0.02,0.14,0.03,0.27,0.06,0.4c0.05,0.33,0.09,1,0.04,1.3c-0.05,0.359-0.17,0.64-0.2,0.95c-0.06,0.729-0.24,1.06-0.44,1.6
			c-0.16,0.19-0.41,0.58-0.56,0.85c-0.04,0.08-0.19,0.29-0.05,0.301c1.17-0.021,2.09-0.221,3.06-0.551
			c0.41,0.061,1.06-0.199,1.75-0.399c0.65-0.19,1.25-0.391,1.54-0.65c0.2-0.16,0.17-0.18,0.3-0.35c0.07-0.08,0.19-0.11,0.2-0.15
			c0.14-0.25,0.13-0.54,0.21-0.8c-0.76,0.23-1.53,0.71-2.36,0.7c0.101-0.23,0.34-0.101,0.5-0.15c0.221-0.06,0.48-0.189,0.75-0.3
			c0.3-0.11,0.67-0.17,0.86-0.3c0.189-0.141,0.15-0.311,0.3-0.55c0-0.011,0.04,0.029,0.09-0.051c0.28-0.399,0.54-1,0.7-1.399
			c0.26-0.63,0.36-1.29,0.36-1.9c-0.271-0.01-0.57,0.2-0.75,0.101c0.109-0.12,0.319-0.141,0.55-0.15
			C32.64,33.54,32.98,33.11,32.88,32.65z M32.83,27c0.01-0.31,0.16-0.85,0-1.2c-0.32,0.04-0.47,0.23-0.75,0.3
			C32.04,26.67,32.36,27.1,32.83,27z M32.88,30c-0.08,0.03-0.26-0.06-0.26,0.05C32.7,30.02,32.88,30.11,32.88,30z M32.17,36.45
			c0.04-0.01,0.1,0,0.11-0.05c-0.08-0.011-0.09-0.08-0.16-0.101c-0.05,0.22-0.39,0.59-0.15,0.55c-0.04-0.06,0.11-0.189,0.11-0.29
			c0.01,0.07,0.05,0,0-0.06c0.08-0.02,0.12,0.07,0.14,0C32.19,36.5,32.17,36.49,32.17,36.45z M30.33,30.25
			C30.12,30.07,30.21,30.41,30.33,30.25L30.33,30.25z M30.22,31.2c0.05-0.061,0.07-0.13,0.061-0.25c-0.11,0.03-0.38,0.13-0.4-0.05
			c0.061,0.02,0.17-0.141,0.04-0.15c0,0.03-0.04,0.06-0.04,0c0.2-0.24,0.05,0.14,0.24,0c-0.05-0.01-0.05-0.08-0.04-0.15
			c-0.16-0.04-0.1,0.141-0.25,0.101c0.05-0.07,0.13-0.101,0.14-0.2c-0.149-0.06-0.25,0.17-0.14,0.2c-0.03,0.24,0.09,0.33,0.09,0.399
			C30.06,31.12,30.15,31.02,30.22,31.2z M30.28,30.9c-0.061-0.16-0.03-0.131,0.05-0.25c-0.07-0.021-0.1-0.07-0.21-0.051
			C30.16,30.71,30.15,30.87,30.28,30.9z M30.17,30.1c-0.05,0-0.09,0-0.14,0c0.069,0.15-0.011,0.15-0.101,0.24h-0.01
			c0-0.07-0.14-0.02-0.04,0.01c0.021-0.01,0.03-0.01,0.04-0.01v0.01l0.01-0.01c0.101,0,0.08,0.21,0.15,0.16
			c-0.061-0.16,0.07-0.12,0.09-0.2c-0.07-0.01-0.05-0.109-0.09-0.149C30.11,30.14,30.17,30.15,30.17,30.1z M29.83,31.2
			C29.99,31.35,29.98,31.02,29.83,31.2L29.83,31.2z M29.47,40.35c0.24-0.14,0.37-0.35,0.45-0.75c-0.79,0.301-1.84,0.521-2.45,0.851
			c0.021-0.13-0.1-0.13-0.189-0.15c-0.15,0,0.109,0.141-0.11,0.101c-0.49,0.02-0.97,0.31-1.55,0.35c-0.4,0.03-0.84,0.14-1.05,0.15
			c-0.17,0.01-0.36-0.091-0.5-0.101c0.07,0,0.07-0.14,0-0.149c-0.16,0.35-0.79,0.83-0.95,0.949c-0.11,0.091-0.26,0.2-0.45,0.2
			c0,0.061,0.01,0.141-0.05,0.15c-0.15-0.05-0.41,0.21-0.74,0.149c-0.96,0.771-2.93,0.5-4.15,0.4c-0.07,0.38,0.38,0.39,0.44,0.8
			c0.05,0.28-0.15,0.78-0.1,1.15c0.06,0.38,0.62,0.76,1,0.5c0.23-0.351,0.55-1.09,0.41-1.351c0.17,0.04,0.06-0.199,0.25-0.149
			c0.11,0.06,0.23,0.13,0.34,0.2c1.08,0.069,2.05,0.05,3.1,0.05c0.63,0,1.29-0.271,1.95-0.351c0.31-0.04,0.6,0,0.91-0.1
			c0.02-0.06,0.05-0.11,0.09-0.15c0.53-0.09,0.84-0.399,1.26-0.5c0-0.159,0.66-0.31,0.74-0.399c-0.09-0.11,0.22-0.181,0.3-0.25
			c0.46-0.38,0.73-1.021,1.16-1.45C29.59,40.4,29.51,40.4,29.47,40.35z M28.78,25.8c0.45-0.63,0.8-1.79,0.64-2.75
			c-0.05-0.37-0.43-1.1-0.75-1.55c-0.26-0.38-0.68-0.7-1.14-0.9c-0.761-0.32-1.391-0.23-2.1-0.25c0.05,0,0.03-0.05,0,0h-0.01
			c-0.32,0.06-0.65,0.1-0.94,0.2c-0.51,0.17-1.44,0.8-1.6,1.3c-0.01,0.03-0.07,0.2-0.11,0.3c-0.04,0.17-0.26,0.48-0.29,0.75
			c-0.02,0.48-0.18,1.19,0,1.9c0.24,0.98,1.32,2.01,2.19,2.3C26.51,27.72,28.09,26.75,28.78,25.8z M28.53,44.1
			c0.02-0.069,0.069-0.119,0.14-0.149c-0.01-0.36-0.34-0.59-0.25-0.9c-0.26-0.13,0-0.71-0.3-0.7c0,0.131-0.18,0.08-0.24,0.15
			c-0.01,0.08,0.01,0.18-0.05,0.2c-0.08,0-0.04-0.13-0.16-0.101c-0.1,0.24-0.41,0.17-0.64,0.45c0.18,0.09,0.14,0.34,0.25,0.5
			C27.5,43.87,27.95,44.14,28.53,44.1z M26.08,15.45c-0.05-0.29-0.25-0.45-0.35-0.7c0,0.02,0.05-0.06,0.04-0.1
			c0-0.07-0.08-0.06-0.1-0.1c-0.08-0.24-0.05-0.54-0.29-0.75c-0.73,1.01-1.86,1.84-2.96,2.4c-0.11,0.06-0.26,0.08-0.4,0.15
			c-0.76,0.37-1.53,0.93-2.29,1.2c-0.31,0.11-0.65,0.11-0.96,0.2c-0.08,0.03-0.16,0.12-0.25,0.15c-0.18,0.06-0.4,0.04-0.6,0.1
			c-0.25,0.08-0.49,0.23-0.75,0.3c-0.39,0.11-0.73,0.11-1.05,0.2c0.09,0.58,0.54,0.91,0.55,1.4c0.29-0.01,0.28,0.05,0.31,0.25
			c0.76,0.24,1.59-0.03,2.29-0.15c0.09-0.03,0.09-0.15,0.15-0.2c1.1-0.08,1.71-0.6,2.5-0.95c0.5-0.22,1.02-0.31,1.31-0.75
			c0.06,0,0.06,0.06,0.15,0.05C24.47,17.32,25.44,16.77,26.08,15.45z M18.07,44.8c0.08,0.2,0.3,0.51,0.55,0.351
			C18.37,45.14,18.22,44.75,18.07,44.8z"/>
		<path d="M38.97,28.7c0.09,0.59-0.42,1.1-0.75,1.6c-0.16,0.26-0.3,0.5-0.5,0.75c-0.17,0.23-0.319,0.521-0.5,0.7
			c-0.18,0.2-0.7,0.51-0.89,0.45c-0.58-0.181-0.54-2.2-0.3-2.9c0.08-0.26,0.739-0.5,1.09-0.6c0.399-0.11,0.91-0.19,1.16-0.2
			C38.56,28.49,38.83,28.51,38.97,28.7z M38.97,28.8c-0.239-0.21-0.739-0.109-1.189-0.05c-0.49,0.06-1.23,0.15-1.36,0.4
			c-0.07,0.14-0.3,0.18-0.2,0.399c0.351,0.37,1.141,0.13,1.7-0.05C38.39,29.35,38.81,29.08,38.97,28.8z M38.58,29.5
			c-0.01-0.03-0.01-0.06-0.05-0.05c-0.63,0.3-1.721,0.53-2.41,0.45c-0.07,0.729-0.101,1.79,0.21,2.149c0.58,0,0.93-0.56,1.25-0.95
			c0.07-0.09,0.17-0.189,0.25-0.3c0.07-0.109,0.06-0.27,0.14-0.399C38.18,30.08,38.49,29.85,38.58,29.5z"/>
		<path fill="#FF1F68" d="M37.78,28.75c0.45-0.06,0.95-0.16,1.189,0.05c-0.16,0.28-0.58,0.55-1.05,0.7
			c-0.56,0.18-1.35,0.42-1.7,0.05c-0.1-0.22,0.13-0.26,0.2-0.399C36.55,28.9,37.29,28.81,37.78,28.75z"/>
		<path fill="#FF1F68" d="M38.53,29.45c0.04-0.01,0.04,0.02,0.05,0.05c-0.09,0.35-0.4,0.58-0.61,0.9
			c-0.08,0.13-0.069,0.29-0.14,0.399c-0.08,0.11-0.18,0.21-0.25,0.3c-0.32,0.391-0.67,0.95-1.25,0.95
			c-0.311-0.359-0.28-1.42-0.21-2.149C36.81,29.98,37.9,29.75,38.53,29.45z"/>
		<path fill="#1FCAFF" d="M34.83,33.35c0.14,0.101,0.35,0.44,0.34,0.551c-0.03,0.54-0.86,0.399-1.45,0.3
			c0.011-0.41,0.12-0.76,0.25-1.05c0.04-0.021,0.33-0.011,0.45,0.05c0.1,0.04,0.09,0.12,0.16,0.149
			C34.64,33.38,34.77,33.31,34.83,33.35z"/>
		<path fill="#1FCAFF" d="M32.69,32.26c0.1,0.061,0.109,0.221-0.07,0.391c-0.12,0.13-1.12,0.6-1.59,0.699
			c-0.61,0.131-1.45,0.19-2.11,0.25c-0.83,0.08-1.59,0.021-2.34,0c-0.59-0.01-1.13,0.07-1.66-0.149c-0.17-0.37-0.37-0.73-0.54-1.101
			c-0.55-0.39-0.89-0.979-1.61-1.199c-0.25-0.36-0.72-0.37-1.15-0.551c-0.22-0.1-0.42-0.26-0.64-0.35c-0.44-0.17-0.9-0.24-1.36-0.4
			c-0.15-0.06-0.27-0.199-0.45-0.25c-0.34-0.1-0.72-0.189-1.1-0.25c-0.27-0.189-0.64-0.199-1.09-0.3c-0.26-0.26-0.93-0.37-0.81-0.85
			C16.16,28.1,16.04,28.1,16.02,28c-0.28-1.07-0.54-2.41-0.4-3.85c0.04-0.34,0.18-0.63,0.26-0.95c0.06-0.27,0.05-0.4,0.19-0.6
			c1.4,0.18,3.06-0.14,4.45-0.5c0.07-0.02,0.28-0.16,0.46-0.1c0.08-0.09,0.28-0.09,0.29-0.25c0.03,0.19,0.58-0.16,0.8-0.25
			c0.17-0.04,0.07,0.17,0.2,0.15c0.18-0.05-0.13-0.02-0.04-0.15c0.24,0.07,0.3-0.06,0.34-0.2c0.13,0,0.07,0.04,0.05,0.1
			c0.22-0.25,0.65-0.32,0.95-0.6c0.11,0.19-0.54,0.32-0.45,0.5c-0.02,0.11-0.07-0.06-0.14,0.05c-0.03,0.11-0.15,0.16-0.25,0.3
			c-0.11,0.14-0.22,0.54-0.35,0.45c0.03,0.5-0.34,1.41-0.21,2.3c0.04,0.22,0.15,0.4,0.21,0.7c0.01,0.1,0.09,0.05,0.14,0.15
			c0-0.01-0.09,0.24,0,0.1c0.04,0.15,0.15,0.7,0.4,0.7c-0.01,0.23,0.26,0.23,0.35,0.45c0.09-0.01,0.13,0.09,0.15,0
			c0.03,0.16,0.2,0.12,0.31,0.2c0.03,0.02,0.01,0.13,0.04,0.149c0.36,0.24,0.79,0.25,1.11,0.4c0.05,0.03,0.01,0.1,0.1,0.1
			c0.08,0,0.21-0.01,0.29,0c0.11,0.011,0.41,0.101,0.65,0.101c0.29,0,0.58-0.15,0.86,0c0-0.05,0-0.101,0-0.15
			c0.04,0.101,0.17,0.141,0.18,0.01c0.021,0.15,0.37-0.119,0.46-0.159c0.36-0.181,0.74-0.45,1-0.4c0.07-0.21,0.08-0.21,0.2-0.3
			c0-0.061-0.04-0.03-0.04,0c-0.12-0.05,0.12-0.17,0.25-0.15c0.18-0.149,0.189-0.47,0.45-0.55c-0.181,0.04-0.021-0.34,0.14-0.4
			c-0.21-0.08,0.05-0.1,0.11-0.25c0-0.02-0.07-0.13-0.061-0.2c0.05-0.31,0.19-0.64,0.2-1c0.01-0.29-0.02-0.66-0.09-0.9
			c-0.021-0.04-0.061-0.04-0.11-0.05c0.08-0.18,0.03-0.48-0.14-0.55c0-0.06,0.09-0.04,0.14-0.05c-0.029-0.07-0.1-0.09-0.189-0.1
			c0.06-0.24-0.16-0.15-0.11-0.45c-0.33-0.47-0.81-0.78-1.2-1.2c-0.29-0.12-0.67-0.16-0.85-0.4c-0.311,0.01-0.45-0.14-0.65-0.25
			c-0.109,0.03,0.07,0.08-0.05,0.15c-0.07-0.22-0.69,0-0.94,0c-0.19,0,0.01-0.13-0.25,0c0.24-0.28,0.83-0.5,1.19-0.75
			c0.47-0.32,0.811-0.73,1.25-1.05c0.2,0.08,0.2-0.05,0.25,0c0.12-0.01,0-0.19-0.04-0.2c0.17-0.2,0.07-0.19,0.4-0.35
			c0.029-0.1,0.069,0.05,0,0.05c0.08,0.13,0.2-0.07,0.25,0.1c-0.05,0.14-0.141-0.07-0.2,0.05c0.02,0.1,0.229,0.01,0.09,0.15
			c0.07,0.1,0.11-0.12,0.25,0c0.08-0.02,0.01-0.09-0.05-0.1c0.08-0.06,0.13-0.14,0.26-0.15c0.05,0.07,0.05,0.13,0,0.2
			c0.37,0.01,0.84,0.36,1.24,0.55c0.21,0.1,0.62,0.17,0.5,0.3c0.62,0.31,1.25,0.7,1.6,1.3c0.08,0.13,0.011,0.36,0.2,0.4
			c0.03,0.29,0.17,0.47,0.36,0.6c0.149,0.43,0.27,0.89,0.39,1.35c-0.45,0.14-1.59,0.26-1.39,1.05c-0.271,0.43-0.73,0.68-0.95,1.15
			c0.03,0.79,0.13,1.5,1.05,1.4c0.021,0.399,0.15,0.97,0.65,1.1c0.109,0.03,0.38,0.06,0.439-0.05c0.23,0.24,0.42-0.15,0.65-0.2
			c-0.01,1.23,0.01,1.56-0.09,2.6c-0.181,0.061-0.36,0.11-0.5,0.2c-0.04-0.09-0.16-0.08-0.2-0.149C32.44,29.68,32.21,30,31.78,30
			c-0.71,0-1.59-0.52-2.11,0.15c-0.11,0.729-0.11,1.56,0.16,2.25c0.35,0.14,0.83,0.21,1.25-0.101c0.04,0,0.03,0.061,0.04,0.101
			c0.08-0.2,0.16-0.051,0.35-0.051c0.03-0.109-0.069-0.1-0.14-0.1c-0.2-0.03,0.189-0.12,0.14,0c0.16-0.04,0.141-0.26,0.36-0.25
			c-0.1,0.17-0.12,0.15,0.14,0.15C31.94,32.1,31.86,32.1,31.88,32c0.2,0.07,0.17-0.09,0.24-0.15c0.17-0.06,0.04,0.16,0.21,0.101
			C32.31,32.02,32.2,31.99,32.12,32c0.229,0.11,0.1,0.11,0.41,0.2c0.12-0.141-0.2-0.061-0.15-0.2c0.37,0.05,0.23-0.3,0.4-0.2
			c0.22,0-0.101,0.12-0.11,0.2c-0.01,0.12,0.23-0.03,0.16,0.15C32.76,32.17,32.77,32.26,32.69,32.26z M28.83,18.1
			C28.88,17.78,28.67,17.99,28.83,18.1L28.83,18.1z M28.28,18.1c-0.011-0.07,0.01-0.18-0.061-0.2c0,0.07-0.08,0.05-0.1,0.1
			C28.2,18.01,28.21,18.08,28.28,18.1z M22.32,21.85c0-0.03,0-0.07,0-0.1c-0.03,0-0.06,0-0.09,0c0,0.03,0,0.07,0,0.1
			C22.26,21.85,22.29,21.85,22.32,21.85z"/>
		<path fill="#1FCAFF" d="M29.92,39.6c-0.08,0.4-0.21,0.61-0.45,0.75c0.04,0.051,0.12,0.051,0.11,0.15
			c-0.43,0.43-0.7,1.07-1.16,1.45c-0.08,0.069-0.39,0.14-0.3,0.25c-0.08,0.09-0.74,0.24-0.74,0.399c-0.42,0.101-0.729,0.41-1.26,0.5
			c-0.04,0.04-0.07,0.091-0.09,0.15c-0.31,0.1-0.6,0.06-0.91,0.1c-0.66,0.08-1.32,0.351-1.95,0.351c-1.05,0-2.02,0.02-3.1-0.05
			c-0.11-0.07-0.23-0.141-0.34-0.2c-0.19-0.05-0.08,0.189-0.25,0.149c0.14,0.261-0.18,1-0.41,1.351c-0.38,0.26-0.94-0.12-1-0.5
			c-0.05-0.37,0.15-0.87,0.1-1.15c-0.06-0.41-0.51-0.42-0.44-0.8c1.22,0.1,3.19,0.37,4.15-0.4c0.33,0.061,0.59-0.199,0.74-0.149
			c0.06-0.01,0.05-0.09,0.05-0.15c0.19,0,0.34-0.109,0.45-0.2c0.16-0.119,0.79-0.6,0.95-0.949c0.07,0.01,0.07,0.149,0,0.149
			c0.14,0.01,0.33,0.11,0.5,0.101c0.21-0.011,0.65-0.12,1.05-0.15c0.58-0.04,1.06-0.33,1.55-0.35c0.22,0.04-0.04-0.101,0.11-0.101
			c0.09,0.021,0.21,0.021,0.189,0.15C28.08,40.12,29.13,39.9,29.92,39.6z"/>
		<path d="M28.83,18.1C28.67,17.99,28.88,17.78,28.83,18.1L28.83,18.1z"/>
		<path fill="#1FCAFF" d="M28.67,43.95c-0.07,0.03-0.12,0.08-0.14,0.149c-0.58,0.04-1.03-0.229-1.25-0.55
			c-0.11-0.16-0.07-0.41-0.25-0.5c0.229-0.28,0.54-0.21,0.64-0.45c0.12-0.029,0.08,0.101,0.16,0.101c0.06-0.021,0.04-0.12,0.05-0.2
			c0.061-0.07,0.24-0.02,0.24-0.15c0.3-0.01,0.04,0.57,0.3,0.7C28.33,43.36,28.66,43.59,28.67,43.95z"/>
		<path d="M28.22,17.9c0.07,0.02,0.05,0.13,0.061,0.2c-0.07-0.02-0.08-0.09-0.16-0.1C28.14,17.95,28.22,17.97,28.22,17.9z"/>
		<path d="M24.38,21.9c1.02-0.15,1.44,1.06,0.85,1.75c-0.38,0.43-1.13,0.35-1.66-0.05c-0.19-0.44-0.23-1.22,0.25-1.55
			C23.98,21.94,24.2,21.97,24.38,21.9z M24.27,23c0.16-0.01,0.25-0.09,0.25-0.25c-0.08-0.04-0.12-0.14-0.29-0.1
			C24.16,22.8,24.17,22.9,24.27,23z"/>
		<path d="M22.12,34.9c-0.01,0.01-0.01,0.029,0,0.05C22.12,34.94,22.12,34.92,22.12,34.9z M22.12,34.89
			c0.04-0.149,0.55-0.08,0.61-0.14c0.06-0.08,0.26-0.2-0.11-0.3c0.09-0.05,0.13-0.141,0.11-0.3c-0.25,0.369,0-0.681-0.16-0.65
			c0.05-0.17,0.1-0.02,0.25-0.05c-0.14,0.14,0.13,0.09,0.1,0.25c0.18-0.09,0.19,0.02,0.25,0.149c0.14-0.149,0.07,0.04,0.25-0.1
			c0.1,0.25-0.11,0.57-0.3,0.7c-0.02,0.3-0.02,0.54-0.05,1.1c-0.01,0.26-0.02,0.58-0.09,0.7s-0.24,0.13-0.31,0.3
			c-0.17-0.17-0.31,0.13-0.69-0.1c-0.23-0.13-0.65-0.891-0.86-1.3c-0.14-0.301-0.16-0.5-0.24-0.7c0.16-0.17-0.01-0.37,0.14-0.65
			c0.24,0.34,0.2,0.67,0.36,1.101c0.06-0.061,0.07-0.021,0.14,0c-0.01,0.06-0.04,0.029-0.04,0c0.01,0.34,0.49-0.08,0.59-0.101
			C22.12,34.81,22.12,34.84,22.12,34.89z M22.32,36.35c0.52,0.021,0.7-0.83,0.45-1.35c-0.28,0.05-0.73,0.05-1.1,0.3
			C21.66,35.96,21.92,36.34,22.32,36.35z"/>
		<path fill="#1FCAFF" d="M22.77,35c0.25,0.52,0.07,1.37-0.45,1.35c-0.4-0.01-0.66-0.39-0.65-1.05C22.04,35.05,22.49,35.05,22.77,35
			z"/>
		<path d="M22.42,33.4c0.2,0.02-0.05,0.17,0.15,0.149c0,0.061-0.09,0.04-0.15,0.05C22.42,33.53,22.42,33.47,22.42,33.4z"/>
		<path d="M22.32,21.75c0,0.03,0,0.07,0,0.1c-0.03,0-0.06,0-0.09,0c0-0.03,0-0.07,0-0.1C22.26,21.75,22.29,21.75,22.32,21.75z"/>
		<path d="M17.23,20.1c-0.01-0.11,0.17-0.02,0.25-0.05C17.48,20.16,17.3,20.07,17.23,20.1z"/>
		<path d="M14.12,44.4c-0.04,0.08-0.07-0.011-0.2,0.05c0-0.05,0-0.101,0-0.15C14,44.33,14.05,44.37,14.12,44.4z"/>
	</g>
	<g>
	</g>
</g>
</svg>
